G04 #@! TF.FileFunction,Legend,Bot*
%FSLAX46Y46*%
G04 Gerber Fmt 4.6, Leading zero omitted, Abs format (unit mm)*
G04 Created by KiCad (PCBNEW 4.1.0-alpha+201608211231+7083~46~ubuntu16.04.1-product) date Fri Aug 26 15:46:51 2016*
%MOMM*%
%LPD*%
G01*
G04 APERTURE LIST*
%ADD10C,0.100000*%
%ADD11C,0.228600*%
%ADD12C,0.127000*%
%ADD13C,0.381000*%
%ADD14C,0.254000*%
%ADD15R,1.670000X2.940000*%
%ADD16R,3.170000X2.950000*%
%ADD17R,2.940000X1.670000*%
%ADD18R,2.940000X2.254200*%
%ADD19O,2.940000X2.254200*%
%ADD20C,2.940000*%
%ADD21O,2.254200X2.940000*%
%ADD22R,2.254200X2.940000*%
%ADD23C,3.956000*%
%ADD24R,0.762000X1.534160*%
%ADD25C,3.900000*%
G04 APERTURE END LIST*
D10*
D11*
X143510000Y-70485000D02*
X73660000Y-70485000D01*
X143510000Y-128905000D02*
X143510000Y-70485000D01*
X73660000Y-128905000D02*
X143510000Y-128905000D01*
X73660000Y-70485000D02*
X73660000Y-128905000D01*
D12*
X82423000Y-97282000D02*
X80899000Y-97282000D01*
X80899000Y-97282000D02*
X80899000Y-94488000D01*
X80899000Y-94488000D02*
X82423000Y-94488000D01*
X83947000Y-94488000D02*
X85471000Y-94488000D01*
X85471000Y-94488000D02*
X85471000Y-97282000D01*
X85471000Y-97282000D02*
X83947000Y-97282000D01*
D11*
X81661000Y-105664000D02*
X81661000Y-101346000D01*
X79502000Y-101346000D02*
X86868000Y-101346000D01*
X79502000Y-105664000D02*
X86868000Y-105664000D01*
D13*
X77851000Y-102997000D02*
X77851000Y-104013000D01*
X78359000Y-103505000D02*
X77343000Y-103505000D01*
D11*
X79502000Y-105664000D02*
X79502000Y-101346000D01*
X86868000Y-101346000D02*
X86868000Y-105664000D01*
D12*
X106553000Y-79502000D02*
X105029000Y-79502000D01*
X105029000Y-79502000D02*
X105029000Y-76708000D01*
X105029000Y-76708000D02*
X106553000Y-76708000D01*
X108077000Y-76708000D02*
X109601000Y-76708000D01*
X109601000Y-76708000D02*
X109601000Y-79502000D01*
X109601000Y-79502000D02*
X108077000Y-79502000D01*
X124333000Y-100203000D02*
X124333000Y-98679000D01*
X124333000Y-98679000D02*
X127127000Y-98679000D01*
X127127000Y-98679000D02*
X127127000Y-100203000D01*
X127127000Y-101727000D02*
X127127000Y-103251000D01*
X127127000Y-103251000D02*
X124333000Y-103251000D01*
X124333000Y-103251000D02*
X124333000Y-101727000D01*
X113792000Y-110617000D02*
X113792000Y-112141000D01*
X113792000Y-112141000D02*
X110998000Y-112141000D01*
X110998000Y-112141000D02*
X110998000Y-110617000D01*
X110998000Y-109093000D02*
X110998000Y-107569000D01*
X110998000Y-107569000D02*
X113792000Y-107569000D01*
X113792000Y-107569000D02*
X113792000Y-109093000D01*
X103632000Y-110617000D02*
X103632000Y-112141000D01*
X103632000Y-112141000D02*
X100838000Y-112141000D01*
X100838000Y-112141000D02*
X100838000Y-110617000D01*
X100838000Y-109093000D02*
X100838000Y-107569000D01*
X100838000Y-107569000D02*
X103632000Y-107569000D01*
X103632000Y-107569000D02*
X103632000Y-109093000D01*
X93472000Y-110617000D02*
X93472000Y-112141000D01*
X93472000Y-112141000D02*
X90678000Y-112141000D01*
X90678000Y-112141000D02*
X90678000Y-110617000D01*
X90678000Y-109093000D02*
X90678000Y-107569000D01*
X90678000Y-107569000D02*
X93472000Y-107569000D01*
X93472000Y-107569000D02*
X93472000Y-109093000D01*
X83312000Y-110617000D02*
X83312000Y-112141000D01*
X83312000Y-112141000D02*
X80518000Y-112141000D01*
X80518000Y-112141000D02*
X80518000Y-110617000D01*
X80518000Y-109093000D02*
X80518000Y-107569000D01*
X80518000Y-107569000D02*
X83312000Y-107569000D01*
X83312000Y-107569000D02*
X83312000Y-109093000D01*
D13*
X74930000Y-116205000D02*
X74930000Y-118745000D01*
X74930000Y-118745000D02*
X115570000Y-118745000D01*
X115570000Y-118745000D02*
X115570000Y-116205000D01*
X115570000Y-116205000D02*
X74930000Y-116205000D01*
X74930000Y-80645000D02*
X74930000Y-83185000D01*
X74930000Y-83185000D02*
X115570000Y-83185000D01*
X115570000Y-83185000D02*
X115570000Y-80645000D01*
X115570000Y-80645000D02*
X74930000Y-80645000D01*
X116459000Y-109855000D02*
X118491000Y-109855000D01*
D11*
X115697000Y-108331000D02*
X115697000Y-108839000D01*
X115443000Y-108585000D02*
X115951000Y-108585000D01*
D13*
X106299000Y-109855000D02*
X108331000Y-109855000D01*
D11*
X105537000Y-108331000D02*
X105537000Y-108839000D01*
X105283000Y-108585000D02*
X105791000Y-108585000D01*
D13*
X96139000Y-109855000D02*
X98171000Y-109855000D01*
D11*
X95377000Y-108331000D02*
X95377000Y-108839000D01*
X95123000Y-108585000D02*
X95631000Y-108585000D01*
D13*
X85979000Y-109855000D02*
X88011000Y-109855000D01*
D11*
X85217000Y-108331000D02*
X85217000Y-108839000D01*
X84963000Y-108585000D02*
X85471000Y-108585000D01*
D14*
X83354333Y-98533857D02*
X83402714Y-98582238D01*
X83547857Y-98630619D01*
X83644619Y-98630619D01*
X83789761Y-98582238D01*
X83886523Y-98485476D01*
X83934904Y-98388714D01*
X83983285Y-98195190D01*
X83983285Y-98050047D01*
X83934904Y-97856523D01*
X83886523Y-97759761D01*
X83789761Y-97663000D01*
X83644619Y-97614619D01*
X83547857Y-97614619D01*
X83402714Y-97663000D01*
X83354333Y-97711380D01*
X82386714Y-98630619D02*
X82967285Y-98630619D01*
X82677000Y-98630619D02*
X82677000Y-97614619D01*
X82773761Y-97759761D01*
X82870523Y-97856523D01*
X82967285Y-97904904D01*
X84273571Y-94058619D02*
X84854142Y-94058619D01*
X84563857Y-94058619D02*
X84563857Y-93042619D01*
X84660619Y-93187761D01*
X84757380Y-93284523D01*
X84854142Y-93332904D01*
X83644619Y-93042619D02*
X83547857Y-93042619D01*
X83451095Y-93091000D01*
X83402714Y-93139380D01*
X83354333Y-93236142D01*
X83305952Y-93429666D01*
X83305952Y-93671571D01*
X83354333Y-93865095D01*
X83402714Y-93961857D01*
X83451095Y-94010238D01*
X83547857Y-94058619D01*
X83644619Y-94058619D01*
X83741380Y-94010238D01*
X83789761Y-93961857D01*
X83838142Y-93865095D01*
X83886523Y-93671571D01*
X83886523Y-93429666D01*
X83838142Y-93236142D01*
X83789761Y-93139380D01*
X83741380Y-93091000D01*
X83644619Y-93042619D01*
X82435095Y-93381285D02*
X82435095Y-94058619D01*
X82870523Y-93381285D02*
X82870523Y-93913476D01*
X82822142Y-94010238D01*
X82725380Y-94058619D01*
X82580238Y-94058619D01*
X82483476Y-94010238D01*
X82435095Y-93961857D01*
X81612619Y-93526428D02*
X81951285Y-93526428D01*
X81951285Y-94058619D02*
X81951285Y-93042619D01*
X81467476Y-93042619D01*
X83354333Y-106788857D02*
X83402714Y-106837238D01*
X83547857Y-106885619D01*
X83644619Y-106885619D01*
X83789761Y-106837238D01*
X83886523Y-106740476D01*
X83934904Y-106643714D01*
X83983285Y-106450190D01*
X83983285Y-106305047D01*
X83934904Y-106111523D01*
X83886523Y-106014761D01*
X83789761Y-105918000D01*
X83644619Y-105869619D01*
X83547857Y-105869619D01*
X83402714Y-105918000D01*
X83354333Y-105966380D01*
X82967285Y-105966380D02*
X82918904Y-105918000D01*
X82822142Y-105869619D01*
X82580238Y-105869619D01*
X82483476Y-105918000D01*
X82435095Y-105966380D01*
X82386714Y-106063142D01*
X82386714Y-106159904D01*
X82435095Y-106305047D01*
X83015666Y-106885619D01*
X82386714Y-106885619D01*
X84273571Y-100916619D02*
X84854142Y-100916619D01*
X84563857Y-100916619D02*
X84563857Y-99900619D01*
X84660619Y-100045761D01*
X84757380Y-100142523D01*
X84854142Y-100190904D01*
X83644619Y-99900619D02*
X83547857Y-99900619D01*
X83451095Y-99949000D01*
X83402714Y-99997380D01*
X83354333Y-100094142D01*
X83305952Y-100287666D01*
X83305952Y-100529571D01*
X83354333Y-100723095D01*
X83402714Y-100819857D01*
X83451095Y-100868238D01*
X83547857Y-100916619D01*
X83644619Y-100916619D01*
X83741380Y-100868238D01*
X83789761Y-100819857D01*
X83838142Y-100723095D01*
X83886523Y-100529571D01*
X83886523Y-100287666D01*
X83838142Y-100094142D01*
X83789761Y-99997380D01*
X83741380Y-99949000D01*
X83644619Y-99900619D01*
X82435095Y-100239285D02*
X82435095Y-100916619D01*
X82870523Y-100239285D02*
X82870523Y-100771476D01*
X82822142Y-100868238D01*
X82725380Y-100916619D01*
X82580238Y-100916619D01*
X82483476Y-100868238D01*
X82435095Y-100819857D01*
X81612619Y-100384428D02*
X81951285Y-100384428D01*
X81951285Y-100916619D02*
X81951285Y-99900619D01*
X81467476Y-99900619D01*
X104502857Y-77935666D02*
X104551238Y-77887285D01*
X104599619Y-77742142D01*
X104599619Y-77645380D01*
X104551238Y-77500238D01*
X104454476Y-77403476D01*
X104357714Y-77355095D01*
X104164190Y-77306714D01*
X104019047Y-77306714D01*
X103825523Y-77355095D01*
X103728761Y-77403476D01*
X103632000Y-77500238D01*
X103583619Y-77645380D01*
X103583619Y-77742142D01*
X103632000Y-77887285D01*
X103680380Y-77935666D01*
X103583619Y-78274333D02*
X103583619Y-78903285D01*
X103970666Y-78564619D01*
X103970666Y-78709761D01*
X104019047Y-78806523D01*
X104067428Y-78854904D01*
X104164190Y-78903285D01*
X104406095Y-78903285D01*
X104502857Y-78854904D01*
X104551238Y-78806523D01*
X104599619Y-78709761D01*
X104599619Y-78419476D01*
X104551238Y-78322714D01*
X104502857Y-78274333D01*
X109933619Y-76435857D02*
X109933619Y-76532619D01*
X109982000Y-76629380D01*
X110030380Y-76677761D01*
X110127142Y-76726142D01*
X110320666Y-76774523D01*
X110562571Y-76774523D01*
X110756095Y-76726142D01*
X110852857Y-76677761D01*
X110901238Y-76629380D01*
X110949619Y-76532619D01*
X110949619Y-76435857D01*
X110901238Y-76339095D01*
X110852857Y-76290714D01*
X110756095Y-76242333D01*
X110562571Y-76193952D01*
X110320666Y-76193952D01*
X110127142Y-76242333D01*
X110030380Y-76290714D01*
X109982000Y-76339095D01*
X109933619Y-76435857D01*
X110852857Y-77209952D02*
X110901238Y-77258333D01*
X110949619Y-77209952D01*
X110901238Y-77161571D01*
X110852857Y-77209952D01*
X110949619Y-77209952D01*
X110949619Y-78225952D02*
X110949619Y-77645380D01*
X110949619Y-77935666D02*
X109933619Y-77935666D01*
X110078761Y-77838904D01*
X110175523Y-77742142D01*
X110223904Y-77645380D01*
X110272285Y-79096809D02*
X110949619Y-79096809D01*
X110272285Y-78661380D02*
X110804476Y-78661380D01*
X110901238Y-78709761D01*
X110949619Y-78806523D01*
X110949619Y-78951666D01*
X110901238Y-79048428D01*
X110852857Y-79096809D01*
X110417428Y-79919285D02*
X110417428Y-79580619D01*
X110949619Y-79580619D02*
X109933619Y-79580619D01*
X109933619Y-80064428D01*
X123806857Y-100795666D02*
X123855238Y-100747285D01*
X123903619Y-100602142D01*
X123903619Y-100505380D01*
X123855238Y-100360238D01*
X123758476Y-100263476D01*
X123661714Y-100215095D01*
X123468190Y-100166714D01*
X123323047Y-100166714D01*
X123129523Y-100215095D01*
X123032761Y-100263476D01*
X122936000Y-100360238D01*
X122887619Y-100505380D01*
X122887619Y-100602142D01*
X122936000Y-100747285D01*
X122984380Y-100795666D01*
X123226285Y-101666523D02*
X123903619Y-101666523D01*
X122839238Y-101424619D02*
X123564952Y-101182714D01*
X123564952Y-101811666D01*
X127459619Y-99295857D02*
X127459619Y-99392619D01*
X127508000Y-99489380D01*
X127556380Y-99537761D01*
X127653142Y-99586142D01*
X127846666Y-99634523D01*
X128088571Y-99634523D01*
X128282095Y-99586142D01*
X128378857Y-99537761D01*
X128427238Y-99489380D01*
X128475619Y-99392619D01*
X128475619Y-99295857D01*
X128427238Y-99199095D01*
X128378857Y-99150714D01*
X128282095Y-99102333D01*
X128088571Y-99053952D01*
X127846666Y-99053952D01*
X127653142Y-99102333D01*
X127556380Y-99150714D01*
X127508000Y-99199095D01*
X127459619Y-99295857D01*
X128378857Y-100069952D02*
X128427238Y-100118333D01*
X128475619Y-100069952D01*
X128427238Y-100021571D01*
X128378857Y-100069952D01*
X128475619Y-100069952D01*
X128475619Y-101085952D02*
X128475619Y-100505380D01*
X128475619Y-100795666D02*
X127459619Y-100795666D01*
X127604761Y-100698904D01*
X127701523Y-100602142D01*
X127749904Y-100505380D01*
X127798285Y-101956809D02*
X128475619Y-101956809D01*
X127798285Y-101521380D02*
X128330476Y-101521380D01*
X128427238Y-101569761D01*
X128475619Y-101666523D01*
X128475619Y-101811666D01*
X128427238Y-101908428D01*
X128378857Y-101956809D01*
X127943428Y-102779285D02*
X127943428Y-102440619D01*
X128475619Y-102440619D02*
X127459619Y-102440619D01*
X127459619Y-102924428D01*
X115043857Y-109685666D02*
X115092238Y-109637285D01*
X115140619Y-109492142D01*
X115140619Y-109395380D01*
X115092238Y-109250238D01*
X114995476Y-109153476D01*
X114898714Y-109105095D01*
X114705190Y-109056714D01*
X114560047Y-109056714D01*
X114366523Y-109105095D01*
X114269761Y-109153476D01*
X114173000Y-109250238D01*
X114124619Y-109395380D01*
X114124619Y-109492142D01*
X114173000Y-109637285D01*
X114221380Y-109685666D01*
X114124619Y-110604904D02*
X114124619Y-110121095D01*
X114608428Y-110072714D01*
X114560047Y-110121095D01*
X114511666Y-110217857D01*
X114511666Y-110459761D01*
X114560047Y-110556523D01*
X114608428Y-110604904D01*
X114705190Y-110653285D01*
X114947095Y-110653285D01*
X115043857Y-110604904D01*
X115092238Y-110556523D01*
X115140619Y-110459761D01*
X115140619Y-110217857D01*
X115092238Y-110121095D01*
X115043857Y-110072714D01*
X109552619Y-108185857D02*
X109552619Y-108282619D01*
X109601000Y-108379380D01*
X109649380Y-108427761D01*
X109746142Y-108476142D01*
X109939666Y-108524523D01*
X110181571Y-108524523D01*
X110375095Y-108476142D01*
X110471857Y-108427761D01*
X110520238Y-108379380D01*
X110568619Y-108282619D01*
X110568619Y-108185857D01*
X110520238Y-108089095D01*
X110471857Y-108040714D01*
X110375095Y-107992333D01*
X110181571Y-107943952D01*
X109939666Y-107943952D01*
X109746142Y-107992333D01*
X109649380Y-108040714D01*
X109601000Y-108089095D01*
X109552619Y-108185857D01*
X110471857Y-108959952D02*
X110520238Y-109008333D01*
X110568619Y-108959952D01*
X110520238Y-108911571D01*
X110471857Y-108959952D01*
X110568619Y-108959952D01*
X110568619Y-109975952D02*
X110568619Y-109395380D01*
X110568619Y-109685666D02*
X109552619Y-109685666D01*
X109697761Y-109588904D01*
X109794523Y-109492142D01*
X109842904Y-109395380D01*
X109891285Y-110846809D02*
X110568619Y-110846809D01*
X109891285Y-110411380D02*
X110423476Y-110411380D01*
X110520238Y-110459761D01*
X110568619Y-110556523D01*
X110568619Y-110701666D01*
X110520238Y-110798428D01*
X110471857Y-110846809D01*
X110036428Y-111669285D02*
X110036428Y-111330619D01*
X110568619Y-111330619D02*
X109552619Y-111330619D01*
X109552619Y-111814428D01*
X104883857Y-109685666D02*
X104932238Y-109637285D01*
X104980619Y-109492142D01*
X104980619Y-109395380D01*
X104932238Y-109250238D01*
X104835476Y-109153476D01*
X104738714Y-109105095D01*
X104545190Y-109056714D01*
X104400047Y-109056714D01*
X104206523Y-109105095D01*
X104109761Y-109153476D01*
X104013000Y-109250238D01*
X103964619Y-109395380D01*
X103964619Y-109492142D01*
X104013000Y-109637285D01*
X104061380Y-109685666D01*
X103964619Y-110556523D02*
X103964619Y-110363000D01*
X104013000Y-110266238D01*
X104061380Y-110217857D01*
X104206523Y-110121095D01*
X104400047Y-110072714D01*
X104787095Y-110072714D01*
X104883857Y-110121095D01*
X104932238Y-110169476D01*
X104980619Y-110266238D01*
X104980619Y-110459761D01*
X104932238Y-110556523D01*
X104883857Y-110604904D01*
X104787095Y-110653285D01*
X104545190Y-110653285D01*
X104448428Y-110604904D01*
X104400047Y-110556523D01*
X104351666Y-110459761D01*
X104351666Y-110266238D01*
X104400047Y-110169476D01*
X104448428Y-110121095D01*
X104545190Y-110072714D01*
X99392619Y-108185857D02*
X99392619Y-108282619D01*
X99441000Y-108379380D01*
X99489380Y-108427761D01*
X99586142Y-108476142D01*
X99779666Y-108524523D01*
X100021571Y-108524523D01*
X100215095Y-108476142D01*
X100311857Y-108427761D01*
X100360238Y-108379380D01*
X100408619Y-108282619D01*
X100408619Y-108185857D01*
X100360238Y-108089095D01*
X100311857Y-108040714D01*
X100215095Y-107992333D01*
X100021571Y-107943952D01*
X99779666Y-107943952D01*
X99586142Y-107992333D01*
X99489380Y-108040714D01*
X99441000Y-108089095D01*
X99392619Y-108185857D01*
X100311857Y-108959952D02*
X100360238Y-109008333D01*
X100408619Y-108959952D01*
X100360238Y-108911571D01*
X100311857Y-108959952D01*
X100408619Y-108959952D01*
X100408619Y-109975952D02*
X100408619Y-109395380D01*
X100408619Y-109685666D02*
X99392619Y-109685666D01*
X99537761Y-109588904D01*
X99634523Y-109492142D01*
X99682904Y-109395380D01*
X99731285Y-110846809D02*
X100408619Y-110846809D01*
X99731285Y-110411380D02*
X100263476Y-110411380D01*
X100360238Y-110459761D01*
X100408619Y-110556523D01*
X100408619Y-110701666D01*
X100360238Y-110798428D01*
X100311857Y-110846809D01*
X99876428Y-111669285D02*
X99876428Y-111330619D01*
X100408619Y-111330619D02*
X99392619Y-111330619D01*
X99392619Y-111814428D01*
X94723857Y-109685666D02*
X94772238Y-109637285D01*
X94820619Y-109492142D01*
X94820619Y-109395380D01*
X94772238Y-109250238D01*
X94675476Y-109153476D01*
X94578714Y-109105095D01*
X94385190Y-109056714D01*
X94240047Y-109056714D01*
X94046523Y-109105095D01*
X93949761Y-109153476D01*
X93853000Y-109250238D01*
X93804619Y-109395380D01*
X93804619Y-109492142D01*
X93853000Y-109637285D01*
X93901380Y-109685666D01*
X93804619Y-110024333D02*
X93804619Y-110701666D01*
X94820619Y-110266238D01*
X89232619Y-108185857D02*
X89232619Y-108282619D01*
X89281000Y-108379380D01*
X89329380Y-108427761D01*
X89426142Y-108476142D01*
X89619666Y-108524523D01*
X89861571Y-108524523D01*
X90055095Y-108476142D01*
X90151857Y-108427761D01*
X90200238Y-108379380D01*
X90248619Y-108282619D01*
X90248619Y-108185857D01*
X90200238Y-108089095D01*
X90151857Y-108040714D01*
X90055095Y-107992333D01*
X89861571Y-107943952D01*
X89619666Y-107943952D01*
X89426142Y-107992333D01*
X89329380Y-108040714D01*
X89281000Y-108089095D01*
X89232619Y-108185857D01*
X90151857Y-108959952D02*
X90200238Y-109008333D01*
X90248619Y-108959952D01*
X90200238Y-108911571D01*
X90151857Y-108959952D01*
X90248619Y-108959952D01*
X90248619Y-109975952D02*
X90248619Y-109395380D01*
X90248619Y-109685666D02*
X89232619Y-109685666D01*
X89377761Y-109588904D01*
X89474523Y-109492142D01*
X89522904Y-109395380D01*
X89571285Y-110846809D02*
X90248619Y-110846809D01*
X89571285Y-110411380D02*
X90103476Y-110411380D01*
X90200238Y-110459761D01*
X90248619Y-110556523D01*
X90248619Y-110701666D01*
X90200238Y-110798428D01*
X90151857Y-110846809D01*
X89716428Y-111669285D02*
X89716428Y-111330619D01*
X90248619Y-111330619D02*
X89232619Y-111330619D01*
X89232619Y-111814428D01*
X84563857Y-109685666D02*
X84612238Y-109637285D01*
X84660619Y-109492142D01*
X84660619Y-109395380D01*
X84612238Y-109250238D01*
X84515476Y-109153476D01*
X84418714Y-109105095D01*
X84225190Y-109056714D01*
X84080047Y-109056714D01*
X83886523Y-109105095D01*
X83789761Y-109153476D01*
X83693000Y-109250238D01*
X83644619Y-109395380D01*
X83644619Y-109492142D01*
X83693000Y-109637285D01*
X83741380Y-109685666D01*
X84080047Y-110266238D02*
X84031666Y-110169476D01*
X83983285Y-110121095D01*
X83886523Y-110072714D01*
X83838142Y-110072714D01*
X83741380Y-110121095D01*
X83693000Y-110169476D01*
X83644619Y-110266238D01*
X83644619Y-110459761D01*
X83693000Y-110556523D01*
X83741380Y-110604904D01*
X83838142Y-110653285D01*
X83886523Y-110653285D01*
X83983285Y-110604904D01*
X84031666Y-110556523D01*
X84080047Y-110459761D01*
X84080047Y-110266238D01*
X84128428Y-110169476D01*
X84176809Y-110121095D01*
X84273571Y-110072714D01*
X84467095Y-110072714D01*
X84563857Y-110121095D01*
X84612238Y-110169476D01*
X84660619Y-110266238D01*
X84660619Y-110459761D01*
X84612238Y-110556523D01*
X84563857Y-110604904D01*
X84467095Y-110653285D01*
X84273571Y-110653285D01*
X84176809Y-110604904D01*
X84128428Y-110556523D01*
X84080047Y-110459761D01*
X79072619Y-108185857D02*
X79072619Y-108282619D01*
X79121000Y-108379380D01*
X79169380Y-108427761D01*
X79266142Y-108476142D01*
X79459666Y-108524523D01*
X79701571Y-108524523D01*
X79895095Y-108476142D01*
X79991857Y-108427761D01*
X80040238Y-108379380D01*
X80088619Y-108282619D01*
X80088619Y-108185857D01*
X80040238Y-108089095D01*
X79991857Y-108040714D01*
X79895095Y-107992333D01*
X79701571Y-107943952D01*
X79459666Y-107943952D01*
X79266142Y-107992333D01*
X79169380Y-108040714D01*
X79121000Y-108089095D01*
X79072619Y-108185857D01*
X79991857Y-108959952D02*
X80040238Y-109008333D01*
X80088619Y-108959952D01*
X80040238Y-108911571D01*
X79991857Y-108959952D01*
X80088619Y-108959952D01*
X80088619Y-109975952D02*
X80088619Y-109395380D01*
X80088619Y-109685666D02*
X79072619Y-109685666D01*
X79217761Y-109588904D01*
X79314523Y-109492142D01*
X79362904Y-109395380D01*
X79411285Y-110846809D02*
X80088619Y-110846809D01*
X79411285Y-110411380D02*
X79943476Y-110411380D01*
X80040238Y-110459761D01*
X80088619Y-110556523D01*
X80088619Y-110701666D01*
X80040238Y-110798428D01*
X79991857Y-110846809D01*
X79556428Y-111669285D02*
X79556428Y-111330619D01*
X80088619Y-111330619D02*
X79072619Y-111330619D01*
X79072619Y-111814428D01*
D12*
X115418809Y-110737952D02*
X115830047Y-110737952D01*
X115878428Y-110762142D01*
X115902619Y-110786333D01*
X115926809Y-110834714D01*
X115926809Y-110931476D01*
X115902619Y-110979857D01*
X115878428Y-111004047D01*
X115830047Y-111028238D01*
X115418809Y-111028238D01*
X115926809Y-111536238D02*
X115926809Y-111245952D01*
X115926809Y-111391095D02*
X115418809Y-111391095D01*
X115491380Y-111342714D01*
X115539761Y-111294333D01*
X115563952Y-111245952D01*
X119482809Y-108258428D02*
X118974809Y-108258428D01*
X119337666Y-108427761D01*
X118974809Y-108597095D01*
X119482809Y-108597095D01*
X119337666Y-108814809D02*
X119337666Y-109056714D01*
X119482809Y-108766428D02*
X118974809Y-108935761D01*
X119482809Y-109105095D01*
X118974809Y-109226047D02*
X119482809Y-109564714D01*
X118974809Y-109564714D02*
X119482809Y-109226047D01*
X118974809Y-109975952D02*
X118974809Y-109879190D01*
X118999000Y-109830809D01*
X119023190Y-109806619D01*
X119095761Y-109758238D01*
X119192523Y-109734047D01*
X119386047Y-109734047D01*
X119434428Y-109758238D01*
X119458619Y-109782428D01*
X119482809Y-109830809D01*
X119482809Y-109927571D01*
X119458619Y-109975952D01*
X119434428Y-110000142D01*
X119386047Y-110024333D01*
X119265095Y-110024333D01*
X119216714Y-110000142D01*
X119192523Y-109975952D01*
X119168333Y-109927571D01*
X119168333Y-109830809D01*
X119192523Y-109782428D01*
X119216714Y-109758238D01*
X119265095Y-109734047D01*
X119192523Y-110314619D02*
X119168333Y-110266238D01*
X119144142Y-110242047D01*
X119095761Y-110217857D01*
X119071571Y-110217857D01*
X119023190Y-110242047D01*
X118999000Y-110266238D01*
X118974809Y-110314619D01*
X118974809Y-110411380D01*
X118999000Y-110459761D01*
X119023190Y-110483952D01*
X119071571Y-110508142D01*
X119095761Y-110508142D01*
X119144142Y-110483952D01*
X119168333Y-110459761D01*
X119192523Y-110411380D01*
X119192523Y-110314619D01*
X119216714Y-110266238D01*
X119240904Y-110242047D01*
X119289285Y-110217857D01*
X119386047Y-110217857D01*
X119434428Y-110242047D01*
X119458619Y-110266238D01*
X119482809Y-110314619D01*
X119482809Y-110411380D01*
X119458619Y-110459761D01*
X119434428Y-110483952D01*
X119386047Y-110508142D01*
X119289285Y-110508142D01*
X119240904Y-110483952D01*
X119216714Y-110459761D01*
X119192523Y-110411380D01*
X119482809Y-110991952D02*
X119482809Y-110701666D01*
X119482809Y-110846809D02*
X118974809Y-110846809D01*
X119047380Y-110798428D01*
X119095761Y-110750047D01*
X119119952Y-110701666D01*
X118974809Y-111161285D02*
X118974809Y-111499952D01*
X119482809Y-111282238D01*
X105258809Y-110737952D02*
X105670047Y-110737952D01*
X105718428Y-110762142D01*
X105742619Y-110786333D01*
X105766809Y-110834714D01*
X105766809Y-110931476D01*
X105742619Y-110979857D01*
X105718428Y-111004047D01*
X105670047Y-111028238D01*
X105258809Y-111028238D01*
X105307190Y-111245952D02*
X105283000Y-111270142D01*
X105258809Y-111318523D01*
X105258809Y-111439476D01*
X105283000Y-111487857D01*
X105307190Y-111512047D01*
X105355571Y-111536238D01*
X105403952Y-111536238D01*
X105476523Y-111512047D01*
X105766809Y-111221761D01*
X105766809Y-111536238D01*
X109322809Y-108258428D02*
X108814809Y-108258428D01*
X109177666Y-108427761D01*
X108814809Y-108597095D01*
X109322809Y-108597095D01*
X109177666Y-108814809D02*
X109177666Y-109056714D01*
X109322809Y-108766428D02*
X108814809Y-108935761D01*
X109322809Y-109105095D01*
X108814809Y-109226047D02*
X109322809Y-109564714D01*
X108814809Y-109564714D02*
X109322809Y-109226047D01*
X108814809Y-109975952D02*
X108814809Y-109879190D01*
X108839000Y-109830809D01*
X108863190Y-109806619D01*
X108935761Y-109758238D01*
X109032523Y-109734047D01*
X109226047Y-109734047D01*
X109274428Y-109758238D01*
X109298619Y-109782428D01*
X109322809Y-109830809D01*
X109322809Y-109927571D01*
X109298619Y-109975952D01*
X109274428Y-110000142D01*
X109226047Y-110024333D01*
X109105095Y-110024333D01*
X109056714Y-110000142D01*
X109032523Y-109975952D01*
X109008333Y-109927571D01*
X109008333Y-109830809D01*
X109032523Y-109782428D01*
X109056714Y-109758238D01*
X109105095Y-109734047D01*
X109032523Y-110314619D02*
X109008333Y-110266238D01*
X108984142Y-110242047D01*
X108935761Y-110217857D01*
X108911571Y-110217857D01*
X108863190Y-110242047D01*
X108839000Y-110266238D01*
X108814809Y-110314619D01*
X108814809Y-110411380D01*
X108839000Y-110459761D01*
X108863190Y-110483952D01*
X108911571Y-110508142D01*
X108935761Y-110508142D01*
X108984142Y-110483952D01*
X109008333Y-110459761D01*
X109032523Y-110411380D01*
X109032523Y-110314619D01*
X109056714Y-110266238D01*
X109080904Y-110242047D01*
X109129285Y-110217857D01*
X109226047Y-110217857D01*
X109274428Y-110242047D01*
X109298619Y-110266238D01*
X109322809Y-110314619D01*
X109322809Y-110411380D01*
X109298619Y-110459761D01*
X109274428Y-110483952D01*
X109226047Y-110508142D01*
X109129285Y-110508142D01*
X109080904Y-110483952D01*
X109056714Y-110459761D01*
X109032523Y-110411380D01*
X109322809Y-110991952D02*
X109322809Y-110701666D01*
X109322809Y-110846809D02*
X108814809Y-110846809D01*
X108887380Y-110798428D01*
X108935761Y-110750047D01*
X108959952Y-110701666D01*
X108814809Y-111161285D02*
X108814809Y-111499952D01*
X109322809Y-111282238D01*
X95098809Y-110737952D02*
X95510047Y-110737952D01*
X95558428Y-110762142D01*
X95582619Y-110786333D01*
X95606809Y-110834714D01*
X95606809Y-110931476D01*
X95582619Y-110979857D01*
X95558428Y-111004047D01*
X95510047Y-111028238D01*
X95098809Y-111028238D01*
X95098809Y-111221761D02*
X95098809Y-111536238D01*
X95292333Y-111366904D01*
X95292333Y-111439476D01*
X95316523Y-111487857D01*
X95340714Y-111512047D01*
X95389095Y-111536238D01*
X95510047Y-111536238D01*
X95558428Y-111512047D01*
X95582619Y-111487857D01*
X95606809Y-111439476D01*
X95606809Y-111294333D01*
X95582619Y-111245952D01*
X95558428Y-111221761D01*
X99162809Y-108258428D02*
X98654809Y-108258428D01*
X99017666Y-108427761D01*
X98654809Y-108597095D01*
X99162809Y-108597095D01*
X99017666Y-108814809D02*
X99017666Y-109056714D01*
X99162809Y-108766428D02*
X98654809Y-108935761D01*
X99162809Y-109105095D01*
X98654809Y-109226047D02*
X99162809Y-109564714D01*
X98654809Y-109564714D02*
X99162809Y-109226047D01*
X98654809Y-109975952D02*
X98654809Y-109879190D01*
X98679000Y-109830809D01*
X98703190Y-109806619D01*
X98775761Y-109758238D01*
X98872523Y-109734047D01*
X99066047Y-109734047D01*
X99114428Y-109758238D01*
X99138619Y-109782428D01*
X99162809Y-109830809D01*
X99162809Y-109927571D01*
X99138619Y-109975952D01*
X99114428Y-110000142D01*
X99066047Y-110024333D01*
X98945095Y-110024333D01*
X98896714Y-110000142D01*
X98872523Y-109975952D01*
X98848333Y-109927571D01*
X98848333Y-109830809D01*
X98872523Y-109782428D01*
X98896714Y-109758238D01*
X98945095Y-109734047D01*
X98872523Y-110314619D02*
X98848333Y-110266238D01*
X98824142Y-110242047D01*
X98775761Y-110217857D01*
X98751571Y-110217857D01*
X98703190Y-110242047D01*
X98679000Y-110266238D01*
X98654809Y-110314619D01*
X98654809Y-110411380D01*
X98679000Y-110459761D01*
X98703190Y-110483952D01*
X98751571Y-110508142D01*
X98775761Y-110508142D01*
X98824142Y-110483952D01*
X98848333Y-110459761D01*
X98872523Y-110411380D01*
X98872523Y-110314619D01*
X98896714Y-110266238D01*
X98920904Y-110242047D01*
X98969285Y-110217857D01*
X99066047Y-110217857D01*
X99114428Y-110242047D01*
X99138619Y-110266238D01*
X99162809Y-110314619D01*
X99162809Y-110411380D01*
X99138619Y-110459761D01*
X99114428Y-110483952D01*
X99066047Y-110508142D01*
X98969285Y-110508142D01*
X98920904Y-110483952D01*
X98896714Y-110459761D01*
X98872523Y-110411380D01*
X99162809Y-110991952D02*
X99162809Y-110701666D01*
X99162809Y-110846809D02*
X98654809Y-110846809D01*
X98727380Y-110798428D01*
X98775761Y-110750047D01*
X98799952Y-110701666D01*
X98654809Y-111161285D02*
X98654809Y-111499952D01*
X99162809Y-111282238D01*
X84938809Y-110737952D02*
X85350047Y-110737952D01*
X85398428Y-110762142D01*
X85422619Y-110786333D01*
X85446809Y-110834714D01*
X85446809Y-110931476D01*
X85422619Y-110979857D01*
X85398428Y-111004047D01*
X85350047Y-111028238D01*
X84938809Y-111028238D01*
X85108142Y-111487857D02*
X85446809Y-111487857D01*
X84914619Y-111366904D02*
X85277476Y-111245952D01*
X85277476Y-111560428D01*
X89002809Y-108258428D02*
X88494809Y-108258428D01*
X88857666Y-108427761D01*
X88494809Y-108597095D01*
X89002809Y-108597095D01*
X88857666Y-108814809D02*
X88857666Y-109056714D01*
X89002809Y-108766428D02*
X88494809Y-108935761D01*
X89002809Y-109105095D01*
X88494809Y-109226047D02*
X89002809Y-109564714D01*
X88494809Y-109564714D02*
X89002809Y-109226047D01*
X88494809Y-109975952D02*
X88494809Y-109879190D01*
X88519000Y-109830809D01*
X88543190Y-109806619D01*
X88615761Y-109758238D01*
X88712523Y-109734047D01*
X88906047Y-109734047D01*
X88954428Y-109758238D01*
X88978619Y-109782428D01*
X89002809Y-109830809D01*
X89002809Y-109927571D01*
X88978619Y-109975952D01*
X88954428Y-110000142D01*
X88906047Y-110024333D01*
X88785095Y-110024333D01*
X88736714Y-110000142D01*
X88712523Y-109975952D01*
X88688333Y-109927571D01*
X88688333Y-109830809D01*
X88712523Y-109782428D01*
X88736714Y-109758238D01*
X88785095Y-109734047D01*
X88712523Y-110314619D02*
X88688333Y-110266238D01*
X88664142Y-110242047D01*
X88615761Y-110217857D01*
X88591571Y-110217857D01*
X88543190Y-110242047D01*
X88519000Y-110266238D01*
X88494809Y-110314619D01*
X88494809Y-110411380D01*
X88519000Y-110459761D01*
X88543190Y-110483952D01*
X88591571Y-110508142D01*
X88615761Y-110508142D01*
X88664142Y-110483952D01*
X88688333Y-110459761D01*
X88712523Y-110411380D01*
X88712523Y-110314619D01*
X88736714Y-110266238D01*
X88760904Y-110242047D01*
X88809285Y-110217857D01*
X88906047Y-110217857D01*
X88954428Y-110242047D01*
X88978619Y-110266238D01*
X89002809Y-110314619D01*
X89002809Y-110411380D01*
X88978619Y-110459761D01*
X88954428Y-110483952D01*
X88906047Y-110508142D01*
X88809285Y-110508142D01*
X88760904Y-110483952D01*
X88736714Y-110459761D01*
X88712523Y-110411380D01*
X89002809Y-110991952D02*
X89002809Y-110701666D01*
X89002809Y-110846809D02*
X88494809Y-110846809D01*
X88567380Y-110798428D01*
X88615761Y-110750047D01*
X88639952Y-110701666D01*
X88494809Y-111161285D02*
X88494809Y-111499952D01*
X89002809Y-111282238D01*
%LPC*%
D15*
X81661000Y-95885000D03*
X84709000Y-95885000D03*
D16*
X79965000Y-103505000D03*
X86405000Y-103505000D03*
D15*
X105791000Y-78105000D03*
X108839000Y-78105000D03*
D17*
X125730000Y-99441000D03*
X125730000Y-102489000D03*
X112395000Y-111379000D03*
X112395000Y-108331000D03*
X102235000Y-111379000D03*
X102235000Y-108331000D03*
X92075000Y-111379000D03*
X92075000Y-108331000D03*
X81915000Y-111379000D03*
X81915000Y-108331000D03*
D18*
X120650000Y-107315000D03*
D19*
X120650000Y-104775000D03*
X120650000Y-102235000D03*
X120650000Y-99695000D03*
X120650000Y-97155000D03*
X120650000Y-94615000D03*
D20*
X132080000Y-81280000D03*
X132080000Y-74930000D03*
X132080000Y-87630000D03*
X125730000Y-81280000D03*
X138430000Y-81280000D03*
D21*
X78740000Y-81915000D03*
X81280000Y-81915000D03*
D22*
X76200000Y-81915000D03*
D21*
X83820000Y-81915000D03*
X86360000Y-81915000D03*
X88900000Y-81915000D03*
X91440000Y-81915000D03*
X93980000Y-81915000D03*
X96520000Y-81915000D03*
X99060000Y-81915000D03*
X101600000Y-81915000D03*
X104140000Y-81915000D03*
X106680000Y-81915000D03*
X109220000Y-81915000D03*
X111760000Y-81915000D03*
X114300000Y-81915000D03*
X114300000Y-117475000D03*
X111760000Y-117475000D03*
X109220000Y-117475000D03*
X106680000Y-117475000D03*
X104140000Y-117475000D03*
X101600000Y-117475000D03*
X99060000Y-117475000D03*
X96520000Y-117475000D03*
X93980000Y-117475000D03*
X91440000Y-117475000D03*
X88900000Y-117475000D03*
X86360000Y-117475000D03*
X83820000Y-117475000D03*
X81280000Y-117475000D03*
X78740000Y-117475000D03*
X76200000Y-117475000D03*
D23*
X77470000Y-86995000D03*
X77470000Y-112395000D03*
X118110000Y-117475000D03*
X118110000Y-81915000D03*
D21*
X125730000Y-111760000D03*
D22*
X123190000Y-111760000D03*
D24*
X116525040Y-108656120D03*
X117475000Y-108656120D03*
X118424960Y-108656120D03*
X118424960Y-111053880D03*
X117475000Y-111053880D03*
X116525040Y-111053880D03*
X106365040Y-108656120D03*
X107315000Y-108656120D03*
X108264960Y-108656120D03*
X108264960Y-111053880D03*
X107315000Y-111053880D03*
X106365040Y-111053880D03*
X96205040Y-108656120D03*
X97155000Y-108656120D03*
X98104960Y-108656120D03*
X98104960Y-111053880D03*
X97155000Y-111053880D03*
X96205040Y-111053880D03*
X86045040Y-108656120D03*
X86995000Y-108656120D03*
X87944960Y-108656120D03*
X87944960Y-111053880D03*
X86995000Y-111053880D03*
X86045040Y-111053880D03*
D25*
X76335000Y-73395000D03*
X115435000Y-73395000D03*
X115435000Y-125995000D03*
X76335000Y-125995000D03*
D22*
X83185000Y-73695000D03*
D21*
X85725000Y-73695000D03*
X88265000Y-73695000D03*
X90805000Y-73695000D03*
X93345000Y-73695000D03*
X95885000Y-73695000D03*
X98425000Y-73695000D03*
X100965000Y-73695000D03*
X103505000Y-73695000D03*
X106045000Y-73695000D03*
X108585000Y-73695000D03*
M02*
