M48
;DRILL file {KiCad 4.1.0-alpha+201608211231+7083~46~ubuntu16.04.1-product} date Fri Aug 26 15:46:55 2016
;FORMAT={-:-/ absolute / inch / decimal}
FMAT,2
INCH,TZ
T1C0.025
T2C0.043
T3C0.050
T4C0.118
T5C0.130
%
G90
G05
M72
T1
X3.4489Y-4.4561
X3.825Y-4.4273
X4.1222Y-4.3876
X4.4958Y-4.3163
X4.625Y-4.4284
X4.9493Y-4.5275
X5.0564Y-4.678
T2
X3.Y-3.225
X3.Y-4.625
X3.1Y-3.225
X3.1Y-4.625
X3.2Y-3.225
X3.2Y-4.625
X3.275Y-2.9014
X3.3Y-3.225
X3.3Y-4.625
X3.375Y-2.9014
X3.4Y-3.225
X3.4Y-4.625
X3.475Y-2.9014
X3.5Y-3.225
X3.5Y-4.625
X3.575Y-2.9014
X3.6Y-3.225
X3.6Y-4.625
X3.675Y-2.9014
X3.7Y-3.225
X3.7Y-4.625
X3.775Y-2.9014
X3.8Y-3.225
X3.8Y-4.625
X3.875Y-2.9014
X3.9Y-3.225
X3.9Y-4.625
X3.975Y-2.9014
X4.Y-3.225
X4.Y-4.625
X4.075Y-2.9014
X4.1Y-3.225
X4.1Y-4.625
X4.175Y-2.9014
X4.2Y-3.225
X4.2Y-4.625
X4.275Y-2.9014
X4.3Y-3.225
X4.3Y-4.625
X4.4Y-3.225
X4.4Y-4.625
X4.5Y-3.225
X4.5Y-4.625
X4.75Y-3.725
X4.75Y-3.825
X4.75Y-3.925
X4.75Y-4.025
X4.75Y-4.125
X4.75Y-4.225
X4.85Y-4.4
X4.95Y-4.4
T3
X4.95Y-3.2
X5.2Y-2.95
X5.2Y-3.2
X5.2Y-3.45
X5.45Y-3.2
T4
X3.0053Y-2.8896
X3.0053Y-4.9604
X4.5447Y-2.8896
X4.5447Y-4.9604
T5
X3.05Y-3.425
X3.05Y-4.425
X4.65Y-3.225
X4.65Y-4.625
T0
M30
