G04 #@! TF.FileFunction,Soldermask,Bot*
%FSLAX46Y46*%
G04 Gerber Fmt 4.6, Leading zero omitted, Abs format (unit mm)*
G04 Created by KiCad (PCBNEW 4.1.0-alpha+201608211231+7083~46~ubuntu16.04.1-product) date Fri Aug 26 15:46:51 2016*
%MOMM*%
%LPD*%
G01*
G04 APERTURE LIST*
%ADD10C,0.100000*%
%ADD11C,0.228600*%
%ADD12R,1.670000X2.940000*%
%ADD13R,3.170000X2.950000*%
%ADD14R,2.940000X1.670000*%
%ADD15R,2.940000X2.254200*%
%ADD16O,2.940000X2.254200*%
%ADD17C,2.940000*%
%ADD18O,2.254200X2.940000*%
%ADD19R,2.254200X2.940000*%
%ADD20C,3.956000*%
%ADD21R,0.762000X1.534160*%
%ADD22C,3.900000*%
G04 APERTURE END LIST*
D10*
D11*
X143510000Y-70485000D02*
X73660000Y-70485000D01*
X143510000Y-128905000D02*
X143510000Y-70485000D01*
X73660000Y-128905000D02*
X143510000Y-128905000D01*
X73660000Y-70485000D02*
X73660000Y-128905000D01*
D12*
X81661000Y-95885000D03*
X84709000Y-95885000D03*
D13*
X79965000Y-103505000D03*
X86405000Y-103505000D03*
D12*
X105791000Y-78105000D03*
X108839000Y-78105000D03*
D14*
X125730000Y-99441000D03*
X125730000Y-102489000D03*
X112395000Y-111379000D03*
X112395000Y-108331000D03*
X102235000Y-111379000D03*
X102235000Y-108331000D03*
X92075000Y-111379000D03*
X92075000Y-108331000D03*
X81915000Y-111379000D03*
X81915000Y-108331000D03*
D15*
X120650000Y-107315000D03*
D16*
X120650000Y-104775000D03*
X120650000Y-102235000D03*
X120650000Y-99695000D03*
X120650000Y-97155000D03*
X120650000Y-94615000D03*
D17*
X132080000Y-81280000D03*
X132080000Y-74930000D03*
X132080000Y-87630000D03*
X125730000Y-81280000D03*
X138430000Y-81280000D03*
D18*
X78740000Y-81915000D03*
X81280000Y-81915000D03*
D19*
X76200000Y-81915000D03*
D18*
X83820000Y-81915000D03*
X86360000Y-81915000D03*
X88900000Y-81915000D03*
X91440000Y-81915000D03*
X93980000Y-81915000D03*
X96520000Y-81915000D03*
X99060000Y-81915000D03*
X101600000Y-81915000D03*
X104140000Y-81915000D03*
X106680000Y-81915000D03*
X109220000Y-81915000D03*
X111760000Y-81915000D03*
X114300000Y-81915000D03*
X114300000Y-117475000D03*
X111760000Y-117475000D03*
X109220000Y-117475000D03*
X106680000Y-117475000D03*
X104140000Y-117475000D03*
X101600000Y-117475000D03*
X99060000Y-117475000D03*
X96520000Y-117475000D03*
X93980000Y-117475000D03*
X91440000Y-117475000D03*
X88900000Y-117475000D03*
X86360000Y-117475000D03*
X83820000Y-117475000D03*
X81280000Y-117475000D03*
X78740000Y-117475000D03*
X76200000Y-117475000D03*
D20*
X77470000Y-86995000D03*
X77470000Y-112395000D03*
X118110000Y-117475000D03*
X118110000Y-81915000D03*
D18*
X125730000Y-111760000D03*
D19*
X123190000Y-111760000D03*
D21*
X116525040Y-108656120D03*
X117475000Y-108656120D03*
X118424960Y-108656120D03*
X118424960Y-111053880D03*
X117475000Y-111053880D03*
X116525040Y-111053880D03*
X106365040Y-108656120D03*
X107315000Y-108656120D03*
X108264960Y-108656120D03*
X108264960Y-111053880D03*
X107315000Y-111053880D03*
X106365040Y-111053880D03*
X96205040Y-108656120D03*
X97155000Y-108656120D03*
X98104960Y-108656120D03*
X98104960Y-111053880D03*
X97155000Y-111053880D03*
X96205040Y-111053880D03*
X86045040Y-108656120D03*
X86995000Y-108656120D03*
X87944960Y-108656120D03*
X87944960Y-111053880D03*
X86995000Y-111053880D03*
X86045040Y-111053880D03*
D22*
X76335000Y-73395000D03*
X115435000Y-73395000D03*
X115435000Y-125995000D03*
X76335000Y-125995000D03*
D19*
X83185000Y-73695000D03*
D18*
X85725000Y-73695000D03*
X88265000Y-73695000D03*
X90805000Y-73695000D03*
X93345000Y-73695000D03*
X95885000Y-73695000D03*
X98425000Y-73695000D03*
X100965000Y-73695000D03*
X103505000Y-73695000D03*
X106045000Y-73695000D03*
X108585000Y-73695000D03*
M02*
