G04 #@! TF.FileFunction,Copper,L2,Bot,Signal*
%FSLAX46Y46*%
G04 Gerber Fmt 4.6, Leading zero omitted, Abs format (unit mm)*
G04 Created by KiCad (PCBNEW 4.1.0-alpha+201608211231+7083~46~ubuntu16.04.1-product) date Fri Aug 26 15:46:51 2016*
%MOMM*%
%LPD*%
G01*
G04 APERTURE LIST*
%ADD10C,0.100000*%
%ADD11C,0.228600*%
%ADD12R,1.270000X2.540000*%
%ADD13R,2.770000X2.550000*%
%ADD14R,2.540000X1.270000*%
%ADD15R,2.540000X1.854200*%
%ADD16O,2.540000X1.854200*%
%ADD17C,2.540000*%
%ADD18O,1.854200X2.540000*%
%ADD19R,1.854200X2.540000*%
%ADD20C,3.556000*%
%ADD21R,0.558800X1.330960*%
%ADD22C,3.500000*%
%ADD23C,0.889000*%
%ADD24C,0.406400*%
%ADD25C,1.016000*%
%ADD26C,0.558600*%
%ADD27C,0.203200*%
G04 APERTURE END LIST*
D10*
D11*
X143510000Y-70485000D02*
X73660000Y-70485000D01*
X143510000Y-128905000D02*
X143510000Y-70485000D01*
X73660000Y-128905000D02*
X143510000Y-128905000D01*
X73660000Y-70485000D02*
X73660000Y-128905000D01*
D12*
X81661000Y-95885000D03*
X84709000Y-95885000D03*
D13*
X79965000Y-103505000D03*
X86405000Y-103505000D03*
D12*
X105791000Y-78105000D03*
X108839000Y-78105000D03*
D14*
X125730000Y-99441000D03*
X125730000Y-102489000D03*
X112395000Y-111379000D03*
X112395000Y-108331000D03*
X102235000Y-111379000D03*
X102235000Y-108331000D03*
X92075000Y-111379000D03*
X92075000Y-108331000D03*
X81915000Y-111379000D03*
X81915000Y-108331000D03*
D15*
X120650000Y-107315000D03*
D16*
X120650000Y-104775000D03*
X120650000Y-102235000D03*
X120650000Y-99695000D03*
X120650000Y-97155000D03*
X120650000Y-94615000D03*
D17*
X132080000Y-81280000D03*
X132080000Y-74930000D03*
X132080000Y-87630000D03*
X125730000Y-81280000D03*
X138430000Y-81280000D03*
D18*
X78740000Y-81915000D03*
X81280000Y-81915000D03*
D19*
X76200000Y-81915000D03*
D18*
X83820000Y-81915000D03*
X86360000Y-81915000D03*
X88900000Y-81915000D03*
X91440000Y-81915000D03*
X93980000Y-81915000D03*
X96520000Y-81915000D03*
X99060000Y-81915000D03*
X101600000Y-81915000D03*
X104140000Y-81915000D03*
X106680000Y-81915000D03*
X109220000Y-81915000D03*
X111760000Y-81915000D03*
X114300000Y-81915000D03*
X114300000Y-117475000D03*
X111760000Y-117475000D03*
X109220000Y-117475000D03*
X106680000Y-117475000D03*
X104140000Y-117475000D03*
X101600000Y-117475000D03*
X99060000Y-117475000D03*
X96520000Y-117475000D03*
X93980000Y-117475000D03*
X91440000Y-117475000D03*
X88900000Y-117475000D03*
X86360000Y-117475000D03*
X83820000Y-117475000D03*
X81280000Y-117475000D03*
X78740000Y-117475000D03*
X76200000Y-117475000D03*
D20*
X77470000Y-86995000D03*
X77470000Y-112395000D03*
X118110000Y-117475000D03*
X118110000Y-81915000D03*
D18*
X125730000Y-111760000D03*
D19*
X123190000Y-111760000D03*
D21*
X116525040Y-108656120D03*
X117475000Y-108656120D03*
X118424960Y-108656120D03*
X118424960Y-111053880D03*
X117475000Y-111053880D03*
X116525040Y-111053880D03*
X106365040Y-108656120D03*
X107315000Y-108656120D03*
X108264960Y-108656120D03*
X108264960Y-111053880D03*
X107315000Y-111053880D03*
X106365040Y-111053880D03*
X96205040Y-108656120D03*
X97155000Y-108656120D03*
X98104960Y-108656120D03*
X98104960Y-111053880D03*
X97155000Y-111053880D03*
X96205040Y-111053880D03*
X86045040Y-108656120D03*
X86995000Y-108656120D03*
X87944960Y-108656120D03*
X87944960Y-111053880D03*
X86995000Y-111053880D03*
X86045040Y-111053880D03*
D22*
X76335000Y-73395000D03*
X115435000Y-73395000D03*
X115435000Y-125995000D03*
X76335000Y-125995000D03*
D19*
X83185000Y-73695000D03*
D18*
X85725000Y-73695000D03*
X88265000Y-73695000D03*
X90805000Y-73695000D03*
X93345000Y-73695000D03*
X95885000Y-73695000D03*
X98425000Y-73695000D03*
X100965000Y-73695000D03*
X103505000Y-73695000D03*
X106045000Y-73695000D03*
X108585000Y-73695000D03*
D23*
X114192200Y-109633400D03*
X104703900Y-111444400D03*
X117475000Y-112481900D03*
X87601700Y-113185300D03*
X97155000Y-112452600D03*
X128431800Y-118821200D03*
X125712100Y-114997400D03*
D24*
X86405000Y-103505000D02*
X86405000Y-104307600D01*
X81915000Y-108331000D02*
X83515200Y-108331000D01*
X84709000Y-95885000D02*
X84340800Y-95885000D01*
X120650000Y-107315000D02*
X122250200Y-107315000D01*
X125730000Y-111760000D02*
X125730000Y-110159800D01*
X86405000Y-97949200D02*
X84340800Y-95885000D01*
X86405000Y-103505000D02*
X86405000Y-97949200D01*
X79997300Y-91541500D02*
X79997300Y-81915000D01*
X84340800Y-95885000D02*
X79997300Y-91541500D01*
X78740000Y-81915000D02*
X79997300Y-81915000D01*
X102235000Y-108331000D02*
X103835200Y-108331000D01*
X97155000Y-108656100D02*
X97155000Y-109594000D01*
X102235000Y-108331000D02*
X102235000Y-109296200D01*
X108839000Y-75549200D02*
X108839000Y-78105000D01*
X108585000Y-75295200D02*
X108839000Y-75549200D01*
X108585000Y-73695000D02*
X108585000Y-75295200D01*
X105192100Y-109687900D02*
X103835200Y-108331000D01*
X106781000Y-109687900D02*
X105192100Y-109687900D01*
X107315000Y-109153900D02*
X106781000Y-109687900D01*
X89804200Y-107660400D02*
X86995000Y-107660400D01*
X90474800Y-108331000D02*
X89804200Y-107660400D01*
X92075000Y-108331000D02*
X90474800Y-108331000D01*
X86995000Y-108656100D02*
X86995000Y-107800000D01*
X86995000Y-107800000D02*
X86995000Y-107685400D01*
X86995000Y-107685400D02*
X86995000Y-107660400D01*
X84750800Y-107095400D02*
X83515200Y-108331000D01*
X86405000Y-107095400D02*
X84750800Y-107095400D01*
X86995000Y-107685400D02*
X86405000Y-107095400D01*
X86405000Y-107095400D02*
X86405000Y-104307600D01*
X97155000Y-109632800D02*
X97155000Y-109594000D01*
X101898400Y-109632800D02*
X97155000Y-109632800D01*
X102235000Y-109296200D02*
X101898400Y-109632800D01*
X92075000Y-108331000D02*
X93675200Y-108331000D01*
X107315000Y-108905000D02*
X107315000Y-109153900D01*
X107315000Y-108656100D02*
X107315000Y-108905000D01*
X110411800Y-109855000D02*
X110641400Y-110084600D01*
X108016100Y-109855000D02*
X110411800Y-109855000D01*
X107315000Y-109153900D02*
X108016100Y-109855000D01*
X110641400Y-112178100D02*
X110641400Y-110084600D01*
X110934900Y-112471600D02*
X110641400Y-112178100D01*
X113868300Y-112471600D02*
X110934900Y-112471600D01*
X114416100Y-111923800D02*
X113868300Y-112471600D01*
X114416100Y-111735400D02*
X114416100Y-111923800D01*
X116499700Y-109651800D02*
X114416100Y-111735400D01*
X117475000Y-109651800D02*
X116499700Y-109651800D01*
X110641400Y-110084600D02*
X112395000Y-108331000D01*
X94977000Y-109632800D02*
X93675200Y-108331000D01*
X97155000Y-109632800D02*
X94977000Y-109632800D01*
X125095000Y-110159800D02*
X125730000Y-110159800D01*
X122250200Y-107315000D02*
X125095000Y-110159800D01*
X120650000Y-107315000D02*
X120650000Y-106057700D01*
X117475000Y-109153900D02*
X117475000Y-109651800D01*
X117475000Y-109153900D02*
X117475000Y-108656100D01*
X118704400Y-107660400D02*
X119049800Y-107315000D01*
X117475000Y-107660400D02*
X118704400Y-107660400D01*
X117475000Y-108656100D02*
X117475000Y-107660400D01*
X120650000Y-107315000D02*
X119049800Y-107315000D01*
X126212600Y-101523800D02*
X125730000Y-101523800D01*
X127685400Y-100051000D02*
X126212600Y-101523800D01*
X127685400Y-85674600D02*
X127685400Y-100051000D01*
X132080000Y-81280000D02*
X127685400Y-85674600D01*
X125730000Y-102489000D02*
X125730000Y-101523800D01*
X120650000Y-104775000D02*
X120650000Y-106057700D01*
X125730000Y-102489000D02*
X125730000Y-103454200D01*
X124409200Y-104775000D02*
X125730000Y-103454200D01*
X120650000Y-104775000D02*
X124409200Y-104775000D01*
D25*
X105791000Y-78105000D02*
X105791000Y-76072700D01*
X112395000Y-111379000D02*
X112395000Y-109981700D01*
X120296900Y-94615000D02*
X118617700Y-94615000D01*
X120296900Y-94615000D02*
X120650000Y-94615000D01*
X122682300Y-94996000D02*
X125730000Y-98043700D01*
X122682300Y-94615000D02*
X122682300Y-94996000D01*
X120650000Y-94615000D02*
X122682300Y-94615000D01*
X125730000Y-99441000D02*
X125730000Y-98043700D01*
X106045000Y-75818700D02*
X106045000Y-73695000D01*
X105791000Y-76072700D02*
X106045000Y-75818700D01*
X79248600Y-115442700D02*
X78740000Y-115442700D01*
X81915000Y-112776300D02*
X79248600Y-115442700D01*
X78740000Y-117475000D02*
X78740000Y-115442700D01*
X92075000Y-111379000D02*
X90042700Y-111379000D01*
D26*
X107315000Y-112481900D02*
X107315000Y-111053900D01*
D25*
X115483200Y-108342400D02*
X114192200Y-109633400D01*
X115483200Y-97749500D02*
X115483200Y-108342400D01*
X118617700Y-94615000D02*
X115483200Y-97749500D01*
X113843900Y-109981700D02*
X112395000Y-109981700D01*
X114192200Y-109633400D02*
X113843900Y-109981700D01*
D26*
X86995000Y-112481900D02*
X86995000Y-111053900D01*
X117475000Y-112481900D02*
X117475000Y-111053900D01*
D25*
X81915000Y-111379000D02*
X81915000Y-111482900D01*
X81915000Y-111482900D02*
X81915000Y-112776300D01*
X79882600Y-105624700D02*
X79965000Y-105542300D01*
X79882600Y-109450500D02*
X79882600Y-105624700D01*
X81915000Y-111482900D02*
X79882600Y-109450500D01*
X79965000Y-103505000D02*
X79965000Y-104523600D01*
X79965000Y-104523600D02*
X79965000Y-105542300D01*
X81661000Y-102827600D02*
X81661000Y-95885000D01*
X79965000Y-104523600D02*
X81661000Y-102827600D01*
X87601700Y-113185300D02*
X87601700Y-112481900D01*
X86995000Y-112481900D02*
X87601700Y-112481900D01*
X88939800Y-112481900D02*
X90042700Y-111379000D01*
X87601700Y-112481900D02*
X88939800Y-112481900D01*
X102235000Y-111379000D02*
X104267300Y-111379000D01*
X105741400Y-112481900D02*
X104703900Y-111444400D01*
X107315000Y-112481900D02*
X105741400Y-112481900D01*
X104332700Y-111444400D02*
X104267300Y-111379000D01*
X104703900Y-111444400D02*
X104332700Y-111444400D01*
D26*
X97155000Y-112452600D02*
X97155000Y-111053900D01*
D24*
X87617300Y-76882700D02*
X87617300Y-81915000D01*
X89547700Y-74952300D02*
X87617300Y-76882700D01*
X89547700Y-73695000D02*
X89547700Y-74952300D01*
X86360000Y-81915000D02*
X87617300Y-81915000D01*
X90805000Y-73695000D02*
X89547700Y-73695000D01*
X119786100Y-103492300D02*
X120650000Y-103492300D01*
X116525000Y-106753400D02*
X119786100Y-103492300D01*
X116525000Y-108656100D02*
X116525000Y-106753400D01*
X120650000Y-102235000D02*
X120650000Y-103492300D01*
X128935400Y-74930000D02*
X132080000Y-74930000D01*
X96205000Y-107660400D02*
X128935400Y-74930000D01*
X96205000Y-108656100D02*
X96205000Y-107660400D01*
X134310500Y-87630000D02*
X132080000Y-87630000D01*
X140048700Y-81891800D02*
X134310500Y-87630000D01*
X140048700Y-80630300D02*
X140048700Y-81891800D01*
X138602300Y-79183900D02*
X140048700Y-80630300D01*
X125536200Y-79183900D02*
X138602300Y-79183900D01*
X98105000Y-106615100D02*
X125536200Y-79183900D01*
X98105000Y-108656100D02*
X98105000Y-106615100D01*
X106365000Y-100645000D02*
X125730000Y-81280000D01*
X106365000Y-108656100D02*
X106365000Y-100645000D01*
X136842300Y-79692300D02*
X138430000Y-81280000D01*
X131434200Y-79692300D02*
X136842300Y-79692300D01*
X108265000Y-102861500D02*
X131434200Y-79692300D01*
X108265000Y-108656100D02*
X108265000Y-102861500D01*
X102882700Y-80657700D02*
X102882700Y-81915000D01*
X97142300Y-74917300D02*
X102882700Y-80657700D01*
X97142300Y-73695000D02*
X97142300Y-74917300D01*
X95885000Y-73695000D02*
X97142300Y-73695000D01*
X104140000Y-81915000D02*
X102882700Y-81915000D01*
X107937300Y-116611100D02*
X107937300Y-117475000D01*
X109318700Y-115229700D02*
X107937300Y-116611100D01*
X113344900Y-115229700D02*
X109318700Y-115229700D01*
X116525000Y-112049600D02*
X113344900Y-115229700D01*
X116525000Y-111053900D02*
X116525000Y-112049600D01*
X106680000Y-117475000D02*
X107937300Y-117475000D01*
X110477300Y-116611100D02*
X110477300Y-117475000D01*
X111350300Y-115738100D02*
X110477300Y-116611100D01*
X115533900Y-115738100D02*
X111350300Y-115738100D01*
X118425000Y-112847000D02*
X115533900Y-115738100D01*
X118425000Y-111053900D02*
X118425000Y-112847000D01*
X109220000Y-117475000D02*
X110477300Y-117475000D01*
X100342700Y-110715700D02*
X100342700Y-117475000D01*
X100772000Y-110286400D02*
X100342700Y-110715700D01*
X105597500Y-110286400D02*
X100772000Y-110286400D01*
X106365000Y-111053900D02*
X105597500Y-110286400D01*
X101600000Y-117475000D02*
X100342700Y-117475000D01*
X108341700Y-112126300D02*
X108265000Y-112049600D01*
X108341700Y-113273300D02*
X108341700Y-112126300D01*
X105397300Y-116217700D02*
X108341700Y-113273300D01*
X105397300Y-117475000D02*
X105397300Y-116217700D01*
X104140000Y-117475000D02*
X105397300Y-117475000D01*
X108265000Y-111053900D02*
X108265000Y-112049600D01*
X96205000Y-111053900D02*
X96205000Y-112049600D01*
X96520000Y-117475000D02*
X96520000Y-115874800D01*
X96205000Y-115559800D02*
X96520000Y-115874800D01*
X96205000Y-112049600D02*
X96205000Y-115559800D01*
X99060000Y-117475000D02*
X99060000Y-115874800D01*
X99060000Y-113004600D02*
X98105000Y-112049600D01*
X99060000Y-115874800D02*
X99060000Y-113004600D01*
X98105000Y-111053900D02*
X98105000Y-112049600D01*
X91440000Y-117475000D02*
X90182700Y-117475000D01*
X86045000Y-111053900D02*
X86045000Y-112049600D01*
X90182700Y-116634700D02*
X90182700Y-117475000D01*
X88145100Y-114597100D02*
X90182700Y-116634700D01*
X87648100Y-114597100D02*
X88145100Y-114597100D01*
X85994300Y-112943300D02*
X87648100Y-114597100D01*
X85994300Y-112100300D02*
X85994300Y-112943300D01*
X86045000Y-112049600D02*
X85994300Y-112100300D01*
X93980000Y-110665900D02*
X93980000Y-117475000D01*
X93372300Y-110058200D02*
X93980000Y-110665900D01*
X87945000Y-110058200D02*
X93372300Y-110058200D01*
X87945000Y-111053900D02*
X87945000Y-110058200D01*
X119824500Y-109651800D02*
X121932700Y-111760000D01*
X118425000Y-109651800D02*
X119824500Y-109651800D01*
X118425000Y-108656100D02*
X118425000Y-109651800D01*
X123190000Y-111760000D02*
X121932700Y-111760000D01*
X86045000Y-108656100D02*
X86045000Y-109651800D01*
X127156400Y-120096600D02*
X128431800Y-118821200D01*
X89385400Y-120096600D02*
X127156400Y-120096600D01*
X87630000Y-118341200D02*
X89385400Y-120096600D01*
X87630000Y-116446100D02*
X87630000Y-118341200D01*
X85435300Y-114251400D02*
X87630000Y-116446100D01*
X85435300Y-110261500D02*
X85435300Y-114251400D01*
X86045000Y-109651800D02*
X85435300Y-110261500D01*
X121133900Y-119575600D02*
X125712100Y-114997400D01*
X96509900Y-119575600D02*
X121133900Y-119575600D01*
X95250000Y-118315700D02*
X96509900Y-119575600D01*
X95250000Y-111215200D02*
X95250000Y-118315700D01*
X93306000Y-109271200D02*
X95250000Y-111215200D01*
X88560100Y-109271200D02*
X93306000Y-109271200D01*
X87945000Y-108656100D02*
X88560100Y-109271200D01*
D27*
G36*
X143090900Y-128485900D02*
X74079100Y-128485900D01*
X74079100Y-126401932D01*
X74279844Y-126401932D01*
X74592010Y-127157430D01*
X75169530Y-127735959D01*
X75924482Y-128049443D01*
X76741932Y-128050156D01*
X77497430Y-127737990D01*
X78075959Y-127160470D01*
X78389443Y-126405518D01*
X78389446Y-126401932D01*
X113379844Y-126401932D01*
X113692010Y-127157430D01*
X114269530Y-127735959D01*
X115024482Y-128049443D01*
X115841932Y-128050156D01*
X116597430Y-127737990D01*
X117175959Y-127160470D01*
X117489443Y-126405518D01*
X117490156Y-125588068D01*
X117177990Y-124832570D01*
X116600470Y-124254041D01*
X115845518Y-123940557D01*
X115028068Y-123939844D01*
X114272570Y-124252010D01*
X113694041Y-124829530D01*
X113380557Y-125584482D01*
X113379844Y-126401932D01*
X78389446Y-126401932D01*
X78390156Y-125588068D01*
X78077990Y-124832570D01*
X77500470Y-124254041D01*
X76745518Y-123940557D01*
X75928068Y-123939844D01*
X75172570Y-124252010D01*
X74594041Y-124829530D01*
X74280557Y-125584482D01*
X74279844Y-126401932D01*
X74079100Y-126401932D01*
X74079100Y-117101248D01*
X74968100Y-117101248D01*
X74968100Y-117848752D01*
X75061873Y-118320180D01*
X75328915Y-118719837D01*
X75728572Y-118986879D01*
X76200000Y-119080652D01*
X76671428Y-118986879D01*
X77071085Y-118719837D01*
X77338127Y-118320180D01*
X77431900Y-117848752D01*
X77431900Y-117101248D01*
X77431703Y-117100253D01*
X77457300Y-117100253D01*
X77457300Y-117849747D01*
X77554940Y-118340615D01*
X77832994Y-118756753D01*
X78249132Y-119034807D01*
X78740000Y-119132447D01*
X79230868Y-119034807D01*
X79647006Y-118756753D01*
X79925060Y-118340615D01*
X80022700Y-117849747D01*
X80022700Y-117101248D01*
X80048100Y-117101248D01*
X80048100Y-117848752D01*
X80141873Y-118320180D01*
X80408915Y-118719837D01*
X80808572Y-118986879D01*
X81280000Y-119080652D01*
X81751428Y-118986879D01*
X82151085Y-118719837D01*
X82418127Y-118320180D01*
X82511900Y-117848752D01*
X82511900Y-117101248D01*
X82588100Y-117101248D01*
X82588100Y-117848752D01*
X82681873Y-118320180D01*
X82948915Y-118719837D01*
X83348572Y-118986879D01*
X83820000Y-119080652D01*
X84291428Y-118986879D01*
X84691085Y-118719837D01*
X84958127Y-118320180D01*
X85051900Y-117848752D01*
X85051900Y-117101248D01*
X84958127Y-116629820D01*
X84691085Y-116230163D01*
X84291428Y-115963121D01*
X83820000Y-115869348D01*
X83348572Y-115963121D01*
X82948915Y-116230163D01*
X82681873Y-116629820D01*
X82588100Y-117101248D01*
X82511900Y-117101248D01*
X82418127Y-116629820D01*
X82151085Y-116230163D01*
X81751428Y-115963121D01*
X81280000Y-115869348D01*
X80808572Y-115963121D01*
X80408915Y-116230163D01*
X80141873Y-116629820D01*
X80048100Y-117101248D01*
X80022700Y-117101248D01*
X80022700Y-117100253D01*
X79925060Y-116609385D01*
X79647898Y-116194582D01*
X79859257Y-116053357D01*
X82525657Y-113386957D01*
X82712862Y-113106785D01*
X82726311Y-113039171D01*
X82778600Y-112776300D01*
X82778600Y-112376566D01*
X83185000Y-112376566D01*
X83323748Y-112348967D01*
X83441373Y-112270373D01*
X83519967Y-112152748D01*
X83547566Y-112014000D01*
X83547566Y-110744000D01*
X83519967Y-110605252D01*
X83441373Y-110487627D01*
X83323748Y-110409033D01*
X83185000Y-110381434D01*
X82034849Y-110381434D01*
X81914915Y-110261500D01*
X84927300Y-110261500D01*
X84927300Y-114251400D01*
X84965969Y-114445803D01*
X85076090Y-114610610D01*
X86339004Y-115873524D01*
X85888572Y-115963121D01*
X85488915Y-116230163D01*
X85221873Y-116629820D01*
X85128100Y-117101248D01*
X85128100Y-117848752D01*
X85221873Y-118320180D01*
X85488915Y-118719837D01*
X85888572Y-118986879D01*
X86360000Y-119080652D01*
X86831428Y-118986879D01*
X87231085Y-118719837D01*
X87257428Y-118680412D01*
X87270790Y-118700410D01*
X89026189Y-120455810D01*
X89136310Y-120529390D01*
X89190997Y-120565931D01*
X89385400Y-120604600D01*
X127156400Y-120604600D01*
X127350803Y-120565931D01*
X127515610Y-120455810D01*
X128400946Y-119570474D01*
X128580191Y-119570630D01*
X128855690Y-119456796D01*
X129066656Y-119246199D01*
X129180970Y-118970899D01*
X129181230Y-118672809D01*
X129067396Y-118397310D01*
X128856799Y-118186344D01*
X128581499Y-118072030D01*
X128283409Y-118071770D01*
X128007910Y-118185604D01*
X127796944Y-118396201D01*
X127682630Y-118671501D01*
X127682472Y-118852108D01*
X126945980Y-119588600D01*
X121839320Y-119588600D01*
X125681247Y-115746674D01*
X125860491Y-115746830D01*
X126135990Y-115632996D01*
X126346956Y-115422399D01*
X126461270Y-115147099D01*
X126461530Y-114849009D01*
X126347696Y-114573510D01*
X126137099Y-114362544D01*
X125861799Y-114248230D01*
X125563709Y-114247970D01*
X125288210Y-114361804D01*
X125077244Y-114572401D01*
X124962930Y-114847701D01*
X124962772Y-115028307D01*
X120923480Y-119067600D01*
X119462715Y-119067600D01*
X119874682Y-118656352D01*
X120192437Y-117891112D01*
X120193160Y-117062523D01*
X119876741Y-116296730D01*
X119291352Y-115710318D01*
X118526112Y-115392563D01*
X117697523Y-115391840D01*
X116931730Y-115708259D01*
X116345318Y-116293648D01*
X116027563Y-117058888D01*
X116026840Y-117887477D01*
X116343259Y-118653270D01*
X116756866Y-119067600D01*
X114365617Y-119067600D01*
X114771428Y-118986879D01*
X115171085Y-118719837D01*
X115438127Y-118320180D01*
X115531900Y-117848752D01*
X115531900Y-117101248D01*
X115438127Y-116629820D01*
X115181734Y-116246100D01*
X115533900Y-116246100D01*
X115728303Y-116207431D01*
X115893110Y-116097310D01*
X118784210Y-113206210D01*
X118894331Y-113041403D01*
X118933000Y-112847000D01*
X118933000Y-111925800D01*
X118991475Y-111838287D01*
X119015131Y-111719360D01*
X119015131Y-110388400D01*
X118991475Y-110269473D01*
X118924108Y-110168652D01*
X118910860Y-110159800D01*
X119614080Y-110159800D01*
X121573490Y-112119210D01*
X121738297Y-112229331D01*
X121932700Y-112268000D01*
X121952129Y-112268000D01*
X121952129Y-113030000D01*
X121975785Y-113148927D01*
X122043152Y-113249748D01*
X122143973Y-113317115D01*
X122262900Y-113340771D01*
X124117100Y-113340771D01*
X124236027Y-113317115D01*
X124336848Y-113249748D01*
X124404215Y-113148927D01*
X124427871Y-113030000D01*
X124427871Y-112903898D01*
X124751152Y-113297274D01*
X125282730Y-113580947D01*
X125340269Y-113589357D01*
X125577600Y-113478785D01*
X125577600Y-111912400D01*
X125882400Y-111912400D01*
X125882400Y-113478785D01*
X126119731Y-113589357D01*
X126177270Y-113580947D01*
X126708848Y-113297274D01*
X127091405Y-112831769D01*
X127266700Y-112255300D01*
X127266700Y-111912400D01*
X125882400Y-111912400D01*
X125577600Y-111912400D01*
X125557600Y-111912400D01*
X125557600Y-111607600D01*
X125577600Y-111607600D01*
X125577600Y-110041215D01*
X125882400Y-110041215D01*
X125882400Y-111607600D01*
X127266700Y-111607600D01*
X127266700Y-111264700D01*
X127091405Y-110688231D01*
X126708848Y-110222726D01*
X126177270Y-109939053D01*
X126119731Y-109930643D01*
X125882400Y-110041215D01*
X125577600Y-110041215D01*
X125340269Y-109930643D01*
X125282730Y-109939053D01*
X124751152Y-110222726D01*
X124427871Y-110616102D01*
X124427871Y-110490000D01*
X124404215Y-110371073D01*
X124336848Y-110270252D01*
X124236027Y-110202885D01*
X124117100Y-110179229D01*
X122262900Y-110179229D01*
X122143973Y-110202885D01*
X122043152Y-110270252D01*
X121975785Y-110371073D01*
X121952129Y-110490000D01*
X121952129Y-111061009D01*
X120183710Y-109292590D01*
X120018903Y-109182469D01*
X119824500Y-109143800D01*
X119015131Y-109143800D01*
X119015131Y-108739336D01*
X119034689Y-108758894D01*
X119258743Y-108851700D01*
X120345200Y-108851700D01*
X120497600Y-108699300D01*
X120497600Y-107467400D01*
X120802400Y-107467400D01*
X120802400Y-108699300D01*
X120954800Y-108851700D01*
X122041257Y-108851700D01*
X122265311Y-108758894D01*
X122436794Y-108587411D01*
X122529600Y-108363357D01*
X122529600Y-107619800D01*
X122377200Y-107467400D01*
X120802400Y-107467400D01*
X120497600Y-107467400D01*
X118922800Y-107467400D01*
X118770400Y-107619800D01*
X118770400Y-107693005D01*
X118704360Y-107679869D01*
X118285501Y-107679869D01*
X118271194Y-107645329D01*
X118099711Y-107473846D01*
X117875657Y-107381040D01*
X117767100Y-107381040D01*
X117614700Y-107533440D01*
X117614700Y-108503720D01*
X117647400Y-108503720D01*
X117647400Y-108808520D01*
X117614700Y-108808520D01*
X117614700Y-109778800D01*
X117767100Y-109931200D01*
X117875657Y-109931200D01*
X117982807Y-109886817D01*
X118065790Y-110011010D01*
X118165492Y-110077629D01*
X118145560Y-110077629D01*
X118026633Y-110101285D01*
X117949980Y-110152503D01*
X117873327Y-110101285D01*
X117754400Y-110077629D01*
X117195600Y-110077629D01*
X117076673Y-110101285D01*
X117000020Y-110152503D01*
X116923367Y-110101285D01*
X116804440Y-110077629D01*
X116245640Y-110077629D01*
X116126713Y-110101285D01*
X116025892Y-110168652D01*
X115958525Y-110269473D01*
X115934869Y-110388400D01*
X115934869Y-111719360D01*
X115958525Y-111838287D01*
X115982304Y-111873875D01*
X113134480Y-114721700D01*
X109318700Y-114721700D01*
X109124297Y-114760369D01*
X108959490Y-114870489D01*
X107578090Y-116251890D01*
X107571846Y-116261234D01*
X107551085Y-116230163D01*
X107151428Y-115963121D01*
X106680000Y-115869348D01*
X106410457Y-115922964D01*
X108700910Y-113632511D01*
X108811031Y-113467704D01*
X108827092Y-113386957D01*
X108849700Y-113273300D01*
X108849700Y-112126300D01*
X108835529Y-112055057D01*
X108811031Y-111931896D01*
X108789979Y-111900390D01*
X108831475Y-111838287D01*
X108855131Y-111719360D01*
X108855131Y-110388400D01*
X108831475Y-110269473D01*
X108764108Y-110168652D01*
X108663287Y-110101285D01*
X108544360Y-110077629D01*
X107985560Y-110077629D01*
X107866633Y-110101285D01*
X107789980Y-110152503D01*
X107713327Y-110101285D01*
X107594400Y-110077629D01*
X107035600Y-110077629D01*
X106916673Y-110101285D01*
X106840020Y-110152503D01*
X106763367Y-110101285D01*
X106644440Y-110077629D01*
X106107149Y-110077629D01*
X105956710Y-109927190D01*
X105791903Y-109817069D01*
X105597500Y-109778400D01*
X100772000Y-109778400D01*
X100577597Y-109817069D01*
X100412790Y-109927190D01*
X99983490Y-110356490D01*
X99873369Y-110521297D01*
X99834700Y-110715700D01*
X99834700Y-116165761D01*
X99568000Y-115987558D01*
X99568000Y-113004600D01*
X99529331Y-112810197D01*
X99419210Y-112645390D01*
X98647695Y-111873875D01*
X98671475Y-111838287D01*
X98695131Y-111719360D01*
X98695131Y-110388400D01*
X98671475Y-110269473D01*
X98604108Y-110168652D01*
X98503287Y-110101285D01*
X98384360Y-110077629D01*
X97825560Y-110077629D01*
X97706633Y-110101285D01*
X97629980Y-110152503D01*
X97553327Y-110101285D01*
X97434400Y-110077629D01*
X96875600Y-110077629D01*
X96756673Y-110101285D01*
X96680020Y-110152503D01*
X96603367Y-110101285D01*
X96484440Y-110077629D01*
X95925640Y-110077629D01*
X95806713Y-110101285D01*
X95705892Y-110168652D01*
X95638525Y-110269473D01*
X95614869Y-110388400D01*
X95614869Y-110864459D01*
X95609210Y-110855990D01*
X93921174Y-109167954D01*
X93954600Y-109087257D01*
X93954600Y-108635800D01*
X93802200Y-108483400D01*
X92227400Y-108483400D01*
X92227400Y-108503400D01*
X91922600Y-108503400D01*
X91922600Y-108483400D01*
X90347800Y-108483400D01*
X90195400Y-108635800D01*
X90195400Y-108763200D01*
X88770520Y-108763200D01*
X88535131Y-108527811D01*
X88535131Y-107990640D01*
X88511475Y-107871713D01*
X88444108Y-107770892D01*
X88343287Y-107703525D01*
X88224360Y-107679869D01*
X87805501Y-107679869D01*
X87791194Y-107645329D01*
X87720608Y-107574743D01*
X90195400Y-107574743D01*
X90195400Y-108026200D01*
X90347800Y-108178600D01*
X91922600Y-108178600D01*
X91922600Y-107238800D01*
X92227400Y-107238800D01*
X92227400Y-108178600D01*
X93802200Y-108178600D01*
X93954600Y-108026200D01*
X93954600Y-107990640D01*
X95614869Y-107990640D01*
X95614869Y-109321600D01*
X95638525Y-109440527D01*
X95705892Y-109541348D01*
X95806713Y-109608715D01*
X95925640Y-109632371D01*
X96344499Y-109632371D01*
X96358806Y-109666911D01*
X96530289Y-109838394D01*
X96754343Y-109931200D01*
X96862900Y-109931200D01*
X97015300Y-109778800D01*
X97015300Y-108808520D01*
X96982600Y-108808520D01*
X96982600Y-108503720D01*
X97015300Y-108503720D01*
X97015300Y-108483720D01*
X97294700Y-108483720D01*
X97294700Y-108503720D01*
X97327400Y-108503720D01*
X97327400Y-108808520D01*
X97294700Y-108808520D01*
X97294700Y-109778800D01*
X97447100Y-109931200D01*
X97555657Y-109931200D01*
X97779711Y-109838394D01*
X97951194Y-109666911D01*
X97965501Y-109632371D01*
X98384360Y-109632371D01*
X98503287Y-109608715D01*
X98604108Y-109541348D01*
X98671475Y-109440527D01*
X98695131Y-109321600D01*
X98695131Y-108635800D01*
X100355400Y-108635800D01*
X100355400Y-109087257D01*
X100448206Y-109311311D01*
X100619689Y-109482794D01*
X100843743Y-109575600D01*
X101930200Y-109575600D01*
X102082600Y-109423200D01*
X102082600Y-108483400D01*
X102387400Y-108483400D01*
X102387400Y-109423200D01*
X102539800Y-109575600D01*
X103626257Y-109575600D01*
X103850311Y-109482794D01*
X104021794Y-109311311D01*
X104114600Y-109087257D01*
X104114600Y-108635800D01*
X103962200Y-108483400D01*
X102387400Y-108483400D01*
X102082600Y-108483400D01*
X100507800Y-108483400D01*
X100355400Y-108635800D01*
X98695131Y-108635800D01*
X98695131Y-107990640D01*
X98671475Y-107871713D01*
X98613000Y-107784200D01*
X98613000Y-107574743D01*
X100355400Y-107574743D01*
X100355400Y-108026200D01*
X100507800Y-108178600D01*
X102082600Y-108178600D01*
X102082600Y-107238800D01*
X102387400Y-107238800D01*
X102387400Y-108178600D01*
X103962200Y-108178600D01*
X104114600Y-108026200D01*
X104114600Y-107574743D01*
X104021794Y-107350689D01*
X103850311Y-107179206D01*
X103626257Y-107086400D01*
X102539800Y-107086400D01*
X102387400Y-107238800D01*
X102082600Y-107238800D01*
X101930200Y-107086400D01*
X100843743Y-107086400D01*
X100619689Y-107179206D01*
X100448206Y-107350689D01*
X100355400Y-107574743D01*
X98613000Y-107574743D01*
X98613000Y-106825520D01*
X124155196Y-81283324D01*
X124154927Y-81591873D01*
X124314211Y-81977368D01*
X106005790Y-100285790D01*
X105895669Y-100450597D01*
X105857000Y-100645000D01*
X105857000Y-107784200D01*
X105798525Y-107871713D01*
X105774869Y-107990640D01*
X105774869Y-109321600D01*
X105798525Y-109440527D01*
X105865892Y-109541348D01*
X105966713Y-109608715D01*
X106085640Y-109632371D01*
X106504499Y-109632371D01*
X106518806Y-109666911D01*
X106690289Y-109838394D01*
X106914343Y-109931200D01*
X107022900Y-109931200D01*
X107175300Y-109778800D01*
X107175300Y-108808520D01*
X107142600Y-108808520D01*
X107142600Y-108503720D01*
X107175300Y-108503720D01*
X107175300Y-107533440D01*
X107022900Y-107381040D01*
X106914343Y-107381040D01*
X106873000Y-107398165D01*
X106873000Y-100855420D01*
X125032769Y-82695652D01*
X125415379Y-82854526D01*
X126041873Y-82855073D01*
X126620887Y-82615829D01*
X127064272Y-82173217D01*
X127304526Y-81594621D01*
X127305073Y-80968127D01*
X127065829Y-80389113D01*
X126623217Y-79945728D01*
X126044621Y-79705474D01*
X125733318Y-79705202D01*
X125746620Y-79691900D01*
X130716180Y-79691900D01*
X107905790Y-102502290D01*
X107795669Y-102667097D01*
X107757000Y-102861500D01*
X107757000Y-107398165D01*
X107715657Y-107381040D01*
X107607100Y-107381040D01*
X107454700Y-107533440D01*
X107454700Y-108503720D01*
X107487400Y-108503720D01*
X107487400Y-108808520D01*
X107454700Y-108808520D01*
X107454700Y-109778800D01*
X107607100Y-109931200D01*
X107715657Y-109931200D01*
X107939711Y-109838394D01*
X108111194Y-109666911D01*
X108125501Y-109632371D01*
X108544360Y-109632371D01*
X108663287Y-109608715D01*
X108764108Y-109541348D01*
X108831475Y-109440527D01*
X108855131Y-109321600D01*
X108855131Y-108635800D01*
X110515400Y-108635800D01*
X110515400Y-109087257D01*
X110608206Y-109311311D01*
X110779689Y-109482794D01*
X111003743Y-109575600D01*
X111647662Y-109575600D01*
X111597138Y-109651215D01*
X111531400Y-109981700D01*
X111531400Y-110381434D01*
X111125000Y-110381434D01*
X110986252Y-110409033D01*
X110868627Y-110487627D01*
X110790033Y-110605252D01*
X110762434Y-110744000D01*
X110762434Y-112014000D01*
X110790033Y-112152748D01*
X110868627Y-112270373D01*
X110986252Y-112348967D01*
X111125000Y-112376566D01*
X113665000Y-112376566D01*
X113803748Y-112348967D01*
X113921373Y-112270373D01*
X113999967Y-112152748D01*
X114027566Y-112014000D01*
X114027566Y-110808766D01*
X114174385Y-110779562D01*
X114454557Y-110592357D01*
X114802858Y-110244057D01*
X114802860Y-110244054D01*
X115934869Y-109112046D01*
X115934869Y-109321600D01*
X115958525Y-109440527D01*
X116025892Y-109541348D01*
X116126713Y-109608715D01*
X116245640Y-109632371D01*
X116664499Y-109632371D01*
X116678806Y-109666911D01*
X116850289Y-109838394D01*
X117074343Y-109931200D01*
X117182900Y-109931200D01*
X117335300Y-109778800D01*
X117335300Y-108808520D01*
X117302600Y-108808520D01*
X117302600Y-108503720D01*
X117335300Y-108503720D01*
X117335300Y-107533440D01*
X117182900Y-107381040D01*
X117074343Y-107381040D01*
X117033000Y-107398165D01*
X117033000Y-106963820D01*
X118822103Y-105174717D01*
X118829053Y-105222270D01*
X119112726Y-105753848D01*
X119181442Y-105810319D01*
X119034689Y-105871106D01*
X118863206Y-106042589D01*
X118770400Y-106266643D01*
X118770400Y-107010200D01*
X118922800Y-107162600D01*
X120497600Y-107162600D01*
X120497600Y-104927400D01*
X120802400Y-104927400D01*
X120802400Y-107162600D01*
X122377200Y-107162600D01*
X122529600Y-107010200D01*
X122529600Y-106266643D01*
X122436794Y-106042589D01*
X122265311Y-105871106D01*
X122118558Y-105810319D01*
X122187274Y-105753848D01*
X122470947Y-105222270D01*
X122479357Y-105164731D01*
X122368785Y-104927400D01*
X120802400Y-104927400D01*
X120497600Y-104927400D01*
X120477600Y-104927400D01*
X120477600Y-104622600D01*
X120497600Y-104622600D01*
X120497600Y-104602600D01*
X120802400Y-104602600D01*
X120802400Y-104622600D01*
X122368785Y-104622600D01*
X122479357Y-104385269D01*
X122470947Y-104327730D01*
X122187274Y-103796152D01*
X121721769Y-103413595D01*
X121524425Y-103353586D01*
X121894837Y-103106085D01*
X122103498Y-102793800D01*
X123850400Y-102793800D01*
X123850400Y-103245257D01*
X123943206Y-103469311D01*
X124114689Y-103640794D01*
X124338743Y-103733600D01*
X125425200Y-103733600D01*
X125577600Y-103581200D01*
X125577600Y-102641400D01*
X125882400Y-102641400D01*
X125882400Y-103581200D01*
X126034800Y-103733600D01*
X127121257Y-103733600D01*
X127345311Y-103640794D01*
X127516794Y-103469311D01*
X127609600Y-103245257D01*
X127609600Y-102793800D01*
X127457200Y-102641400D01*
X125882400Y-102641400D01*
X125577600Y-102641400D01*
X124002800Y-102641400D01*
X123850400Y-102793800D01*
X122103498Y-102793800D01*
X122161879Y-102706428D01*
X122255652Y-102235000D01*
X122161879Y-101763572D01*
X122141280Y-101732743D01*
X123850400Y-101732743D01*
X123850400Y-102184200D01*
X124002800Y-102336600D01*
X125577600Y-102336600D01*
X125577600Y-101396800D01*
X125882400Y-101396800D01*
X125882400Y-102336600D01*
X127457200Y-102336600D01*
X127609600Y-102184200D01*
X127609600Y-101732743D01*
X127516794Y-101508689D01*
X127345311Y-101337206D01*
X127121257Y-101244400D01*
X126034800Y-101244400D01*
X125882400Y-101396800D01*
X125577600Y-101396800D01*
X125425200Y-101244400D01*
X124338743Y-101244400D01*
X124114689Y-101337206D01*
X123943206Y-101508689D01*
X123850400Y-101732743D01*
X122141280Y-101732743D01*
X121894837Y-101363915D01*
X121495180Y-101096873D01*
X121023752Y-101003100D01*
X120276248Y-101003100D01*
X119804820Y-101096873D01*
X119405163Y-101363915D01*
X119138121Y-101763572D01*
X119044348Y-102235000D01*
X119138121Y-102706428D01*
X119405163Y-103106085D01*
X119436234Y-103126846D01*
X119426890Y-103133090D01*
X116346800Y-106213180D01*
X116346800Y-99695000D01*
X119044348Y-99695000D01*
X119138121Y-100166428D01*
X119405163Y-100566085D01*
X119804820Y-100833127D01*
X120276248Y-100926900D01*
X121023752Y-100926900D01*
X121495180Y-100833127D01*
X121894837Y-100566085D01*
X122161879Y-100166428D01*
X122255652Y-99695000D01*
X122161879Y-99223572D01*
X121894837Y-98823915D01*
X121495180Y-98556873D01*
X121023752Y-98463100D01*
X120276248Y-98463100D01*
X119804820Y-98556873D01*
X119405163Y-98823915D01*
X119138121Y-99223572D01*
X119044348Y-99695000D01*
X116346800Y-99695000D01*
X116346800Y-98107214D01*
X117299014Y-97155000D01*
X119044348Y-97155000D01*
X119138121Y-97626428D01*
X119405163Y-98026085D01*
X119804820Y-98293127D01*
X120276248Y-98386900D01*
X121023752Y-98386900D01*
X121495180Y-98293127D01*
X121894837Y-98026085D01*
X122161879Y-97626428D01*
X122255652Y-97155000D01*
X122161879Y-96683572D01*
X121894837Y-96283915D01*
X121495180Y-96016873D01*
X121023752Y-95923100D01*
X120276248Y-95923100D01*
X119804820Y-96016873D01*
X119405163Y-96283915D01*
X119138121Y-96683572D01*
X119044348Y-97155000D01*
X117299014Y-97155000D01*
X118975415Y-95478600D01*
X119339244Y-95478600D01*
X119368247Y-95522006D01*
X119784385Y-95800060D01*
X120275253Y-95897700D01*
X121024747Y-95897700D01*
X121515615Y-95800060D01*
X121931753Y-95522006D01*
X121960756Y-95478600D01*
X121986078Y-95478600D01*
X122071643Y-95606657D01*
X124866400Y-98401415D01*
X124866400Y-98443434D01*
X124460000Y-98443434D01*
X124321252Y-98471033D01*
X124203627Y-98549627D01*
X124125033Y-98667252D01*
X124097434Y-98806000D01*
X124097434Y-100076000D01*
X124125033Y-100214748D01*
X124203627Y-100332373D01*
X124321252Y-100410967D01*
X124460000Y-100438566D01*
X127000000Y-100438566D01*
X127138748Y-100410967D01*
X127256373Y-100332373D01*
X127334967Y-100214748D01*
X127362566Y-100076000D01*
X127362566Y-98806000D01*
X127334967Y-98667252D01*
X127256373Y-98549627D01*
X127138748Y-98471033D01*
X127000000Y-98443434D01*
X126593600Y-98443434D01*
X126593600Y-98043700D01*
X126527862Y-97713215D01*
X126340658Y-97433043D01*
X123545900Y-94638286D01*
X123545900Y-94615000D01*
X123480162Y-94284515D01*
X123292957Y-94004343D01*
X123012785Y-93817138D01*
X122682300Y-93751400D01*
X121960756Y-93751400D01*
X121931753Y-93707994D01*
X121515615Y-93429940D01*
X121024747Y-93332300D01*
X120275253Y-93332300D01*
X119784385Y-93429940D01*
X119368247Y-93707994D01*
X119339244Y-93751400D01*
X118617700Y-93751400D01*
X118342045Y-93806231D01*
X118287214Y-93817138D01*
X118007042Y-94004343D01*
X114872543Y-97138843D01*
X114685338Y-97419015D01*
X114619600Y-97749500D01*
X114619600Y-107984685D01*
X114274600Y-108329686D01*
X114274600Y-108178598D01*
X114122202Y-108178598D01*
X114274600Y-108026200D01*
X114274600Y-107574743D01*
X114181794Y-107350689D01*
X114010311Y-107179206D01*
X113786257Y-107086400D01*
X112699800Y-107086400D01*
X112547400Y-107238800D01*
X112547400Y-108178600D01*
X112567400Y-108178600D01*
X112567400Y-108483400D01*
X112547400Y-108483400D01*
X112547400Y-108503400D01*
X112242600Y-108503400D01*
X112242600Y-108483400D01*
X110667800Y-108483400D01*
X110515400Y-108635800D01*
X108855131Y-108635800D01*
X108855131Y-107990640D01*
X108831475Y-107871713D01*
X108773000Y-107784200D01*
X108773000Y-107574743D01*
X110515400Y-107574743D01*
X110515400Y-108026200D01*
X110667800Y-108178600D01*
X112242600Y-108178600D01*
X112242600Y-107238800D01*
X112090200Y-107086400D01*
X111003743Y-107086400D01*
X110779689Y-107179206D01*
X110608206Y-107350689D01*
X110515400Y-107574743D01*
X108773000Y-107574743D01*
X108773000Y-103071920D01*
X129214468Y-82630452D01*
X130945074Y-82630452D01*
X131080415Y-82915088D01*
X131782225Y-83173149D01*
X132529368Y-83142995D01*
X133079585Y-82915088D01*
X133214926Y-82630452D01*
X132080000Y-81495526D01*
X130945074Y-82630452D01*
X129214468Y-82630452D01*
X130213069Y-81631851D01*
X130217005Y-81729368D01*
X130444912Y-82279585D01*
X130729548Y-82414926D01*
X131864474Y-81280000D01*
X131850332Y-81265858D01*
X132065858Y-81050332D01*
X132080000Y-81064474D01*
X132094143Y-81050332D01*
X132309669Y-81265858D01*
X132295526Y-81280000D01*
X133430452Y-82414926D01*
X133715088Y-82279585D01*
X133973149Y-81577775D01*
X133942995Y-80830632D01*
X133715088Y-80280415D01*
X133546598Y-80200300D01*
X136631880Y-80200300D01*
X137014348Y-80582768D01*
X136855474Y-80965379D01*
X136854927Y-81591873D01*
X137094171Y-82170887D01*
X137536783Y-82614272D01*
X138115379Y-82854526D01*
X138367334Y-82854746D01*
X134100080Y-87122000D01*
X133574035Y-87122000D01*
X133415829Y-86739113D01*
X132973217Y-86295728D01*
X132394621Y-86055474D01*
X131768127Y-86054927D01*
X131189113Y-86294171D01*
X130745728Y-86736783D01*
X130505474Y-87315379D01*
X130504927Y-87941873D01*
X130744171Y-88520887D01*
X131186783Y-88964272D01*
X131765379Y-89204526D01*
X132391873Y-89205073D01*
X132970887Y-88965829D01*
X133414272Y-88523217D01*
X133574228Y-88138000D01*
X134310500Y-88138000D01*
X134504903Y-88099331D01*
X134669710Y-87989210D01*
X140407910Y-82251010D01*
X140518031Y-82086204D01*
X140524446Y-82053950D01*
X140556700Y-81891800D01*
X140556700Y-80630300D01*
X140518031Y-80435897D01*
X140465905Y-80357885D01*
X140407910Y-80271089D01*
X138961510Y-78824690D01*
X138796703Y-78714569D01*
X138602300Y-78675900D01*
X125907921Y-78675900D01*
X129145821Y-75438000D01*
X130585965Y-75438000D01*
X130744171Y-75820887D01*
X131186783Y-76264272D01*
X131765379Y-76504526D01*
X132391873Y-76505073D01*
X132970887Y-76265829D01*
X133414272Y-75823217D01*
X133654526Y-75244621D01*
X133655073Y-74618127D01*
X133415829Y-74039113D01*
X132973217Y-73595728D01*
X132394621Y-73355474D01*
X131768127Y-73354927D01*
X131189113Y-73594171D01*
X130745728Y-74036783D01*
X130585772Y-74422000D01*
X128935400Y-74422000D01*
X128740997Y-74460669D01*
X128576190Y-74570789D01*
X95845790Y-107301190D01*
X95735669Y-107465997D01*
X95697000Y-107660400D01*
X95697000Y-107784200D01*
X95638525Y-107871713D01*
X95614869Y-107990640D01*
X93954600Y-107990640D01*
X93954600Y-107574743D01*
X93861794Y-107350689D01*
X93690311Y-107179206D01*
X93466257Y-107086400D01*
X92379800Y-107086400D01*
X92227400Y-107238800D01*
X91922600Y-107238800D01*
X91770200Y-107086400D01*
X90683743Y-107086400D01*
X90459689Y-107179206D01*
X90288206Y-107350689D01*
X90195400Y-107574743D01*
X87720608Y-107574743D01*
X87619711Y-107473846D01*
X87395657Y-107381040D01*
X87287100Y-107381040D01*
X87134700Y-107533440D01*
X87134700Y-108503720D01*
X87167400Y-108503720D01*
X87167400Y-108808520D01*
X87134700Y-108808520D01*
X87134700Y-109778800D01*
X87287100Y-109931200D01*
X87395657Y-109931200D01*
X87468242Y-109901134D01*
X87437000Y-110058200D01*
X87437000Y-110130467D01*
X87393327Y-110101285D01*
X87274400Y-110077629D01*
X86715600Y-110077629D01*
X86596673Y-110101285D01*
X86520020Y-110152503D01*
X86443367Y-110101285D01*
X86335409Y-110079811D01*
X86404210Y-110011010D01*
X86487193Y-109886817D01*
X86594343Y-109931200D01*
X86702900Y-109931200D01*
X86855300Y-109778800D01*
X86855300Y-108808520D01*
X86822600Y-108808520D01*
X86822600Y-108503720D01*
X86855300Y-108503720D01*
X86855300Y-107533440D01*
X86702900Y-107381040D01*
X86594343Y-107381040D01*
X86370289Y-107473846D01*
X86198806Y-107645329D01*
X86184499Y-107679869D01*
X85765640Y-107679869D01*
X85646713Y-107703525D01*
X85545892Y-107770892D01*
X85478525Y-107871713D01*
X85454869Y-107990640D01*
X85454869Y-109321600D01*
X85478525Y-109440527D01*
X85502289Y-109476091D01*
X85076090Y-109902290D01*
X84965969Y-110067097D01*
X84927300Y-110261500D01*
X81914915Y-110261500D01*
X81229014Y-109575600D01*
X81610200Y-109575600D01*
X81762600Y-109423200D01*
X81762600Y-108483400D01*
X82067400Y-108483400D01*
X82067400Y-109423200D01*
X82219800Y-109575600D01*
X83306257Y-109575600D01*
X83530311Y-109482794D01*
X83701794Y-109311311D01*
X83794600Y-109087257D01*
X83794600Y-108635800D01*
X83642200Y-108483400D01*
X82067400Y-108483400D01*
X81762600Y-108483400D01*
X81742600Y-108483400D01*
X81742600Y-108178600D01*
X81762600Y-108178600D01*
X81762600Y-107238800D01*
X82067400Y-107238800D01*
X82067400Y-108178600D01*
X83642200Y-108178600D01*
X83794600Y-108026200D01*
X83794600Y-107574743D01*
X83701794Y-107350689D01*
X83530311Y-107179206D01*
X83306257Y-107086400D01*
X82219800Y-107086400D01*
X82067400Y-107238800D01*
X81762600Y-107238800D01*
X81610200Y-107086400D01*
X80746200Y-107086400D01*
X80746200Y-105897722D01*
X80762862Y-105872786D01*
X80786520Y-105753848D01*
X80828600Y-105542300D01*
X80828600Y-105142566D01*
X81350000Y-105142566D01*
X81488748Y-105114967D01*
X81606373Y-105036373D01*
X81684967Y-104918748D01*
X81712566Y-104780000D01*
X81712566Y-103997349D01*
X81900115Y-103809800D01*
X84410400Y-103809800D01*
X84410400Y-104901257D01*
X84503206Y-105125311D01*
X84674689Y-105296794D01*
X84898743Y-105389600D01*
X86100200Y-105389600D01*
X86252600Y-105237200D01*
X86252600Y-103657400D01*
X86557400Y-103657400D01*
X86557400Y-105237200D01*
X86709800Y-105389600D01*
X87911257Y-105389600D01*
X88135311Y-105296794D01*
X88306794Y-105125311D01*
X88399600Y-104901257D01*
X88399600Y-103809800D01*
X88247200Y-103657400D01*
X86557400Y-103657400D01*
X86252600Y-103657400D01*
X84562800Y-103657400D01*
X84410400Y-103809800D01*
X81900115Y-103809800D01*
X82271657Y-103438258D01*
X82458862Y-103158086D01*
X82493430Y-102984300D01*
X82524600Y-102827600D01*
X82524600Y-102108743D01*
X84410400Y-102108743D01*
X84410400Y-103200200D01*
X84562800Y-103352600D01*
X86252600Y-103352600D01*
X86252600Y-101772800D01*
X86557400Y-101772800D01*
X86557400Y-103352600D01*
X88247200Y-103352600D01*
X88399600Y-103200200D01*
X88399600Y-102108743D01*
X88306794Y-101884689D01*
X88135311Y-101713206D01*
X87911257Y-101620400D01*
X86709800Y-101620400D01*
X86557400Y-101772800D01*
X86252600Y-101772800D01*
X86100200Y-101620400D01*
X84898743Y-101620400D01*
X84674689Y-101713206D01*
X84503206Y-101884689D01*
X84410400Y-102108743D01*
X82524600Y-102108743D01*
X82524600Y-97429930D01*
X82552373Y-97411373D01*
X82630967Y-97293748D01*
X82658566Y-97155000D01*
X82658566Y-96189800D01*
X83464400Y-96189800D01*
X83464400Y-97276257D01*
X83557206Y-97500311D01*
X83728689Y-97671794D01*
X83952743Y-97764600D01*
X84404200Y-97764600D01*
X84556600Y-97612200D01*
X84556600Y-96037400D01*
X84861400Y-96037400D01*
X84861400Y-97612200D01*
X85013800Y-97764600D01*
X85465257Y-97764600D01*
X85689311Y-97671794D01*
X85860794Y-97500311D01*
X85953600Y-97276257D01*
X85953600Y-96189800D01*
X85801200Y-96037400D01*
X84861400Y-96037400D01*
X84556600Y-96037400D01*
X83616800Y-96037400D01*
X83464400Y-96189800D01*
X82658566Y-96189800D01*
X82658566Y-94615000D01*
X82634447Y-94493743D01*
X83464400Y-94493743D01*
X83464400Y-95580200D01*
X83616800Y-95732600D01*
X84556600Y-95732600D01*
X84556600Y-94157800D01*
X84861400Y-94157800D01*
X84861400Y-95732600D01*
X85801200Y-95732600D01*
X85953600Y-95580200D01*
X85953600Y-94493743D01*
X85860794Y-94269689D01*
X85689311Y-94098206D01*
X85465257Y-94005400D01*
X85013800Y-94005400D01*
X84861400Y-94157800D01*
X84556600Y-94157800D01*
X84404200Y-94005400D01*
X83952743Y-94005400D01*
X83728689Y-94098206D01*
X83557206Y-94269689D01*
X83464400Y-94493743D01*
X82634447Y-94493743D01*
X82630967Y-94476252D01*
X82552373Y-94358627D01*
X82434748Y-94280033D01*
X82296000Y-94252434D01*
X81026000Y-94252434D01*
X80887252Y-94280033D01*
X80769627Y-94358627D01*
X80691033Y-94476252D01*
X80663434Y-94615000D01*
X80663434Y-97155000D01*
X80691033Y-97293748D01*
X80769627Y-97411373D01*
X80797400Y-97429930D01*
X80797400Y-101867434D01*
X78580000Y-101867434D01*
X78441252Y-101895033D01*
X78323627Y-101973627D01*
X78245033Y-102091252D01*
X78217434Y-102230000D01*
X78217434Y-104780000D01*
X78245033Y-104918748D01*
X78323627Y-105036373D01*
X78441252Y-105114967D01*
X78580000Y-105142566D01*
X79101400Y-105142566D01*
X79101400Y-105269279D01*
X79084738Y-105294215D01*
X79019000Y-105624700D01*
X79019000Y-109450500D01*
X79062047Y-109666911D01*
X79084738Y-109780985D01*
X79271943Y-110061157D01*
X80282434Y-111071648D01*
X80282434Y-112014000D01*
X80310033Y-112152748D01*
X80388627Y-112270373D01*
X80506252Y-112348967D01*
X80645000Y-112376566D01*
X81051400Y-112376566D01*
X81051400Y-112418586D01*
X78890886Y-114579100D01*
X78740000Y-114579100D01*
X78409515Y-114644838D01*
X78129343Y-114832043D01*
X77942138Y-115112215D01*
X77876400Y-115442700D01*
X77876400Y-116164244D01*
X77832994Y-116193247D01*
X77554940Y-116609385D01*
X77457300Y-117100253D01*
X77431703Y-117100253D01*
X77338127Y-116629820D01*
X77071085Y-116230163D01*
X76671428Y-115963121D01*
X76200000Y-115869348D01*
X75728572Y-115963121D01*
X75328915Y-116230163D01*
X75061873Y-116629820D01*
X74968100Y-117101248D01*
X74079100Y-117101248D01*
X74079100Y-112807477D01*
X75386840Y-112807477D01*
X75703259Y-113573270D01*
X76288648Y-114159682D01*
X77053888Y-114477437D01*
X77882477Y-114478160D01*
X78648270Y-114161741D01*
X79234682Y-113576352D01*
X79552437Y-112811112D01*
X79553160Y-111982523D01*
X79236741Y-111216730D01*
X78651352Y-110630318D01*
X77886112Y-110312563D01*
X77057523Y-110311840D01*
X76291730Y-110628259D01*
X75705318Y-111213648D01*
X75387563Y-111978888D01*
X75386840Y-112807477D01*
X74079100Y-112807477D01*
X74079100Y-87407477D01*
X75386840Y-87407477D01*
X75703259Y-88173270D01*
X76288648Y-88759682D01*
X77053888Y-89077437D01*
X77882477Y-89078160D01*
X78648270Y-88761741D01*
X79234682Y-88176352D01*
X79552437Y-87411112D01*
X79553160Y-86582523D01*
X79236741Y-85816730D01*
X78651352Y-85230318D01*
X77886112Y-84912563D01*
X77057523Y-84911840D01*
X76291730Y-85228259D01*
X75705318Y-85813648D01*
X75387563Y-86578888D01*
X75386840Y-87407477D01*
X74079100Y-87407477D01*
X74079100Y-80645000D01*
X74962129Y-80645000D01*
X74962129Y-83185000D01*
X74985785Y-83303927D01*
X75053152Y-83404748D01*
X75153973Y-83472115D01*
X75272900Y-83495771D01*
X77127100Y-83495771D01*
X77246027Y-83472115D01*
X77346848Y-83404748D01*
X77414215Y-83303927D01*
X77437871Y-83185000D01*
X77437871Y-83058898D01*
X77761152Y-83452274D01*
X78292730Y-83735947D01*
X78350269Y-83744357D01*
X78587600Y-83633785D01*
X78587600Y-82067400D01*
X78567600Y-82067400D01*
X78567600Y-81762600D01*
X78587600Y-81762600D01*
X78587600Y-80196215D01*
X78892400Y-80196215D01*
X78892400Y-81762600D01*
X78912400Y-81762600D01*
X78912400Y-82067400D01*
X78892400Y-82067400D01*
X78892400Y-83633785D01*
X79129731Y-83744357D01*
X79187270Y-83735947D01*
X79718848Y-83452274D01*
X80101405Y-82986769D01*
X80161414Y-82789425D01*
X80408915Y-83159837D01*
X80808572Y-83426879D01*
X81280000Y-83520652D01*
X81751428Y-83426879D01*
X82151085Y-83159837D01*
X82418127Y-82760180D01*
X82511900Y-82288752D01*
X82511900Y-81541248D01*
X82588100Y-81541248D01*
X82588100Y-82288752D01*
X82681873Y-82760180D01*
X82948915Y-83159837D01*
X83348572Y-83426879D01*
X83820000Y-83520652D01*
X84291428Y-83426879D01*
X84691085Y-83159837D01*
X84958127Y-82760180D01*
X85051900Y-82288752D01*
X85051900Y-81541248D01*
X85128100Y-81541248D01*
X85128100Y-82288752D01*
X85221873Y-82760180D01*
X85488915Y-83159837D01*
X85888572Y-83426879D01*
X86360000Y-83520652D01*
X86831428Y-83426879D01*
X87231085Y-83159837D01*
X87498127Y-82760180D01*
X87565196Y-82423000D01*
X87617300Y-82423000D01*
X87691854Y-82408170D01*
X87761873Y-82760180D01*
X88028915Y-83159837D01*
X88428572Y-83426879D01*
X88900000Y-83520652D01*
X89371428Y-83426879D01*
X89771085Y-83159837D01*
X90038127Y-82760180D01*
X90131900Y-82288752D01*
X90131900Y-81541248D01*
X90208100Y-81541248D01*
X90208100Y-82288752D01*
X90301873Y-82760180D01*
X90568915Y-83159837D01*
X90968572Y-83426879D01*
X91440000Y-83520652D01*
X91911428Y-83426879D01*
X92311085Y-83159837D01*
X92578127Y-82760180D01*
X92671900Y-82288752D01*
X92671900Y-81541248D01*
X92748100Y-81541248D01*
X92748100Y-82288752D01*
X92841873Y-82760180D01*
X93108915Y-83159837D01*
X93508572Y-83426879D01*
X93980000Y-83520652D01*
X94451428Y-83426879D01*
X94851085Y-83159837D01*
X95118127Y-82760180D01*
X95211900Y-82288752D01*
X95211900Y-81541248D01*
X95288100Y-81541248D01*
X95288100Y-82288752D01*
X95381873Y-82760180D01*
X95648915Y-83159837D01*
X96048572Y-83426879D01*
X96520000Y-83520652D01*
X96991428Y-83426879D01*
X97391085Y-83159837D01*
X97658127Y-82760180D01*
X97751900Y-82288752D01*
X97751900Y-81541248D01*
X97828100Y-81541248D01*
X97828100Y-82288752D01*
X97921873Y-82760180D01*
X98188915Y-83159837D01*
X98588572Y-83426879D01*
X99060000Y-83520652D01*
X99531428Y-83426879D01*
X99931085Y-83159837D01*
X100198127Y-82760180D01*
X100291900Y-82288752D01*
X100291900Y-81541248D01*
X100198127Y-81069820D01*
X99931085Y-80670163D01*
X99531428Y-80403121D01*
X99060000Y-80309348D01*
X98588572Y-80403121D01*
X98188915Y-80670163D01*
X97921873Y-81069820D01*
X97828100Y-81541248D01*
X97751900Y-81541248D01*
X97658127Y-81069820D01*
X97391085Y-80670163D01*
X96991428Y-80403121D01*
X96520000Y-80309348D01*
X96048572Y-80403121D01*
X95648915Y-80670163D01*
X95381873Y-81069820D01*
X95288100Y-81541248D01*
X95211900Y-81541248D01*
X95118127Y-81069820D01*
X94851085Y-80670163D01*
X94451428Y-80403121D01*
X93980000Y-80309348D01*
X93508572Y-80403121D01*
X93108915Y-80670163D01*
X92841873Y-81069820D01*
X92748100Y-81541248D01*
X92671900Y-81541248D01*
X92578127Y-81069820D01*
X92311085Y-80670163D01*
X91911428Y-80403121D01*
X91440000Y-80309348D01*
X90968572Y-80403121D01*
X90568915Y-80670163D01*
X90301873Y-81069820D01*
X90208100Y-81541248D01*
X90131900Y-81541248D01*
X90038127Y-81069820D01*
X89771085Y-80670163D01*
X89371428Y-80403121D01*
X88900000Y-80309348D01*
X88428572Y-80403121D01*
X88125300Y-80605761D01*
X88125300Y-77093120D01*
X89906910Y-75311510D01*
X90017031Y-75146703D01*
X90043601Y-75013127D01*
X90333572Y-75206879D01*
X90805000Y-75300652D01*
X91276428Y-75206879D01*
X91676085Y-74939837D01*
X91943127Y-74540180D01*
X92036900Y-74068752D01*
X92036900Y-73321248D01*
X92113100Y-73321248D01*
X92113100Y-74068752D01*
X92206873Y-74540180D01*
X92473915Y-74939837D01*
X92873572Y-75206879D01*
X93345000Y-75300652D01*
X93816428Y-75206879D01*
X94216085Y-74939837D01*
X94483127Y-74540180D01*
X94576900Y-74068752D01*
X94576900Y-73321248D01*
X94653100Y-73321248D01*
X94653100Y-74068752D01*
X94746873Y-74540180D01*
X95013915Y-74939837D01*
X95413572Y-75206879D01*
X95885000Y-75300652D01*
X96356428Y-75206879D01*
X96652544Y-75009021D01*
X96672969Y-75111703D01*
X96783090Y-75276510D01*
X101869543Y-80362963D01*
X101600000Y-80309348D01*
X101128572Y-80403121D01*
X100728915Y-80670163D01*
X100461873Y-81069820D01*
X100368100Y-81541248D01*
X100368100Y-82288752D01*
X100461873Y-82760180D01*
X100728915Y-83159837D01*
X101128572Y-83426879D01*
X101600000Y-83520652D01*
X102071428Y-83426879D01*
X102471085Y-83159837D01*
X102738127Y-82760180D01*
X102808146Y-82408170D01*
X102882700Y-82423000D01*
X102934804Y-82423000D01*
X103001873Y-82760180D01*
X103268915Y-83159837D01*
X103668572Y-83426879D01*
X104140000Y-83520652D01*
X104611428Y-83426879D01*
X105011085Y-83159837D01*
X105278127Y-82760180D01*
X105371900Y-82288752D01*
X105371900Y-81541248D01*
X105448100Y-81541248D01*
X105448100Y-82288752D01*
X105541873Y-82760180D01*
X105808915Y-83159837D01*
X106208572Y-83426879D01*
X106680000Y-83520652D01*
X107151428Y-83426879D01*
X107551085Y-83159837D01*
X107818127Y-82760180D01*
X107911900Y-82288752D01*
X107911900Y-81541248D01*
X107988100Y-81541248D01*
X107988100Y-82288752D01*
X108081873Y-82760180D01*
X108348915Y-83159837D01*
X108748572Y-83426879D01*
X109220000Y-83520652D01*
X109691428Y-83426879D01*
X110091085Y-83159837D01*
X110358127Y-82760180D01*
X110451900Y-82288752D01*
X110451900Y-81541248D01*
X110528100Y-81541248D01*
X110528100Y-82288752D01*
X110621873Y-82760180D01*
X110888915Y-83159837D01*
X111288572Y-83426879D01*
X111760000Y-83520652D01*
X112231428Y-83426879D01*
X112631085Y-83159837D01*
X112898127Y-82760180D01*
X112991900Y-82288752D01*
X112991900Y-81541248D01*
X113068100Y-81541248D01*
X113068100Y-82288752D01*
X113161873Y-82760180D01*
X113428915Y-83159837D01*
X113828572Y-83426879D01*
X114300000Y-83520652D01*
X114771428Y-83426879D01*
X115171085Y-83159837D01*
X115438127Y-82760180D01*
X115524197Y-82327477D01*
X116026840Y-82327477D01*
X116343259Y-83093270D01*
X116928648Y-83679682D01*
X117693888Y-83997437D01*
X118522477Y-83998160D01*
X119288270Y-83681741D01*
X119874682Y-83096352D01*
X120192437Y-82331112D01*
X120193160Y-81502523D01*
X119876741Y-80736730D01*
X119291352Y-80150318D01*
X118526112Y-79832563D01*
X117697523Y-79831840D01*
X116931730Y-80148259D01*
X116345318Y-80733648D01*
X116027563Y-81498888D01*
X116026840Y-82327477D01*
X115524197Y-82327477D01*
X115531900Y-82288752D01*
X115531900Y-81541248D01*
X115438127Y-81069820D01*
X115171085Y-80670163D01*
X114771428Y-80403121D01*
X114300000Y-80309348D01*
X113828572Y-80403121D01*
X113428915Y-80670163D01*
X113161873Y-81069820D01*
X113068100Y-81541248D01*
X112991900Y-81541248D01*
X112898127Y-81069820D01*
X112631085Y-80670163D01*
X112231428Y-80403121D01*
X111760000Y-80309348D01*
X111288572Y-80403121D01*
X110888915Y-80670163D01*
X110621873Y-81069820D01*
X110528100Y-81541248D01*
X110451900Y-81541248D01*
X110358127Y-81069820D01*
X110091085Y-80670163D01*
X109691428Y-80403121D01*
X109220000Y-80309348D01*
X108748572Y-80403121D01*
X108348915Y-80670163D01*
X108081873Y-81069820D01*
X107988100Y-81541248D01*
X107911900Y-81541248D01*
X107818127Y-81069820D01*
X107551085Y-80670163D01*
X107151428Y-80403121D01*
X106680000Y-80309348D01*
X106208572Y-80403121D01*
X105808915Y-80670163D01*
X105541873Y-81069820D01*
X105448100Y-81541248D01*
X105371900Y-81541248D01*
X105278127Y-81069820D01*
X105011085Y-80670163D01*
X104611428Y-80403121D01*
X104140000Y-80309348D01*
X103668572Y-80403121D01*
X103378601Y-80596873D01*
X103352031Y-80463297D01*
X103300906Y-80386783D01*
X103241911Y-80298490D01*
X98199147Y-75255727D01*
X98425000Y-75300652D01*
X98896428Y-75206879D01*
X99296085Y-74939837D01*
X99563127Y-74540180D01*
X99656900Y-74068752D01*
X99656900Y-73321248D01*
X99733100Y-73321248D01*
X99733100Y-74068752D01*
X99826873Y-74540180D01*
X100093915Y-74939837D01*
X100493572Y-75206879D01*
X100965000Y-75300652D01*
X101436428Y-75206879D01*
X101836085Y-74939837D01*
X102103127Y-74540180D01*
X102196900Y-74068752D01*
X102196900Y-73321248D01*
X102273100Y-73321248D01*
X102273100Y-74068752D01*
X102366873Y-74540180D01*
X102633915Y-74939837D01*
X103033572Y-75206879D01*
X103505000Y-75300652D01*
X103976428Y-75206879D01*
X104376085Y-74939837D01*
X104643127Y-74540180D01*
X104736900Y-74068752D01*
X104736900Y-73321248D01*
X104736703Y-73320253D01*
X104762300Y-73320253D01*
X104762300Y-74069747D01*
X104859940Y-74560615D01*
X105137994Y-74976753D01*
X105181400Y-75005756D01*
X105181400Y-75460986D01*
X105180343Y-75462043D01*
X104993138Y-75742215D01*
X104927400Y-76072700D01*
X104927400Y-76560070D01*
X104899627Y-76578627D01*
X104821033Y-76696252D01*
X104793434Y-76835000D01*
X104793434Y-79375000D01*
X104821033Y-79513748D01*
X104899627Y-79631373D01*
X105017252Y-79709967D01*
X105156000Y-79737566D01*
X106426000Y-79737566D01*
X106564748Y-79709967D01*
X106682373Y-79631373D01*
X106760967Y-79513748D01*
X106788566Y-79375000D01*
X106788566Y-78409800D01*
X107594400Y-78409800D01*
X107594400Y-79496257D01*
X107687206Y-79720311D01*
X107858689Y-79891794D01*
X108082743Y-79984600D01*
X108534200Y-79984600D01*
X108686600Y-79832200D01*
X108686600Y-78257400D01*
X108991400Y-78257400D01*
X108991400Y-79832200D01*
X109143800Y-79984600D01*
X109595257Y-79984600D01*
X109819311Y-79891794D01*
X109990794Y-79720311D01*
X110083600Y-79496257D01*
X110083600Y-78409800D01*
X109931200Y-78257400D01*
X108991400Y-78257400D01*
X108686600Y-78257400D01*
X107746800Y-78257400D01*
X107594400Y-78409800D01*
X106788566Y-78409800D01*
X106788566Y-76835000D01*
X106764447Y-76713743D01*
X107594400Y-76713743D01*
X107594400Y-77800200D01*
X107746800Y-77952600D01*
X108686600Y-77952600D01*
X108686600Y-76377800D01*
X108991400Y-76377800D01*
X108991400Y-77952600D01*
X109931200Y-77952600D01*
X110083600Y-77800200D01*
X110083600Y-76713743D01*
X109990794Y-76489689D01*
X109819311Y-76318206D01*
X109595257Y-76225400D01*
X109143800Y-76225400D01*
X108991400Y-76377800D01*
X108686600Y-76377800D01*
X108534200Y-76225400D01*
X108082743Y-76225400D01*
X107858689Y-76318206D01*
X107687206Y-76489689D01*
X107594400Y-76713743D01*
X106764447Y-76713743D01*
X106760967Y-76696252D01*
X106682373Y-76578627D01*
X106654600Y-76560070D01*
X106654600Y-76430415D01*
X106655657Y-76429358D01*
X106842862Y-76149186D01*
X106858076Y-76072700D01*
X106908600Y-75818700D01*
X106908600Y-75005756D01*
X106952006Y-74976753D01*
X107182535Y-74631741D01*
X107223595Y-74766769D01*
X107606152Y-75232274D01*
X108137730Y-75515947D01*
X108195269Y-75524357D01*
X108432600Y-75413785D01*
X108432600Y-73847400D01*
X108737400Y-73847400D01*
X108737400Y-75413785D01*
X108974731Y-75524357D01*
X109032270Y-75515947D01*
X109563848Y-75232274D01*
X109946405Y-74766769D01*
X110121700Y-74190300D01*
X110121700Y-73847400D01*
X108737400Y-73847400D01*
X108432600Y-73847400D01*
X108412600Y-73847400D01*
X108412600Y-73801932D01*
X113379844Y-73801932D01*
X113692010Y-74557430D01*
X114269530Y-75135959D01*
X115024482Y-75449443D01*
X115841932Y-75450156D01*
X116597430Y-75137990D01*
X117175959Y-74560470D01*
X117489443Y-73805518D01*
X117490156Y-72988068D01*
X117177990Y-72232570D01*
X116600470Y-71654041D01*
X115845518Y-71340557D01*
X115028068Y-71339844D01*
X114272570Y-71652010D01*
X113694041Y-72229530D01*
X113380557Y-72984482D01*
X113379844Y-73801932D01*
X108412600Y-73801932D01*
X108412600Y-73542600D01*
X108432600Y-73542600D01*
X108432600Y-71976215D01*
X108737400Y-71976215D01*
X108737400Y-73542600D01*
X110121700Y-73542600D01*
X110121700Y-73199700D01*
X109946405Y-72623231D01*
X109563848Y-72157726D01*
X109032270Y-71874053D01*
X108974731Y-71865643D01*
X108737400Y-71976215D01*
X108432600Y-71976215D01*
X108195269Y-71865643D01*
X108137730Y-71874053D01*
X107606152Y-72157726D01*
X107223595Y-72623231D01*
X107182535Y-72758259D01*
X106952006Y-72413247D01*
X106535868Y-72135193D01*
X106045000Y-72037553D01*
X105554132Y-72135193D01*
X105137994Y-72413247D01*
X104859940Y-72829385D01*
X104762300Y-73320253D01*
X104736703Y-73320253D01*
X104643127Y-72849820D01*
X104376085Y-72450163D01*
X103976428Y-72183121D01*
X103505000Y-72089348D01*
X103033572Y-72183121D01*
X102633915Y-72450163D01*
X102366873Y-72849820D01*
X102273100Y-73321248D01*
X102196900Y-73321248D01*
X102103127Y-72849820D01*
X101836085Y-72450163D01*
X101436428Y-72183121D01*
X100965000Y-72089348D01*
X100493572Y-72183121D01*
X100093915Y-72450163D01*
X99826873Y-72849820D01*
X99733100Y-73321248D01*
X99656900Y-73321248D01*
X99563127Y-72849820D01*
X99296085Y-72450163D01*
X98896428Y-72183121D01*
X98425000Y-72089348D01*
X97953572Y-72183121D01*
X97553915Y-72450163D01*
X97286873Y-72849820D01*
X97216854Y-73201830D01*
X97142300Y-73187000D01*
X97090196Y-73187000D01*
X97023127Y-72849820D01*
X96756085Y-72450163D01*
X96356428Y-72183121D01*
X95885000Y-72089348D01*
X95413572Y-72183121D01*
X95013915Y-72450163D01*
X94746873Y-72849820D01*
X94653100Y-73321248D01*
X94576900Y-73321248D01*
X94483127Y-72849820D01*
X94216085Y-72450163D01*
X93816428Y-72183121D01*
X93345000Y-72089348D01*
X92873572Y-72183121D01*
X92473915Y-72450163D01*
X92206873Y-72849820D01*
X92113100Y-73321248D01*
X92036900Y-73321248D01*
X91943127Y-72849820D01*
X91676085Y-72450163D01*
X91276428Y-72183121D01*
X90805000Y-72089348D01*
X90333572Y-72183121D01*
X89933915Y-72450163D01*
X89666873Y-72849820D01*
X89599804Y-73187000D01*
X89547700Y-73187000D01*
X89473146Y-73201830D01*
X89403127Y-72849820D01*
X89136085Y-72450163D01*
X88736428Y-72183121D01*
X88265000Y-72089348D01*
X87793572Y-72183121D01*
X87393915Y-72450163D01*
X87126873Y-72849820D01*
X87033100Y-73321248D01*
X87033100Y-74068752D01*
X87126873Y-74540180D01*
X87393915Y-74939837D01*
X87793572Y-75206879D01*
X88265000Y-75300652D01*
X88534544Y-75247036D01*
X87258090Y-76523490D01*
X87147969Y-76688297D01*
X87109300Y-76882700D01*
X87109300Y-80588789D01*
X86831428Y-80403121D01*
X86360000Y-80309348D01*
X85888572Y-80403121D01*
X85488915Y-80670163D01*
X85221873Y-81069820D01*
X85128100Y-81541248D01*
X85051900Y-81541248D01*
X84958127Y-81069820D01*
X84691085Y-80670163D01*
X84291428Y-80403121D01*
X83820000Y-80309348D01*
X83348572Y-80403121D01*
X82948915Y-80670163D01*
X82681873Y-81069820D01*
X82588100Y-81541248D01*
X82511900Y-81541248D01*
X82418127Y-81069820D01*
X82151085Y-80670163D01*
X81751428Y-80403121D01*
X81280000Y-80309348D01*
X80808572Y-80403121D01*
X80408915Y-80670163D01*
X80161414Y-81040575D01*
X80101405Y-80843231D01*
X79718848Y-80377726D01*
X79187270Y-80094053D01*
X79129731Y-80085643D01*
X78892400Y-80196215D01*
X78587600Y-80196215D01*
X78350269Y-80085643D01*
X78292730Y-80094053D01*
X77761152Y-80377726D01*
X77437871Y-80771102D01*
X77437871Y-80645000D01*
X77414215Y-80526073D01*
X77346848Y-80425252D01*
X77246027Y-80357885D01*
X77127100Y-80334229D01*
X75272900Y-80334229D01*
X75153973Y-80357885D01*
X75053152Y-80425252D01*
X74985785Y-80526073D01*
X74962129Y-80645000D01*
X74079100Y-80645000D01*
X74079100Y-73801932D01*
X74279844Y-73801932D01*
X74592010Y-74557430D01*
X75169530Y-75135959D01*
X75924482Y-75449443D01*
X76741932Y-75450156D01*
X77497430Y-75137990D01*
X78075959Y-74560470D01*
X78389443Y-73805518D01*
X78390156Y-72988068D01*
X78157501Y-72425000D01*
X81947129Y-72425000D01*
X81947129Y-74965000D01*
X81970785Y-75083927D01*
X82038152Y-75184748D01*
X82138973Y-75252115D01*
X82257900Y-75275771D01*
X84112100Y-75275771D01*
X84231027Y-75252115D01*
X84331848Y-75184748D01*
X84399215Y-75083927D01*
X84422871Y-74965000D01*
X84422871Y-73321248D01*
X84493100Y-73321248D01*
X84493100Y-74068752D01*
X84586873Y-74540180D01*
X84853915Y-74939837D01*
X85253572Y-75206879D01*
X85725000Y-75300652D01*
X86196428Y-75206879D01*
X86596085Y-74939837D01*
X86863127Y-74540180D01*
X86956900Y-74068752D01*
X86956900Y-73321248D01*
X86863127Y-72849820D01*
X86596085Y-72450163D01*
X86196428Y-72183121D01*
X85725000Y-72089348D01*
X85253572Y-72183121D01*
X84853915Y-72450163D01*
X84586873Y-72849820D01*
X84493100Y-73321248D01*
X84422871Y-73321248D01*
X84422871Y-72425000D01*
X84399215Y-72306073D01*
X84331848Y-72205252D01*
X84231027Y-72137885D01*
X84112100Y-72114229D01*
X82257900Y-72114229D01*
X82138973Y-72137885D01*
X82038152Y-72205252D01*
X81970785Y-72306073D01*
X81947129Y-72425000D01*
X78157501Y-72425000D01*
X78077990Y-72232570D01*
X77500470Y-71654041D01*
X76745518Y-71340557D01*
X75928068Y-71339844D01*
X75172570Y-71652010D01*
X74594041Y-72229530D01*
X74280557Y-72984482D01*
X74279844Y-73801932D01*
X74079100Y-73801932D01*
X74079100Y-70904100D01*
X143090900Y-70904100D01*
X143090900Y-128485900D01*
X143090900Y-128485900D01*
G37*
X143090900Y-128485900D02*
X74079100Y-128485900D01*
X74079100Y-126401932D01*
X74279844Y-126401932D01*
X74592010Y-127157430D01*
X75169530Y-127735959D01*
X75924482Y-128049443D01*
X76741932Y-128050156D01*
X77497430Y-127737990D01*
X78075959Y-127160470D01*
X78389443Y-126405518D01*
X78389446Y-126401932D01*
X113379844Y-126401932D01*
X113692010Y-127157430D01*
X114269530Y-127735959D01*
X115024482Y-128049443D01*
X115841932Y-128050156D01*
X116597430Y-127737990D01*
X117175959Y-127160470D01*
X117489443Y-126405518D01*
X117490156Y-125588068D01*
X117177990Y-124832570D01*
X116600470Y-124254041D01*
X115845518Y-123940557D01*
X115028068Y-123939844D01*
X114272570Y-124252010D01*
X113694041Y-124829530D01*
X113380557Y-125584482D01*
X113379844Y-126401932D01*
X78389446Y-126401932D01*
X78390156Y-125588068D01*
X78077990Y-124832570D01*
X77500470Y-124254041D01*
X76745518Y-123940557D01*
X75928068Y-123939844D01*
X75172570Y-124252010D01*
X74594041Y-124829530D01*
X74280557Y-125584482D01*
X74279844Y-126401932D01*
X74079100Y-126401932D01*
X74079100Y-117101248D01*
X74968100Y-117101248D01*
X74968100Y-117848752D01*
X75061873Y-118320180D01*
X75328915Y-118719837D01*
X75728572Y-118986879D01*
X76200000Y-119080652D01*
X76671428Y-118986879D01*
X77071085Y-118719837D01*
X77338127Y-118320180D01*
X77431900Y-117848752D01*
X77431900Y-117101248D01*
X77431703Y-117100253D01*
X77457300Y-117100253D01*
X77457300Y-117849747D01*
X77554940Y-118340615D01*
X77832994Y-118756753D01*
X78249132Y-119034807D01*
X78740000Y-119132447D01*
X79230868Y-119034807D01*
X79647006Y-118756753D01*
X79925060Y-118340615D01*
X80022700Y-117849747D01*
X80022700Y-117101248D01*
X80048100Y-117101248D01*
X80048100Y-117848752D01*
X80141873Y-118320180D01*
X80408915Y-118719837D01*
X80808572Y-118986879D01*
X81280000Y-119080652D01*
X81751428Y-118986879D01*
X82151085Y-118719837D01*
X82418127Y-118320180D01*
X82511900Y-117848752D01*
X82511900Y-117101248D01*
X82588100Y-117101248D01*
X82588100Y-117848752D01*
X82681873Y-118320180D01*
X82948915Y-118719837D01*
X83348572Y-118986879D01*
X83820000Y-119080652D01*
X84291428Y-118986879D01*
X84691085Y-118719837D01*
X84958127Y-118320180D01*
X85051900Y-117848752D01*
X85051900Y-117101248D01*
X84958127Y-116629820D01*
X84691085Y-116230163D01*
X84291428Y-115963121D01*
X83820000Y-115869348D01*
X83348572Y-115963121D01*
X82948915Y-116230163D01*
X82681873Y-116629820D01*
X82588100Y-117101248D01*
X82511900Y-117101248D01*
X82418127Y-116629820D01*
X82151085Y-116230163D01*
X81751428Y-115963121D01*
X81280000Y-115869348D01*
X80808572Y-115963121D01*
X80408915Y-116230163D01*
X80141873Y-116629820D01*
X80048100Y-117101248D01*
X80022700Y-117101248D01*
X80022700Y-117100253D01*
X79925060Y-116609385D01*
X79647898Y-116194582D01*
X79859257Y-116053357D01*
X82525657Y-113386957D01*
X82712862Y-113106785D01*
X82726311Y-113039171D01*
X82778600Y-112776300D01*
X82778600Y-112376566D01*
X83185000Y-112376566D01*
X83323748Y-112348967D01*
X83441373Y-112270373D01*
X83519967Y-112152748D01*
X83547566Y-112014000D01*
X83547566Y-110744000D01*
X83519967Y-110605252D01*
X83441373Y-110487627D01*
X83323748Y-110409033D01*
X83185000Y-110381434D01*
X82034849Y-110381434D01*
X81914915Y-110261500D01*
X84927300Y-110261500D01*
X84927300Y-114251400D01*
X84965969Y-114445803D01*
X85076090Y-114610610D01*
X86339004Y-115873524D01*
X85888572Y-115963121D01*
X85488915Y-116230163D01*
X85221873Y-116629820D01*
X85128100Y-117101248D01*
X85128100Y-117848752D01*
X85221873Y-118320180D01*
X85488915Y-118719837D01*
X85888572Y-118986879D01*
X86360000Y-119080652D01*
X86831428Y-118986879D01*
X87231085Y-118719837D01*
X87257428Y-118680412D01*
X87270790Y-118700410D01*
X89026189Y-120455810D01*
X89136310Y-120529390D01*
X89190997Y-120565931D01*
X89385400Y-120604600D01*
X127156400Y-120604600D01*
X127350803Y-120565931D01*
X127515610Y-120455810D01*
X128400946Y-119570474D01*
X128580191Y-119570630D01*
X128855690Y-119456796D01*
X129066656Y-119246199D01*
X129180970Y-118970899D01*
X129181230Y-118672809D01*
X129067396Y-118397310D01*
X128856799Y-118186344D01*
X128581499Y-118072030D01*
X128283409Y-118071770D01*
X128007910Y-118185604D01*
X127796944Y-118396201D01*
X127682630Y-118671501D01*
X127682472Y-118852108D01*
X126945980Y-119588600D01*
X121839320Y-119588600D01*
X125681247Y-115746674D01*
X125860491Y-115746830D01*
X126135990Y-115632996D01*
X126346956Y-115422399D01*
X126461270Y-115147099D01*
X126461530Y-114849009D01*
X126347696Y-114573510D01*
X126137099Y-114362544D01*
X125861799Y-114248230D01*
X125563709Y-114247970D01*
X125288210Y-114361804D01*
X125077244Y-114572401D01*
X124962930Y-114847701D01*
X124962772Y-115028307D01*
X120923480Y-119067600D01*
X119462715Y-119067600D01*
X119874682Y-118656352D01*
X120192437Y-117891112D01*
X120193160Y-117062523D01*
X119876741Y-116296730D01*
X119291352Y-115710318D01*
X118526112Y-115392563D01*
X117697523Y-115391840D01*
X116931730Y-115708259D01*
X116345318Y-116293648D01*
X116027563Y-117058888D01*
X116026840Y-117887477D01*
X116343259Y-118653270D01*
X116756866Y-119067600D01*
X114365617Y-119067600D01*
X114771428Y-118986879D01*
X115171085Y-118719837D01*
X115438127Y-118320180D01*
X115531900Y-117848752D01*
X115531900Y-117101248D01*
X115438127Y-116629820D01*
X115181734Y-116246100D01*
X115533900Y-116246100D01*
X115728303Y-116207431D01*
X115893110Y-116097310D01*
X118784210Y-113206210D01*
X118894331Y-113041403D01*
X118933000Y-112847000D01*
X118933000Y-111925800D01*
X118991475Y-111838287D01*
X119015131Y-111719360D01*
X119015131Y-110388400D01*
X118991475Y-110269473D01*
X118924108Y-110168652D01*
X118910860Y-110159800D01*
X119614080Y-110159800D01*
X121573490Y-112119210D01*
X121738297Y-112229331D01*
X121932700Y-112268000D01*
X121952129Y-112268000D01*
X121952129Y-113030000D01*
X121975785Y-113148927D01*
X122043152Y-113249748D01*
X122143973Y-113317115D01*
X122262900Y-113340771D01*
X124117100Y-113340771D01*
X124236027Y-113317115D01*
X124336848Y-113249748D01*
X124404215Y-113148927D01*
X124427871Y-113030000D01*
X124427871Y-112903898D01*
X124751152Y-113297274D01*
X125282730Y-113580947D01*
X125340269Y-113589357D01*
X125577600Y-113478785D01*
X125577600Y-111912400D01*
X125882400Y-111912400D01*
X125882400Y-113478785D01*
X126119731Y-113589357D01*
X126177270Y-113580947D01*
X126708848Y-113297274D01*
X127091405Y-112831769D01*
X127266700Y-112255300D01*
X127266700Y-111912400D01*
X125882400Y-111912400D01*
X125577600Y-111912400D01*
X125557600Y-111912400D01*
X125557600Y-111607600D01*
X125577600Y-111607600D01*
X125577600Y-110041215D01*
X125882400Y-110041215D01*
X125882400Y-111607600D01*
X127266700Y-111607600D01*
X127266700Y-111264700D01*
X127091405Y-110688231D01*
X126708848Y-110222726D01*
X126177270Y-109939053D01*
X126119731Y-109930643D01*
X125882400Y-110041215D01*
X125577600Y-110041215D01*
X125340269Y-109930643D01*
X125282730Y-109939053D01*
X124751152Y-110222726D01*
X124427871Y-110616102D01*
X124427871Y-110490000D01*
X124404215Y-110371073D01*
X124336848Y-110270252D01*
X124236027Y-110202885D01*
X124117100Y-110179229D01*
X122262900Y-110179229D01*
X122143973Y-110202885D01*
X122043152Y-110270252D01*
X121975785Y-110371073D01*
X121952129Y-110490000D01*
X121952129Y-111061009D01*
X120183710Y-109292590D01*
X120018903Y-109182469D01*
X119824500Y-109143800D01*
X119015131Y-109143800D01*
X119015131Y-108739336D01*
X119034689Y-108758894D01*
X119258743Y-108851700D01*
X120345200Y-108851700D01*
X120497600Y-108699300D01*
X120497600Y-107467400D01*
X120802400Y-107467400D01*
X120802400Y-108699300D01*
X120954800Y-108851700D01*
X122041257Y-108851700D01*
X122265311Y-108758894D01*
X122436794Y-108587411D01*
X122529600Y-108363357D01*
X122529600Y-107619800D01*
X122377200Y-107467400D01*
X120802400Y-107467400D01*
X120497600Y-107467400D01*
X118922800Y-107467400D01*
X118770400Y-107619800D01*
X118770400Y-107693005D01*
X118704360Y-107679869D01*
X118285501Y-107679869D01*
X118271194Y-107645329D01*
X118099711Y-107473846D01*
X117875657Y-107381040D01*
X117767100Y-107381040D01*
X117614700Y-107533440D01*
X117614700Y-108503720D01*
X117647400Y-108503720D01*
X117647400Y-108808520D01*
X117614700Y-108808520D01*
X117614700Y-109778800D01*
X117767100Y-109931200D01*
X117875657Y-109931200D01*
X117982807Y-109886817D01*
X118065790Y-110011010D01*
X118165492Y-110077629D01*
X118145560Y-110077629D01*
X118026633Y-110101285D01*
X117949980Y-110152503D01*
X117873327Y-110101285D01*
X117754400Y-110077629D01*
X117195600Y-110077629D01*
X117076673Y-110101285D01*
X117000020Y-110152503D01*
X116923367Y-110101285D01*
X116804440Y-110077629D01*
X116245640Y-110077629D01*
X116126713Y-110101285D01*
X116025892Y-110168652D01*
X115958525Y-110269473D01*
X115934869Y-110388400D01*
X115934869Y-111719360D01*
X115958525Y-111838287D01*
X115982304Y-111873875D01*
X113134480Y-114721700D01*
X109318700Y-114721700D01*
X109124297Y-114760369D01*
X108959490Y-114870489D01*
X107578090Y-116251890D01*
X107571846Y-116261234D01*
X107551085Y-116230163D01*
X107151428Y-115963121D01*
X106680000Y-115869348D01*
X106410457Y-115922964D01*
X108700910Y-113632511D01*
X108811031Y-113467704D01*
X108827092Y-113386957D01*
X108849700Y-113273300D01*
X108849700Y-112126300D01*
X108835529Y-112055057D01*
X108811031Y-111931896D01*
X108789979Y-111900390D01*
X108831475Y-111838287D01*
X108855131Y-111719360D01*
X108855131Y-110388400D01*
X108831475Y-110269473D01*
X108764108Y-110168652D01*
X108663287Y-110101285D01*
X108544360Y-110077629D01*
X107985560Y-110077629D01*
X107866633Y-110101285D01*
X107789980Y-110152503D01*
X107713327Y-110101285D01*
X107594400Y-110077629D01*
X107035600Y-110077629D01*
X106916673Y-110101285D01*
X106840020Y-110152503D01*
X106763367Y-110101285D01*
X106644440Y-110077629D01*
X106107149Y-110077629D01*
X105956710Y-109927190D01*
X105791903Y-109817069D01*
X105597500Y-109778400D01*
X100772000Y-109778400D01*
X100577597Y-109817069D01*
X100412790Y-109927190D01*
X99983490Y-110356490D01*
X99873369Y-110521297D01*
X99834700Y-110715700D01*
X99834700Y-116165761D01*
X99568000Y-115987558D01*
X99568000Y-113004600D01*
X99529331Y-112810197D01*
X99419210Y-112645390D01*
X98647695Y-111873875D01*
X98671475Y-111838287D01*
X98695131Y-111719360D01*
X98695131Y-110388400D01*
X98671475Y-110269473D01*
X98604108Y-110168652D01*
X98503287Y-110101285D01*
X98384360Y-110077629D01*
X97825560Y-110077629D01*
X97706633Y-110101285D01*
X97629980Y-110152503D01*
X97553327Y-110101285D01*
X97434400Y-110077629D01*
X96875600Y-110077629D01*
X96756673Y-110101285D01*
X96680020Y-110152503D01*
X96603367Y-110101285D01*
X96484440Y-110077629D01*
X95925640Y-110077629D01*
X95806713Y-110101285D01*
X95705892Y-110168652D01*
X95638525Y-110269473D01*
X95614869Y-110388400D01*
X95614869Y-110864459D01*
X95609210Y-110855990D01*
X93921174Y-109167954D01*
X93954600Y-109087257D01*
X93954600Y-108635800D01*
X93802200Y-108483400D01*
X92227400Y-108483400D01*
X92227400Y-108503400D01*
X91922600Y-108503400D01*
X91922600Y-108483400D01*
X90347800Y-108483400D01*
X90195400Y-108635800D01*
X90195400Y-108763200D01*
X88770520Y-108763200D01*
X88535131Y-108527811D01*
X88535131Y-107990640D01*
X88511475Y-107871713D01*
X88444108Y-107770892D01*
X88343287Y-107703525D01*
X88224360Y-107679869D01*
X87805501Y-107679869D01*
X87791194Y-107645329D01*
X87720608Y-107574743D01*
X90195400Y-107574743D01*
X90195400Y-108026200D01*
X90347800Y-108178600D01*
X91922600Y-108178600D01*
X91922600Y-107238800D01*
X92227400Y-107238800D01*
X92227400Y-108178600D01*
X93802200Y-108178600D01*
X93954600Y-108026200D01*
X93954600Y-107990640D01*
X95614869Y-107990640D01*
X95614869Y-109321600D01*
X95638525Y-109440527D01*
X95705892Y-109541348D01*
X95806713Y-109608715D01*
X95925640Y-109632371D01*
X96344499Y-109632371D01*
X96358806Y-109666911D01*
X96530289Y-109838394D01*
X96754343Y-109931200D01*
X96862900Y-109931200D01*
X97015300Y-109778800D01*
X97015300Y-108808520D01*
X96982600Y-108808520D01*
X96982600Y-108503720D01*
X97015300Y-108503720D01*
X97015300Y-108483720D01*
X97294700Y-108483720D01*
X97294700Y-108503720D01*
X97327400Y-108503720D01*
X97327400Y-108808520D01*
X97294700Y-108808520D01*
X97294700Y-109778800D01*
X97447100Y-109931200D01*
X97555657Y-109931200D01*
X97779711Y-109838394D01*
X97951194Y-109666911D01*
X97965501Y-109632371D01*
X98384360Y-109632371D01*
X98503287Y-109608715D01*
X98604108Y-109541348D01*
X98671475Y-109440527D01*
X98695131Y-109321600D01*
X98695131Y-108635800D01*
X100355400Y-108635800D01*
X100355400Y-109087257D01*
X100448206Y-109311311D01*
X100619689Y-109482794D01*
X100843743Y-109575600D01*
X101930200Y-109575600D01*
X102082600Y-109423200D01*
X102082600Y-108483400D01*
X102387400Y-108483400D01*
X102387400Y-109423200D01*
X102539800Y-109575600D01*
X103626257Y-109575600D01*
X103850311Y-109482794D01*
X104021794Y-109311311D01*
X104114600Y-109087257D01*
X104114600Y-108635800D01*
X103962200Y-108483400D01*
X102387400Y-108483400D01*
X102082600Y-108483400D01*
X100507800Y-108483400D01*
X100355400Y-108635800D01*
X98695131Y-108635800D01*
X98695131Y-107990640D01*
X98671475Y-107871713D01*
X98613000Y-107784200D01*
X98613000Y-107574743D01*
X100355400Y-107574743D01*
X100355400Y-108026200D01*
X100507800Y-108178600D01*
X102082600Y-108178600D01*
X102082600Y-107238800D01*
X102387400Y-107238800D01*
X102387400Y-108178600D01*
X103962200Y-108178600D01*
X104114600Y-108026200D01*
X104114600Y-107574743D01*
X104021794Y-107350689D01*
X103850311Y-107179206D01*
X103626257Y-107086400D01*
X102539800Y-107086400D01*
X102387400Y-107238800D01*
X102082600Y-107238800D01*
X101930200Y-107086400D01*
X100843743Y-107086400D01*
X100619689Y-107179206D01*
X100448206Y-107350689D01*
X100355400Y-107574743D01*
X98613000Y-107574743D01*
X98613000Y-106825520D01*
X124155196Y-81283324D01*
X124154927Y-81591873D01*
X124314211Y-81977368D01*
X106005790Y-100285790D01*
X105895669Y-100450597D01*
X105857000Y-100645000D01*
X105857000Y-107784200D01*
X105798525Y-107871713D01*
X105774869Y-107990640D01*
X105774869Y-109321600D01*
X105798525Y-109440527D01*
X105865892Y-109541348D01*
X105966713Y-109608715D01*
X106085640Y-109632371D01*
X106504499Y-109632371D01*
X106518806Y-109666911D01*
X106690289Y-109838394D01*
X106914343Y-109931200D01*
X107022900Y-109931200D01*
X107175300Y-109778800D01*
X107175300Y-108808520D01*
X107142600Y-108808520D01*
X107142600Y-108503720D01*
X107175300Y-108503720D01*
X107175300Y-107533440D01*
X107022900Y-107381040D01*
X106914343Y-107381040D01*
X106873000Y-107398165D01*
X106873000Y-100855420D01*
X125032769Y-82695652D01*
X125415379Y-82854526D01*
X126041873Y-82855073D01*
X126620887Y-82615829D01*
X127064272Y-82173217D01*
X127304526Y-81594621D01*
X127305073Y-80968127D01*
X127065829Y-80389113D01*
X126623217Y-79945728D01*
X126044621Y-79705474D01*
X125733318Y-79705202D01*
X125746620Y-79691900D01*
X130716180Y-79691900D01*
X107905790Y-102502290D01*
X107795669Y-102667097D01*
X107757000Y-102861500D01*
X107757000Y-107398165D01*
X107715657Y-107381040D01*
X107607100Y-107381040D01*
X107454700Y-107533440D01*
X107454700Y-108503720D01*
X107487400Y-108503720D01*
X107487400Y-108808520D01*
X107454700Y-108808520D01*
X107454700Y-109778800D01*
X107607100Y-109931200D01*
X107715657Y-109931200D01*
X107939711Y-109838394D01*
X108111194Y-109666911D01*
X108125501Y-109632371D01*
X108544360Y-109632371D01*
X108663287Y-109608715D01*
X108764108Y-109541348D01*
X108831475Y-109440527D01*
X108855131Y-109321600D01*
X108855131Y-108635800D01*
X110515400Y-108635800D01*
X110515400Y-109087257D01*
X110608206Y-109311311D01*
X110779689Y-109482794D01*
X111003743Y-109575600D01*
X111647662Y-109575600D01*
X111597138Y-109651215D01*
X111531400Y-109981700D01*
X111531400Y-110381434D01*
X111125000Y-110381434D01*
X110986252Y-110409033D01*
X110868627Y-110487627D01*
X110790033Y-110605252D01*
X110762434Y-110744000D01*
X110762434Y-112014000D01*
X110790033Y-112152748D01*
X110868627Y-112270373D01*
X110986252Y-112348967D01*
X111125000Y-112376566D01*
X113665000Y-112376566D01*
X113803748Y-112348967D01*
X113921373Y-112270373D01*
X113999967Y-112152748D01*
X114027566Y-112014000D01*
X114027566Y-110808766D01*
X114174385Y-110779562D01*
X114454557Y-110592357D01*
X114802858Y-110244057D01*
X114802860Y-110244054D01*
X115934869Y-109112046D01*
X115934869Y-109321600D01*
X115958525Y-109440527D01*
X116025892Y-109541348D01*
X116126713Y-109608715D01*
X116245640Y-109632371D01*
X116664499Y-109632371D01*
X116678806Y-109666911D01*
X116850289Y-109838394D01*
X117074343Y-109931200D01*
X117182900Y-109931200D01*
X117335300Y-109778800D01*
X117335300Y-108808520D01*
X117302600Y-108808520D01*
X117302600Y-108503720D01*
X117335300Y-108503720D01*
X117335300Y-107533440D01*
X117182900Y-107381040D01*
X117074343Y-107381040D01*
X117033000Y-107398165D01*
X117033000Y-106963820D01*
X118822103Y-105174717D01*
X118829053Y-105222270D01*
X119112726Y-105753848D01*
X119181442Y-105810319D01*
X119034689Y-105871106D01*
X118863206Y-106042589D01*
X118770400Y-106266643D01*
X118770400Y-107010200D01*
X118922800Y-107162600D01*
X120497600Y-107162600D01*
X120497600Y-104927400D01*
X120802400Y-104927400D01*
X120802400Y-107162600D01*
X122377200Y-107162600D01*
X122529600Y-107010200D01*
X122529600Y-106266643D01*
X122436794Y-106042589D01*
X122265311Y-105871106D01*
X122118558Y-105810319D01*
X122187274Y-105753848D01*
X122470947Y-105222270D01*
X122479357Y-105164731D01*
X122368785Y-104927400D01*
X120802400Y-104927400D01*
X120497600Y-104927400D01*
X120477600Y-104927400D01*
X120477600Y-104622600D01*
X120497600Y-104622600D01*
X120497600Y-104602600D01*
X120802400Y-104602600D01*
X120802400Y-104622600D01*
X122368785Y-104622600D01*
X122479357Y-104385269D01*
X122470947Y-104327730D01*
X122187274Y-103796152D01*
X121721769Y-103413595D01*
X121524425Y-103353586D01*
X121894837Y-103106085D01*
X122103498Y-102793800D01*
X123850400Y-102793800D01*
X123850400Y-103245257D01*
X123943206Y-103469311D01*
X124114689Y-103640794D01*
X124338743Y-103733600D01*
X125425200Y-103733600D01*
X125577600Y-103581200D01*
X125577600Y-102641400D01*
X125882400Y-102641400D01*
X125882400Y-103581200D01*
X126034800Y-103733600D01*
X127121257Y-103733600D01*
X127345311Y-103640794D01*
X127516794Y-103469311D01*
X127609600Y-103245257D01*
X127609600Y-102793800D01*
X127457200Y-102641400D01*
X125882400Y-102641400D01*
X125577600Y-102641400D01*
X124002800Y-102641400D01*
X123850400Y-102793800D01*
X122103498Y-102793800D01*
X122161879Y-102706428D01*
X122255652Y-102235000D01*
X122161879Y-101763572D01*
X122141280Y-101732743D01*
X123850400Y-101732743D01*
X123850400Y-102184200D01*
X124002800Y-102336600D01*
X125577600Y-102336600D01*
X125577600Y-101396800D01*
X125882400Y-101396800D01*
X125882400Y-102336600D01*
X127457200Y-102336600D01*
X127609600Y-102184200D01*
X127609600Y-101732743D01*
X127516794Y-101508689D01*
X127345311Y-101337206D01*
X127121257Y-101244400D01*
X126034800Y-101244400D01*
X125882400Y-101396800D01*
X125577600Y-101396800D01*
X125425200Y-101244400D01*
X124338743Y-101244400D01*
X124114689Y-101337206D01*
X123943206Y-101508689D01*
X123850400Y-101732743D01*
X122141280Y-101732743D01*
X121894837Y-101363915D01*
X121495180Y-101096873D01*
X121023752Y-101003100D01*
X120276248Y-101003100D01*
X119804820Y-101096873D01*
X119405163Y-101363915D01*
X119138121Y-101763572D01*
X119044348Y-102235000D01*
X119138121Y-102706428D01*
X119405163Y-103106085D01*
X119436234Y-103126846D01*
X119426890Y-103133090D01*
X116346800Y-106213180D01*
X116346800Y-99695000D01*
X119044348Y-99695000D01*
X119138121Y-100166428D01*
X119405163Y-100566085D01*
X119804820Y-100833127D01*
X120276248Y-100926900D01*
X121023752Y-100926900D01*
X121495180Y-100833127D01*
X121894837Y-100566085D01*
X122161879Y-100166428D01*
X122255652Y-99695000D01*
X122161879Y-99223572D01*
X121894837Y-98823915D01*
X121495180Y-98556873D01*
X121023752Y-98463100D01*
X120276248Y-98463100D01*
X119804820Y-98556873D01*
X119405163Y-98823915D01*
X119138121Y-99223572D01*
X119044348Y-99695000D01*
X116346800Y-99695000D01*
X116346800Y-98107214D01*
X117299014Y-97155000D01*
X119044348Y-97155000D01*
X119138121Y-97626428D01*
X119405163Y-98026085D01*
X119804820Y-98293127D01*
X120276248Y-98386900D01*
X121023752Y-98386900D01*
X121495180Y-98293127D01*
X121894837Y-98026085D01*
X122161879Y-97626428D01*
X122255652Y-97155000D01*
X122161879Y-96683572D01*
X121894837Y-96283915D01*
X121495180Y-96016873D01*
X121023752Y-95923100D01*
X120276248Y-95923100D01*
X119804820Y-96016873D01*
X119405163Y-96283915D01*
X119138121Y-96683572D01*
X119044348Y-97155000D01*
X117299014Y-97155000D01*
X118975415Y-95478600D01*
X119339244Y-95478600D01*
X119368247Y-95522006D01*
X119784385Y-95800060D01*
X120275253Y-95897700D01*
X121024747Y-95897700D01*
X121515615Y-95800060D01*
X121931753Y-95522006D01*
X121960756Y-95478600D01*
X121986078Y-95478600D01*
X122071643Y-95606657D01*
X124866400Y-98401415D01*
X124866400Y-98443434D01*
X124460000Y-98443434D01*
X124321252Y-98471033D01*
X124203627Y-98549627D01*
X124125033Y-98667252D01*
X124097434Y-98806000D01*
X124097434Y-100076000D01*
X124125033Y-100214748D01*
X124203627Y-100332373D01*
X124321252Y-100410967D01*
X124460000Y-100438566D01*
X127000000Y-100438566D01*
X127138748Y-100410967D01*
X127256373Y-100332373D01*
X127334967Y-100214748D01*
X127362566Y-100076000D01*
X127362566Y-98806000D01*
X127334967Y-98667252D01*
X127256373Y-98549627D01*
X127138748Y-98471033D01*
X127000000Y-98443434D01*
X126593600Y-98443434D01*
X126593600Y-98043700D01*
X126527862Y-97713215D01*
X126340658Y-97433043D01*
X123545900Y-94638286D01*
X123545900Y-94615000D01*
X123480162Y-94284515D01*
X123292957Y-94004343D01*
X123012785Y-93817138D01*
X122682300Y-93751400D01*
X121960756Y-93751400D01*
X121931753Y-93707994D01*
X121515615Y-93429940D01*
X121024747Y-93332300D01*
X120275253Y-93332300D01*
X119784385Y-93429940D01*
X119368247Y-93707994D01*
X119339244Y-93751400D01*
X118617700Y-93751400D01*
X118342045Y-93806231D01*
X118287214Y-93817138D01*
X118007042Y-94004343D01*
X114872543Y-97138843D01*
X114685338Y-97419015D01*
X114619600Y-97749500D01*
X114619600Y-107984685D01*
X114274600Y-108329686D01*
X114274600Y-108178598D01*
X114122202Y-108178598D01*
X114274600Y-108026200D01*
X114274600Y-107574743D01*
X114181794Y-107350689D01*
X114010311Y-107179206D01*
X113786257Y-107086400D01*
X112699800Y-107086400D01*
X112547400Y-107238800D01*
X112547400Y-108178600D01*
X112567400Y-108178600D01*
X112567400Y-108483400D01*
X112547400Y-108483400D01*
X112547400Y-108503400D01*
X112242600Y-108503400D01*
X112242600Y-108483400D01*
X110667800Y-108483400D01*
X110515400Y-108635800D01*
X108855131Y-108635800D01*
X108855131Y-107990640D01*
X108831475Y-107871713D01*
X108773000Y-107784200D01*
X108773000Y-107574743D01*
X110515400Y-107574743D01*
X110515400Y-108026200D01*
X110667800Y-108178600D01*
X112242600Y-108178600D01*
X112242600Y-107238800D01*
X112090200Y-107086400D01*
X111003743Y-107086400D01*
X110779689Y-107179206D01*
X110608206Y-107350689D01*
X110515400Y-107574743D01*
X108773000Y-107574743D01*
X108773000Y-103071920D01*
X129214468Y-82630452D01*
X130945074Y-82630452D01*
X131080415Y-82915088D01*
X131782225Y-83173149D01*
X132529368Y-83142995D01*
X133079585Y-82915088D01*
X133214926Y-82630452D01*
X132080000Y-81495526D01*
X130945074Y-82630452D01*
X129214468Y-82630452D01*
X130213069Y-81631851D01*
X130217005Y-81729368D01*
X130444912Y-82279585D01*
X130729548Y-82414926D01*
X131864474Y-81280000D01*
X131850332Y-81265858D01*
X132065858Y-81050332D01*
X132080000Y-81064474D01*
X132094143Y-81050332D01*
X132309669Y-81265858D01*
X132295526Y-81280000D01*
X133430452Y-82414926D01*
X133715088Y-82279585D01*
X133973149Y-81577775D01*
X133942995Y-80830632D01*
X133715088Y-80280415D01*
X133546598Y-80200300D01*
X136631880Y-80200300D01*
X137014348Y-80582768D01*
X136855474Y-80965379D01*
X136854927Y-81591873D01*
X137094171Y-82170887D01*
X137536783Y-82614272D01*
X138115379Y-82854526D01*
X138367334Y-82854746D01*
X134100080Y-87122000D01*
X133574035Y-87122000D01*
X133415829Y-86739113D01*
X132973217Y-86295728D01*
X132394621Y-86055474D01*
X131768127Y-86054927D01*
X131189113Y-86294171D01*
X130745728Y-86736783D01*
X130505474Y-87315379D01*
X130504927Y-87941873D01*
X130744171Y-88520887D01*
X131186783Y-88964272D01*
X131765379Y-89204526D01*
X132391873Y-89205073D01*
X132970887Y-88965829D01*
X133414272Y-88523217D01*
X133574228Y-88138000D01*
X134310500Y-88138000D01*
X134504903Y-88099331D01*
X134669710Y-87989210D01*
X140407910Y-82251010D01*
X140518031Y-82086204D01*
X140524446Y-82053950D01*
X140556700Y-81891800D01*
X140556700Y-80630300D01*
X140518031Y-80435897D01*
X140465905Y-80357885D01*
X140407910Y-80271089D01*
X138961510Y-78824690D01*
X138796703Y-78714569D01*
X138602300Y-78675900D01*
X125907921Y-78675900D01*
X129145821Y-75438000D01*
X130585965Y-75438000D01*
X130744171Y-75820887D01*
X131186783Y-76264272D01*
X131765379Y-76504526D01*
X132391873Y-76505073D01*
X132970887Y-76265829D01*
X133414272Y-75823217D01*
X133654526Y-75244621D01*
X133655073Y-74618127D01*
X133415829Y-74039113D01*
X132973217Y-73595728D01*
X132394621Y-73355474D01*
X131768127Y-73354927D01*
X131189113Y-73594171D01*
X130745728Y-74036783D01*
X130585772Y-74422000D01*
X128935400Y-74422000D01*
X128740997Y-74460669D01*
X128576190Y-74570789D01*
X95845790Y-107301190D01*
X95735669Y-107465997D01*
X95697000Y-107660400D01*
X95697000Y-107784200D01*
X95638525Y-107871713D01*
X95614869Y-107990640D01*
X93954600Y-107990640D01*
X93954600Y-107574743D01*
X93861794Y-107350689D01*
X93690311Y-107179206D01*
X93466257Y-107086400D01*
X92379800Y-107086400D01*
X92227400Y-107238800D01*
X91922600Y-107238800D01*
X91770200Y-107086400D01*
X90683743Y-107086400D01*
X90459689Y-107179206D01*
X90288206Y-107350689D01*
X90195400Y-107574743D01*
X87720608Y-107574743D01*
X87619711Y-107473846D01*
X87395657Y-107381040D01*
X87287100Y-107381040D01*
X87134700Y-107533440D01*
X87134700Y-108503720D01*
X87167400Y-108503720D01*
X87167400Y-108808520D01*
X87134700Y-108808520D01*
X87134700Y-109778800D01*
X87287100Y-109931200D01*
X87395657Y-109931200D01*
X87468242Y-109901134D01*
X87437000Y-110058200D01*
X87437000Y-110130467D01*
X87393327Y-110101285D01*
X87274400Y-110077629D01*
X86715600Y-110077629D01*
X86596673Y-110101285D01*
X86520020Y-110152503D01*
X86443367Y-110101285D01*
X86335409Y-110079811D01*
X86404210Y-110011010D01*
X86487193Y-109886817D01*
X86594343Y-109931200D01*
X86702900Y-109931200D01*
X86855300Y-109778800D01*
X86855300Y-108808520D01*
X86822600Y-108808520D01*
X86822600Y-108503720D01*
X86855300Y-108503720D01*
X86855300Y-107533440D01*
X86702900Y-107381040D01*
X86594343Y-107381040D01*
X86370289Y-107473846D01*
X86198806Y-107645329D01*
X86184499Y-107679869D01*
X85765640Y-107679869D01*
X85646713Y-107703525D01*
X85545892Y-107770892D01*
X85478525Y-107871713D01*
X85454869Y-107990640D01*
X85454869Y-109321600D01*
X85478525Y-109440527D01*
X85502289Y-109476091D01*
X85076090Y-109902290D01*
X84965969Y-110067097D01*
X84927300Y-110261500D01*
X81914915Y-110261500D01*
X81229014Y-109575600D01*
X81610200Y-109575600D01*
X81762600Y-109423200D01*
X81762600Y-108483400D01*
X82067400Y-108483400D01*
X82067400Y-109423200D01*
X82219800Y-109575600D01*
X83306257Y-109575600D01*
X83530311Y-109482794D01*
X83701794Y-109311311D01*
X83794600Y-109087257D01*
X83794600Y-108635800D01*
X83642200Y-108483400D01*
X82067400Y-108483400D01*
X81762600Y-108483400D01*
X81742600Y-108483400D01*
X81742600Y-108178600D01*
X81762600Y-108178600D01*
X81762600Y-107238800D01*
X82067400Y-107238800D01*
X82067400Y-108178600D01*
X83642200Y-108178600D01*
X83794600Y-108026200D01*
X83794600Y-107574743D01*
X83701794Y-107350689D01*
X83530311Y-107179206D01*
X83306257Y-107086400D01*
X82219800Y-107086400D01*
X82067400Y-107238800D01*
X81762600Y-107238800D01*
X81610200Y-107086400D01*
X80746200Y-107086400D01*
X80746200Y-105897722D01*
X80762862Y-105872786D01*
X80786520Y-105753848D01*
X80828600Y-105542300D01*
X80828600Y-105142566D01*
X81350000Y-105142566D01*
X81488748Y-105114967D01*
X81606373Y-105036373D01*
X81684967Y-104918748D01*
X81712566Y-104780000D01*
X81712566Y-103997349D01*
X81900115Y-103809800D01*
X84410400Y-103809800D01*
X84410400Y-104901257D01*
X84503206Y-105125311D01*
X84674689Y-105296794D01*
X84898743Y-105389600D01*
X86100200Y-105389600D01*
X86252600Y-105237200D01*
X86252600Y-103657400D01*
X86557400Y-103657400D01*
X86557400Y-105237200D01*
X86709800Y-105389600D01*
X87911257Y-105389600D01*
X88135311Y-105296794D01*
X88306794Y-105125311D01*
X88399600Y-104901257D01*
X88399600Y-103809800D01*
X88247200Y-103657400D01*
X86557400Y-103657400D01*
X86252600Y-103657400D01*
X84562800Y-103657400D01*
X84410400Y-103809800D01*
X81900115Y-103809800D01*
X82271657Y-103438258D01*
X82458862Y-103158086D01*
X82493430Y-102984300D01*
X82524600Y-102827600D01*
X82524600Y-102108743D01*
X84410400Y-102108743D01*
X84410400Y-103200200D01*
X84562800Y-103352600D01*
X86252600Y-103352600D01*
X86252600Y-101772800D01*
X86557400Y-101772800D01*
X86557400Y-103352600D01*
X88247200Y-103352600D01*
X88399600Y-103200200D01*
X88399600Y-102108743D01*
X88306794Y-101884689D01*
X88135311Y-101713206D01*
X87911257Y-101620400D01*
X86709800Y-101620400D01*
X86557400Y-101772800D01*
X86252600Y-101772800D01*
X86100200Y-101620400D01*
X84898743Y-101620400D01*
X84674689Y-101713206D01*
X84503206Y-101884689D01*
X84410400Y-102108743D01*
X82524600Y-102108743D01*
X82524600Y-97429930D01*
X82552373Y-97411373D01*
X82630967Y-97293748D01*
X82658566Y-97155000D01*
X82658566Y-96189800D01*
X83464400Y-96189800D01*
X83464400Y-97276257D01*
X83557206Y-97500311D01*
X83728689Y-97671794D01*
X83952743Y-97764600D01*
X84404200Y-97764600D01*
X84556600Y-97612200D01*
X84556600Y-96037400D01*
X84861400Y-96037400D01*
X84861400Y-97612200D01*
X85013800Y-97764600D01*
X85465257Y-97764600D01*
X85689311Y-97671794D01*
X85860794Y-97500311D01*
X85953600Y-97276257D01*
X85953600Y-96189800D01*
X85801200Y-96037400D01*
X84861400Y-96037400D01*
X84556600Y-96037400D01*
X83616800Y-96037400D01*
X83464400Y-96189800D01*
X82658566Y-96189800D01*
X82658566Y-94615000D01*
X82634447Y-94493743D01*
X83464400Y-94493743D01*
X83464400Y-95580200D01*
X83616800Y-95732600D01*
X84556600Y-95732600D01*
X84556600Y-94157800D01*
X84861400Y-94157800D01*
X84861400Y-95732600D01*
X85801200Y-95732600D01*
X85953600Y-95580200D01*
X85953600Y-94493743D01*
X85860794Y-94269689D01*
X85689311Y-94098206D01*
X85465257Y-94005400D01*
X85013800Y-94005400D01*
X84861400Y-94157800D01*
X84556600Y-94157800D01*
X84404200Y-94005400D01*
X83952743Y-94005400D01*
X83728689Y-94098206D01*
X83557206Y-94269689D01*
X83464400Y-94493743D01*
X82634447Y-94493743D01*
X82630967Y-94476252D01*
X82552373Y-94358627D01*
X82434748Y-94280033D01*
X82296000Y-94252434D01*
X81026000Y-94252434D01*
X80887252Y-94280033D01*
X80769627Y-94358627D01*
X80691033Y-94476252D01*
X80663434Y-94615000D01*
X80663434Y-97155000D01*
X80691033Y-97293748D01*
X80769627Y-97411373D01*
X80797400Y-97429930D01*
X80797400Y-101867434D01*
X78580000Y-101867434D01*
X78441252Y-101895033D01*
X78323627Y-101973627D01*
X78245033Y-102091252D01*
X78217434Y-102230000D01*
X78217434Y-104780000D01*
X78245033Y-104918748D01*
X78323627Y-105036373D01*
X78441252Y-105114967D01*
X78580000Y-105142566D01*
X79101400Y-105142566D01*
X79101400Y-105269279D01*
X79084738Y-105294215D01*
X79019000Y-105624700D01*
X79019000Y-109450500D01*
X79062047Y-109666911D01*
X79084738Y-109780985D01*
X79271943Y-110061157D01*
X80282434Y-111071648D01*
X80282434Y-112014000D01*
X80310033Y-112152748D01*
X80388627Y-112270373D01*
X80506252Y-112348967D01*
X80645000Y-112376566D01*
X81051400Y-112376566D01*
X81051400Y-112418586D01*
X78890886Y-114579100D01*
X78740000Y-114579100D01*
X78409515Y-114644838D01*
X78129343Y-114832043D01*
X77942138Y-115112215D01*
X77876400Y-115442700D01*
X77876400Y-116164244D01*
X77832994Y-116193247D01*
X77554940Y-116609385D01*
X77457300Y-117100253D01*
X77431703Y-117100253D01*
X77338127Y-116629820D01*
X77071085Y-116230163D01*
X76671428Y-115963121D01*
X76200000Y-115869348D01*
X75728572Y-115963121D01*
X75328915Y-116230163D01*
X75061873Y-116629820D01*
X74968100Y-117101248D01*
X74079100Y-117101248D01*
X74079100Y-112807477D01*
X75386840Y-112807477D01*
X75703259Y-113573270D01*
X76288648Y-114159682D01*
X77053888Y-114477437D01*
X77882477Y-114478160D01*
X78648270Y-114161741D01*
X79234682Y-113576352D01*
X79552437Y-112811112D01*
X79553160Y-111982523D01*
X79236741Y-111216730D01*
X78651352Y-110630318D01*
X77886112Y-110312563D01*
X77057523Y-110311840D01*
X76291730Y-110628259D01*
X75705318Y-111213648D01*
X75387563Y-111978888D01*
X75386840Y-112807477D01*
X74079100Y-112807477D01*
X74079100Y-87407477D01*
X75386840Y-87407477D01*
X75703259Y-88173270D01*
X76288648Y-88759682D01*
X77053888Y-89077437D01*
X77882477Y-89078160D01*
X78648270Y-88761741D01*
X79234682Y-88176352D01*
X79552437Y-87411112D01*
X79553160Y-86582523D01*
X79236741Y-85816730D01*
X78651352Y-85230318D01*
X77886112Y-84912563D01*
X77057523Y-84911840D01*
X76291730Y-85228259D01*
X75705318Y-85813648D01*
X75387563Y-86578888D01*
X75386840Y-87407477D01*
X74079100Y-87407477D01*
X74079100Y-80645000D01*
X74962129Y-80645000D01*
X74962129Y-83185000D01*
X74985785Y-83303927D01*
X75053152Y-83404748D01*
X75153973Y-83472115D01*
X75272900Y-83495771D01*
X77127100Y-83495771D01*
X77246027Y-83472115D01*
X77346848Y-83404748D01*
X77414215Y-83303927D01*
X77437871Y-83185000D01*
X77437871Y-83058898D01*
X77761152Y-83452274D01*
X78292730Y-83735947D01*
X78350269Y-83744357D01*
X78587600Y-83633785D01*
X78587600Y-82067400D01*
X78567600Y-82067400D01*
X78567600Y-81762600D01*
X78587600Y-81762600D01*
X78587600Y-80196215D01*
X78892400Y-80196215D01*
X78892400Y-81762600D01*
X78912400Y-81762600D01*
X78912400Y-82067400D01*
X78892400Y-82067400D01*
X78892400Y-83633785D01*
X79129731Y-83744357D01*
X79187270Y-83735947D01*
X79718848Y-83452274D01*
X80101405Y-82986769D01*
X80161414Y-82789425D01*
X80408915Y-83159837D01*
X80808572Y-83426879D01*
X81280000Y-83520652D01*
X81751428Y-83426879D01*
X82151085Y-83159837D01*
X82418127Y-82760180D01*
X82511900Y-82288752D01*
X82511900Y-81541248D01*
X82588100Y-81541248D01*
X82588100Y-82288752D01*
X82681873Y-82760180D01*
X82948915Y-83159837D01*
X83348572Y-83426879D01*
X83820000Y-83520652D01*
X84291428Y-83426879D01*
X84691085Y-83159837D01*
X84958127Y-82760180D01*
X85051900Y-82288752D01*
X85051900Y-81541248D01*
X85128100Y-81541248D01*
X85128100Y-82288752D01*
X85221873Y-82760180D01*
X85488915Y-83159837D01*
X85888572Y-83426879D01*
X86360000Y-83520652D01*
X86831428Y-83426879D01*
X87231085Y-83159837D01*
X87498127Y-82760180D01*
X87565196Y-82423000D01*
X87617300Y-82423000D01*
X87691854Y-82408170D01*
X87761873Y-82760180D01*
X88028915Y-83159837D01*
X88428572Y-83426879D01*
X88900000Y-83520652D01*
X89371428Y-83426879D01*
X89771085Y-83159837D01*
X90038127Y-82760180D01*
X90131900Y-82288752D01*
X90131900Y-81541248D01*
X90208100Y-81541248D01*
X90208100Y-82288752D01*
X90301873Y-82760180D01*
X90568915Y-83159837D01*
X90968572Y-83426879D01*
X91440000Y-83520652D01*
X91911428Y-83426879D01*
X92311085Y-83159837D01*
X92578127Y-82760180D01*
X92671900Y-82288752D01*
X92671900Y-81541248D01*
X92748100Y-81541248D01*
X92748100Y-82288752D01*
X92841873Y-82760180D01*
X93108915Y-83159837D01*
X93508572Y-83426879D01*
X93980000Y-83520652D01*
X94451428Y-83426879D01*
X94851085Y-83159837D01*
X95118127Y-82760180D01*
X95211900Y-82288752D01*
X95211900Y-81541248D01*
X95288100Y-81541248D01*
X95288100Y-82288752D01*
X95381873Y-82760180D01*
X95648915Y-83159837D01*
X96048572Y-83426879D01*
X96520000Y-83520652D01*
X96991428Y-83426879D01*
X97391085Y-83159837D01*
X97658127Y-82760180D01*
X97751900Y-82288752D01*
X97751900Y-81541248D01*
X97828100Y-81541248D01*
X97828100Y-82288752D01*
X97921873Y-82760180D01*
X98188915Y-83159837D01*
X98588572Y-83426879D01*
X99060000Y-83520652D01*
X99531428Y-83426879D01*
X99931085Y-83159837D01*
X100198127Y-82760180D01*
X100291900Y-82288752D01*
X100291900Y-81541248D01*
X100198127Y-81069820D01*
X99931085Y-80670163D01*
X99531428Y-80403121D01*
X99060000Y-80309348D01*
X98588572Y-80403121D01*
X98188915Y-80670163D01*
X97921873Y-81069820D01*
X97828100Y-81541248D01*
X97751900Y-81541248D01*
X97658127Y-81069820D01*
X97391085Y-80670163D01*
X96991428Y-80403121D01*
X96520000Y-80309348D01*
X96048572Y-80403121D01*
X95648915Y-80670163D01*
X95381873Y-81069820D01*
X95288100Y-81541248D01*
X95211900Y-81541248D01*
X95118127Y-81069820D01*
X94851085Y-80670163D01*
X94451428Y-80403121D01*
X93980000Y-80309348D01*
X93508572Y-80403121D01*
X93108915Y-80670163D01*
X92841873Y-81069820D01*
X92748100Y-81541248D01*
X92671900Y-81541248D01*
X92578127Y-81069820D01*
X92311085Y-80670163D01*
X91911428Y-80403121D01*
X91440000Y-80309348D01*
X90968572Y-80403121D01*
X90568915Y-80670163D01*
X90301873Y-81069820D01*
X90208100Y-81541248D01*
X90131900Y-81541248D01*
X90038127Y-81069820D01*
X89771085Y-80670163D01*
X89371428Y-80403121D01*
X88900000Y-80309348D01*
X88428572Y-80403121D01*
X88125300Y-80605761D01*
X88125300Y-77093120D01*
X89906910Y-75311510D01*
X90017031Y-75146703D01*
X90043601Y-75013127D01*
X90333572Y-75206879D01*
X90805000Y-75300652D01*
X91276428Y-75206879D01*
X91676085Y-74939837D01*
X91943127Y-74540180D01*
X92036900Y-74068752D01*
X92036900Y-73321248D01*
X92113100Y-73321248D01*
X92113100Y-74068752D01*
X92206873Y-74540180D01*
X92473915Y-74939837D01*
X92873572Y-75206879D01*
X93345000Y-75300652D01*
X93816428Y-75206879D01*
X94216085Y-74939837D01*
X94483127Y-74540180D01*
X94576900Y-74068752D01*
X94576900Y-73321248D01*
X94653100Y-73321248D01*
X94653100Y-74068752D01*
X94746873Y-74540180D01*
X95013915Y-74939837D01*
X95413572Y-75206879D01*
X95885000Y-75300652D01*
X96356428Y-75206879D01*
X96652544Y-75009021D01*
X96672969Y-75111703D01*
X96783090Y-75276510D01*
X101869543Y-80362963D01*
X101600000Y-80309348D01*
X101128572Y-80403121D01*
X100728915Y-80670163D01*
X100461873Y-81069820D01*
X100368100Y-81541248D01*
X100368100Y-82288752D01*
X100461873Y-82760180D01*
X100728915Y-83159837D01*
X101128572Y-83426879D01*
X101600000Y-83520652D01*
X102071428Y-83426879D01*
X102471085Y-83159837D01*
X102738127Y-82760180D01*
X102808146Y-82408170D01*
X102882700Y-82423000D01*
X102934804Y-82423000D01*
X103001873Y-82760180D01*
X103268915Y-83159837D01*
X103668572Y-83426879D01*
X104140000Y-83520652D01*
X104611428Y-83426879D01*
X105011085Y-83159837D01*
X105278127Y-82760180D01*
X105371900Y-82288752D01*
X105371900Y-81541248D01*
X105448100Y-81541248D01*
X105448100Y-82288752D01*
X105541873Y-82760180D01*
X105808915Y-83159837D01*
X106208572Y-83426879D01*
X106680000Y-83520652D01*
X107151428Y-83426879D01*
X107551085Y-83159837D01*
X107818127Y-82760180D01*
X107911900Y-82288752D01*
X107911900Y-81541248D01*
X107988100Y-81541248D01*
X107988100Y-82288752D01*
X108081873Y-82760180D01*
X108348915Y-83159837D01*
X108748572Y-83426879D01*
X109220000Y-83520652D01*
X109691428Y-83426879D01*
X110091085Y-83159837D01*
X110358127Y-82760180D01*
X110451900Y-82288752D01*
X110451900Y-81541248D01*
X110528100Y-81541248D01*
X110528100Y-82288752D01*
X110621873Y-82760180D01*
X110888915Y-83159837D01*
X111288572Y-83426879D01*
X111760000Y-83520652D01*
X112231428Y-83426879D01*
X112631085Y-83159837D01*
X112898127Y-82760180D01*
X112991900Y-82288752D01*
X112991900Y-81541248D01*
X113068100Y-81541248D01*
X113068100Y-82288752D01*
X113161873Y-82760180D01*
X113428915Y-83159837D01*
X113828572Y-83426879D01*
X114300000Y-83520652D01*
X114771428Y-83426879D01*
X115171085Y-83159837D01*
X115438127Y-82760180D01*
X115524197Y-82327477D01*
X116026840Y-82327477D01*
X116343259Y-83093270D01*
X116928648Y-83679682D01*
X117693888Y-83997437D01*
X118522477Y-83998160D01*
X119288270Y-83681741D01*
X119874682Y-83096352D01*
X120192437Y-82331112D01*
X120193160Y-81502523D01*
X119876741Y-80736730D01*
X119291352Y-80150318D01*
X118526112Y-79832563D01*
X117697523Y-79831840D01*
X116931730Y-80148259D01*
X116345318Y-80733648D01*
X116027563Y-81498888D01*
X116026840Y-82327477D01*
X115524197Y-82327477D01*
X115531900Y-82288752D01*
X115531900Y-81541248D01*
X115438127Y-81069820D01*
X115171085Y-80670163D01*
X114771428Y-80403121D01*
X114300000Y-80309348D01*
X113828572Y-80403121D01*
X113428915Y-80670163D01*
X113161873Y-81069820D01*
X113068100Y-81541248D01*
X112991900Y-81541248D01*
X112898127Y-81069820D01*
X112631085Y-80670163D01*
X112231428Y-80403121D01*
X111760000Y-80309348D01*
X111288572Y-80403121D01*
X110888915Y-80670163D01*
X110621873Y-81069820D01*
X110528100Y-81541248D01*
X110451900Y-81541248D01*
X110358127Y-81069820D01*
X110091085Y-80670163D01*
X109691428Y-80403121D01*
X109220000Y-80309348D01*
X108748572Y-80403121D01*
X108348915Y-80670163D01*
X108081873Y-81069820D01*
X107988100Y-81541248D01*
X107911900Y-81541248D01*
X107818127Y-81069820D01*
X107551085Y-80670163D01*
X107151428Y-80403121D01*
X106680000Y-80309348D01*
X106208572Y-80403121D01*
X105808915Y-80670163D01*
X105541873Y-81069820D01*
X105448100Y-81541248D01*
X105371900Y-81541248D01*
X105278127Y-81069820D01*
X105011085Y-80670163D01*
X104611428Y-80403121D01*
X104140000Y-80309348D01*
X103668572Y-80403121D01*
X103378601Y-80596873D01*
X103352031Y-80463297D01*
X103300906Y-80386783D01*
X103241911Y-80298490D01*
X98199147Y-75255727D01*
X98425000Y-75300652D01*
X98896428Y-75206879D01*
X99296085Y-74939837D01*
X99563127Y-74540180D01*
X99656900Y-74068752D01*
X99656900Y-73321248D01*
X99733100Y-73321248D01*
X99733100Y-74068752D01*
X99826873Y-74540180D01*
X100093915Y-74939837D01*
X100493572Y-75206879D01*
X100965000Y-75300652D01*
X101436428Y-75206879D01*
X101836085Y-74939837D01*
X102103127Y-74540180D01*
X102196900Y-74068752D01*
X102196900Y-73321248D01*
X102273100Y-73321248D01*
X102273100Y-74068752D01*
X102366873Y-74540180D01*
X102633915Y-74939837D01*
X103033572Y-75206879D01*
X103505000Y-75300652D01*
X103976428Y-75206879D01*
X104376085Y-74939837D01*
X104643127Y-74540180D01*
X104736900Y-74068752D01*
X104736900Y-73321248D01*
X104736703Y-73320253D01*
X104762300Y-73320253D01*
X104762300Y-74069747D01*
X104859940Y-74560615D01*
X105137994Y-74976753D01*
X105181400Y-75005756D01*
X105181400Y-75460986D01*
X105180343Y-75462043D01*
X104993138Y-75742215D01*
X104927400Y-76072700D01*
X104927400Y-76560070D01*
X104899627Y-76578627D01*
X104821033Y-76696252D01*
X104793434Y-76835000D01*
X104793434Y-79375000D01*
X104821033Y-79513748D01*
X104899627Y-79631373D01*
X105017252Y-79709967D01*
X105156000Y-79737566D01*
X106426000Y-79737566D01*
X106564748Y-79709967D01*
X106682373Y-79631373D01*
X106760967Y-79513748D01*
X106788566Y-79375000D01*
X106788566Y-78409800D01*
X107594400Y-78409800D01*
X107594400Y-79496257D01*
X107687206Y-79720311D01*
X107858689Y-79891794D01*
X108082743Y-79984600D01*
X108534200Y-79984600D01*
X108686600Y-79832200D01*
X108686600Y-78257400D01*
X108991400Y-78257400D01*
X108991400Y-79832200D01*
X109143800Y-79984600D01*
X109595257Y-79984600D01*
X109819311Y-79891794D01*
X109990794Y-79720311D01*
X110083600Y-79496257D01*
X110083600Y-78409800D01*
X109931200Y-78257400D01*
X108991400Y-78257400D01*
X108686600Y-78257400D01*
X107746800Y-78257400D01*
X107594400Y-78409800D01*
X106788566Y-78409800D01*
X106788566Y-76835000D01*
X106764447Y-76713743D01*
X107594400Y-76713743D01*
X107594400Y-77800200D01*
X107746800Y-77952600D01*
X108686600Y-77952600D01*
X108686600Y-76377800D01*
X108991400Y-76377800D01*
X108991400Y-77952600D01*
X109931200Y-77952600D01*
X110083600Y-77800200D01*
X110083600Y-76713743D01*
X109990794Y-76489689D01*
X109819311Y-76318206D01*
X109595257Y-76225400D01*
X109143800Y-76225400D01*
X108991400Y-76377800D01*
X108686600Y-76377800D01*
X108534200Y-76225400D01*
X108082743Y-76225400D01*
X107858689Y-76318206D01*
X107687206Y-76489689D01*
X107594400Y-76713743D01*
X106764447Y-76713743D01*
X106760967Y-76696252D01*
X106682373Y-76578627D01*
X106654600Y-76560070D01*
X106654600Y-76430415D01*
X106655657Y-76429358D01*
X106842862Y-76149186D01*
X106858076Y-76072700D01*
X106908600Y-75818700D01*
X106908600Y-75005756D01*
X106952006Y-74976753D01*
X107182535Y-74631741D01*
X107223595Y-74766769D01*
X107606152Y-75232274D01*
X108137730Y-75515947D01*
X108195269Y-75524357D01*
X108432600Y-75413785D01*
X108432600Y-73847400D01*
X108737400Y-73847400D01*
X108737400Y-75413785D01*
X108974731Y-75524357D01*
X109032270Y-75515947D01*
X109563848Y-75232274D01*
X109946405Y-74766769D01*
X110121700Y-74190300D01*
X110121700Y-73847400D01*
X108737400Y-73847400D01*
X108432600Y-73847400D01*
X108412600Y-73847400D01*
X108412600Y-73801932D01*
X113379844Y-73801932D01*
X113692010Y-74557430D01*
X114269530Y-75135959D01*
X115024482Y-75449443D01*
X115841932Y-75450156D01*
X116597430Y-75137990D01*
X117175959Y-74560470D01*
X117489443Y-73805518D01*
X117490156Y-72988068D01*
X117177990Y-72232570D01*
X116600470Y-71654041D01*
X115845518Y-71340557D01*
X115028068Y-71339844D01*
X114272570Y-71652010D01*
X113694041Y-72229530D01*
X113380557Y-72984482D01*
X113379844Y-73801932D01*
X108412600Y-73801932D01*
X108412600Y-73542600D01*
X108432600Y-73542600D01*
X108432600Y-71976215D01*
X108737400Y-71976215D01*
X108737400Y-73542600D01*
X110121700Y-73542600D01*
X110121700Y-73199700D01*
X109946405Y-72623231D01*
X109563848Y-72157726D01*
X109032270Y-71874053D01*
X108974731Y-71865643D01*
X108737400Y-71976215D01*
X108432600Y-71976215D01*
X108195269Y-71865643D01*
X108137730Y-71874053D01*
X107606152Y-72157726D01*
X107223595Y-72623231D01*
X107182535Y-72758259D01*
X106952006Y-72413247D01*
X106535868Y-72135193D01*
X106045000Y-72037553D01*
X105554132Y-72135193D01*
X105137994Y-72413247D01*
X104859940Y-72829385D01*
X104762300Y-73320253D01*
X104736703Y-73320253D01*
X104643127Y-72849820D01*
X104376085Y-72450163D01*
X103976428Y-72183121D01*
X103505000Y-72089348D01*
X103033572Y-72183121D01*
X102633915Y-72450163D01*
X102366873Y-72849820D01*
X102273100Y-73321248D01*
X102196900Y-73321248D01*
X102103127Y-72849820D01*
X101836085Y-72450163D01*
X101436428Y-72183121D01*
X100965000Y-72089348D01*
X100493572Y-72183121D01*
X100093915Y-72450163D01*
X99826873Y-72849820D01*
X99733100Y-73321248D01*
X99656900Y-73321248D01*
X99563127Y-72849820D01*
X99296085Y-72450163D01*
X98896428Y-72183121D01*
X98425000Y-72089348D01*
X97953572Y-72183121D01*
X97553915Y-72450163D01*
X97286873Y-72849820D01*
X97216854Y-73201830D01*
X97142300Y-73187000D01*
X97090196Y-73187000D01*
X97023127Y-72849820D01*
X96756085Y-72450163D01*
X96356428Y-72183121D01*
X95885000Y-72089348D01*
X95413572Y-72183121D01*
X95013915Y-72450163D01*
X94746873Y-72849820D01*
X94653100Y-73321248D01*
X94576900Y-73321248D01*
X94483127Y-72849820D01*
X94216085Y-72450163D01*
X93816428Y-72183121D01*
X93345000Y-72089348D01*
X92873572Y-72183121D01*
X92473915Y-72450163D01*
X92206873Y-72849820D01*
X92113100Y-73321248D01*
X92036900Y-73321248D01*
X91943127Y-72849820D01*
X91676085Y-72450163D01*
X91276428Y-72183121D01*
X90805000Y-72089348D01*
X90333572Y-72183121D01*
X89933915Y-72450163D01*
X89666873Y-72849820D01*
X89599804Y-73187000D01*
X89547700Y-73187000D01*
X89473146Y-73201830D01*
X89403127Y-72849820D01*
X89136085Y-72450163D01*
X88736428Y-72183121D01*
X88265000Y-72089348D01*
X87793572Y-72183121D01*
X87393915Y-72450163D01*
X87126873Y-72849820D01*
X87033100Y-73321248D01*
X87033100Y-74068752D01*
X87126873Y-74540180D01*
X87393915Y-74939837D01*
X87793572Y-75206879D01*
X88265000Y-75300652D01*
X88534544Y-75247036D01*
X87258090Y-76523490D01*
X87147969Y-76688297D01*
X87109300Y-76882700D01*
X87109300Y-80588789D01*
X86831428Y-80403121D01*
X86360000Y-80309348D01*
X85888572Y-80403121D01*
X85488915Y-80670163D01*
X85221873Y-81069820D01*
X85128100Y-81541248D01*
X85051900Y-81541248D01*
X84958127Y-81069820D01*
X84691085Y-80670163D01*
X84291428Y-80403121D01*
X83820000Y-80309348D01*
X83348572Y-80403121D01*
X82948915Y-80670163D01*
X82681873Y-81069820D01*
X82588100Y-81541248D01*
X82511900Y-81541248D01*
X82418127Y-81069820D01*
X82151085Y-80670163D01*
X81751428Y-80403121D01*
X81280000Y-80309348D01*
X80808572Y-80403121D01*
X80408915Y-80670163D01*
X80161414Y-81040575D01*
X80101405Y-80843231D01*
X79718848Y-80377726D01*
X79187270Y-80094053D01*
X79129731Y-80085643D01*
X78892400Y-80196215D01*
X78587600Y-80196215D01*
X78350269Y-80085643D01*
X78292730Y-80094053D01*
X77761152Y-80377726D01*
X77437871Y-80771102D01*
X77437871Y-80645000D01*
X77414215Y-80526073D01*
X77346848Y-80425252D01*
X77246027Y-80357885D01*
X77127100Y-80334229D01*
X75272900Y-80334229D01*
X75153973Y-80357885D01*
X75053152Y-80425252D01*
X74985785Y-80526073D01*
X74962129Y-80645000D01*
X74079100Y-80645000D01*
X74079100Y-73801932D01*
X74279844Y-73801932D01*
X74592010Y-74557430D01*
X75169530Y-75135959D01*
X75924482Y-75449443D01*
X76741932Y-75450156D01*
X77497430Y-75137990D01*
X78075959Y-74560470D01*
X78389443Y-73805518D01*
X78390156Y-72988068D01*
X78157501Y-72425000D01*
X81947129Y-72425000D01*
X81947129Y-74965000D01*
X81970785Y-75083927D01*
X82038152Y-75184748D01*
X82138973Y-75252115D01*
X82257900Y-75275771D01*
X84112100Y-75275771D01*
X84231027Y-75252115D01*
X84331848Y-75184748D01*
X84399215Y-75083927D01*
X84422871Y-74965000D01*
X84422871Y-73321248D01*
X84493100Y-73321248D01*
X84493100Y-74068752D01*
X84586873Y-74540180D01*
X84853915Y-74939837D01*
X85253572Y-75206879D01*
X85725000Y-75300652D01*
X86196428Y-75206879D01*
X86596085Y-74939837D01*
X86863127Y-74540180D01*
X86956900Y-74068752D01*
X86956900Y-73321248D01*
X86863127Y-72849820D01*
X86596085Y-72450163D01*
X86196428Y-72183121D01*
X85725000Y-72089348D01*
X85253572Y-72183121D01*
X84853915Y-72450163D01*
X84586873Y-72849820D01*
X84493100Y-73321248D01*
X84422871Y-73321248D01*
X84422871Y-72425000D01*
X84399215Y-72306073D01*
X84331848Y-72205252D01*
X84231027Y-72137885D01*
X84112100Y-72114229D01*
X82257900Y-72114229D01*
X82138973Y-72137885D01*
X82038152Y-72205252D01*
X81970785Y-72306073D01*
X81947129Y-72425000D01*
X78157501Y-72425000D01*
X78077990Y-72232570D01*
X77500470Y-71654041D01*
X76745518Y-71340557D01*
X75928068Y-71339844D01*
X75172570Y-71652010D01*
X74594041Y-72229530D01*
X74280557Y-72984482D01*
X74279844Y-73801932D01*
X74079100Y-73801932D01*
X74079100Y-70904100D01*
X143090900Y-70904100D01*
X143090900Y-128485900D01*
M02*
