G04 #@! TF.FileFunction,Legend,Top*
%FSLAX46Y46*%
G04 Gerber Fmt 4.6, Leading zero omitted, Abs format (unit mm)*
G04 Created by KiCad (PCBNEW 4.1.0-alpha+201608211231+7083~46~ubuntu16.04.1-product) date Fri Aug 26 15:46:51 2016*
%MOMM*%
%LPD*%
G01*
G04 APERTURE LIST*
%ADD10C,0.100000*%
%ADD11C,0.254000*%
%ADD12C,0.228600*%
%ADD13C,0.381000*%
%ADD14R,2.940000X2.254200*%
%ADD15O,2.940000X2.254200*%
%ADD16C,2.940000*%
%ADD17O,2.254200X2.940000*%
%ADD18R,2.254200X2.940000*%
%ADD19C,3.956000*%
%ADD20R,1.990040X3.067000*%
%ADD21C,3.900000*%
G04 APERTURE END LIST*
D10*
D11*
X129267857Y-113338428D02*
X129316238Y-113386809D01*
X129364619Y-113531952D01*
X129364619Y-113628714D01*
X129316238Y-113773857D01*
X129219476Y-113870619D01*
X129122714Y-113919000D01*
X128929190Y-113967380D01*
X128784047Y-113967380D01*
X128590523Y-113919000D01*
X128493761Y-113870619D01*
X128397000Y-113773857D01*
X128348619Y-113628714D01*
X128348619Y-113531952D01*
X128397000Y-113386809D01*
X128445380Y-113338428D01*
X129074333Y-112951380D02*
X129074333Y-112467571D01*
X129364619Y-113048142D02*
X128348619Y-112709476D01*
X129364619Y-112370809D01*
X129364619Y-111548333D02*
X129364619Y-112032142D01*
X128348619Y-112032142D01*
X129364619Y-110725857D02*
X129364619Y-111209666D01*
X128348619Y-111209666D01*
D12*
X143510000Y-70485000D02*
X73660000Y-70485000D01*
X143510000Y-128905000D02*
X143510000Y-70485000D01*
X73660000Y-128905000D02*
X143510000Y-128905000D01*
X73660000Y-70485000D02*
X73660000Y-128905000D01*
D11*
X78467857Y-128094619D02*
X78467857Y-127078619D01*
X78903285Y-128094619D02*
X78903285Y-127562428D01*
X78854904Y-127465666D01*
X78758142Y-127417285D01*
X78613000Y-127417285D01*
X78516238Y-127465666D01*
X78467857Y-127514047D01*
X79241952Y-127417285D02*
X79629000Y-127417285D01*
X79387095Y-127078619D02*
X79387095Y-127949476D01*
X79435476Y-128046238D01*
X79532238Y-128094619D01*
X79629000Y-128094619D01*
X79822523Y-127417285D02*
X80209571Y-127417285D01*
X79967666Y-127078619D02*
X79967666Y-127949476D01*
X80016047Y-128046238D01*
X80112809Y-128094619D01*
X80209571Y-128094619D01*
X80548238Y-127417285D02*
X80548238Y-128433285D01*
X80548238Y-127465666D02*
X80645000Y-127417285D01*
X80838523Y-127417285D01*
X80935285Y-127465666D01*
X80983666Y-127514047D01*
X81032047Y-127610809D01*
X81032047Y-127901095D01*
X80983666Y-127997857D01*
X80935285Y-128046238D01*
X80838523Y-128094619D01*
X80645000Y-128094619D01*
X80548238Y-128046238D01*
X81419095Y-128046238D02*
X81515857Y-128094619D01*
X81709380Y-128094619D01*
X81806142Y-128046238D01*
X81854523Y-127949476D01*
X81854523Y-127901095D01*
X81806142Y-127804333D01*
X81709380Y-127755952D01*
X81564238Y-127755952D01*
X81467476Y-127707571D01*
X81419095Y-127610809D01*
X81419095Y-127562428D01*
X81467476Y-127465666D01*
X81564238Y-127417285D01*
X81709380Y-127417285D01*
X81806142Y-127465666D01*
X82289952Y-127997857D02*
X82338333Y-128046238D01*
X82289952Y-128094619D01*
X82241571Y-128046238D01*
X82289952Y-127997857D01*
X82289952Y-128094619D01*
X82289952Y-127465666D02*
X82338333Y-127514047D01*
X82289952Y-127562428D01*
X82241571Y-127514047D01*
X82289952Y-127465666D01*
X82289952Y-127562428D01*
X83499476Y-127030238D02*
X82628619Y-128336523D01*
X84563857Y-127030238D02*
X83693000Y-128336523D01*
X85337952Y-127417285D02*
X85337952Y-128239761D01*
X85289571Y-128336523D01*
X85241190Y-128384904D01*
X85144428Y-128433285D01*
X84999285Y-128433285D01*
X84902523Y-128384904D01*
X85337952Y-128046238D02*
X85241190Y-128094619D01*
X85047666Y-128094619D01*
X84950904Y-128046238D01*
X84902523Y-127997857D01*
X84854142Y-127901095D01*
X84854142Y-127610809D01*
X84902523Y-127514047D01*
X84950904Y-127465666D01*
X85047666Y-127417285D01*
X85241190Y-127417285D01*
X85337952Y-127465666D01*
X85821761Y-128094619D02*
X85821761Y-127417285D01*
X85821761Y-127078619D02*
X85773380Y-127127000D01*
X85821761Y-127175380D01*
X85870142Y-127127000D01*
X85821761Y-127078619D01*
X85821761Y-127175380D01*
X86160428Y-127417285D02*
X86547476Y-127417285D01*
X86305571Y-127078619D02*
X86305571Y-127949476D01*
X86353952Y-128046238D01*
X86450714Y-128094619D01*
X86547476Y-128094619D01*
X86886142Y-128094619D02*
X86886142Y-127078619D01*
X87321571Y-128094619D02*
X87321571Y-127562428D01*
X87273190Y-127465666D01*
X87176428Y-127417285D01*
X87031285Y-127417285D01*
X86934523Y-127465666D01*
X86886142Y-127514047D01*
X88240809Y-127417285D02*
X88240809Y-128094619D01*
X87805380Y-127417285D02*
X87805380Y-127949476D01*
X87853761Y-128046238D01*
X87950523Y-128094619D01*
X88095666Y-128094619D01*
X88192428Y-128046238D01*
X88240809Y-127997857D01*
X88724619Y-128094619D02*
X88724619Y-127078619D01*
X88724619Y-127465666D02*
X88821380Y-127417285D01*
X89014904Y-127417285D01*
X89111666Y-127465666D01*
X89160047Y-127514047D01*
X89208428Y-127610809D01*
X89208428Y-127901095D01*
X89160047Y-127997857D01*
X89111666Y-128046238D01*
X89014904Y-128094619D01*
X88821380Y-128094619D01*
X88724619Y-128046238D01*
X89643857Y-127997857D02*
X89692238Y-128046238D01*
X89643857Y-128094619D01*
X89595476Y-128046238D01*
X89643857Y-127997857D01*
X89643857Y-128094619D01*
X90563095Y-128046238D02*
X90466333Y-128094619D01*
X90272809Y-128094619D01*
X90176047Y-128046238D01*
X90127666Y-127997857D01*
X90079285Y-127901095D01*
X90079285Y-127610809D01*
X90127666Y-127514047D01*
X90176047Y-127465666D01*
X90272809Y-127417285D01*
X90466333Y-127417285D01*
X90563095Y-127465666D01*
X91143666Y-128094619D02*
X91046904Y-128046238D01*
X90998523Y-127997857D01*
X90950142Y-127901095D01*
X90950142Y-127610809D01*
X90998523Y-127514047D01*
X91046904Y-127465666D01*
X91143666Y-127417285D01*
X91288809Y-127417285D01*
X91385571Y-127465666D01*
X91433952Y-127514047D01*
X91482333Y-127610809D01*
X91482333Y-127901095D01*
X91433952Y-127997857D01*
X91385571Y-128046238D01*
X91288809Y-128094619D01*
X91143666Y-128094619D01*
X91917761Y-128094619D02*
X91917761Y-127417285D01*
X91917761Y-127514047D02*
X91966142Y-127465666D01*
X92062904Y-127417285D01*
X92208047Y-127417285D01*
X92304809Y-127465666D01*
X92353190Y-127562428D01*
X92353190Y-128094619D01*
X92353190Y-127562428D02*
X92401571Y-127465666D01*
X92498333Y-127417285D01*
X92643476Y-127417285D01*
X92740238Y-127465666D01*
X92788619Y-127562428D01*
X92788619Y-128094619D01*
X93998142Y-127030238D02*
X93127285Y-128336523D01*
X94336809Y-127417285D02*
X94336809Y-128288142D01*
X94288428Y-128384904D01*
X94191666Y-128433285D01*
X94143285Y-128433285D01*
X94336809Y-127078619D02*
X94288428Y-127127000D01*
X94336809Y-127175380D01*
X94385190Y-127127000D01*
X94336809Y-127078619D01*
X94336809Y-127175380D01*
X95256047Y-128094619D02*
X95256047Y-127562428D01*
X95207666Y-127465666D01*
X95110904Y-127417285D01*
X94917380Y-127417285D01*
X94820619Y-127465666D01*
X95256047Y-128046238D02*
X95159285Y-128094619D01*
X94917380Y-128094619D01*
X94820619Y-128046238D01*
X94772238Y-127949476D01*
X94772238Y-127852714D01*
X94820619Y-127755952D01*
X94917380Y-127707571D01*
X95159285Y-127707571D01*
X95256047Y-127659190D01*
X95739857Y-127417285D02*
X95739857Y-128094619D01*
X95739857Y-127514047D02*
X95788238Y-127465666D01*
X95885000Y-127417285D01*
X96030142Y-127417285D01*
X96126904Y-127465666D01*
X96175285Y-127562428D01*
X96175285Y-128094619D01*
X97046142Y-128046238D02*
X96949380Y-128094619D01*
X96755857Y-128094619D01*
X96659095Y-128046238D01*
X96610714Y-127949476D01*
X96610714Y-127562428D01*
X96659095Y-127465666D01*
X96755857Y-127417285D01*
X96949380Y-127417285D01*
X97046142Y-127465666D01*
X97094523Y-127562428D01*
X97094523Y-127659190D01*
X96610714Y-127755952D01*
X97675095Y-128094619D02*
X97578333Y-128046238D01*
X97529952Y-127949476D01*
X97529952Y-127078619D01*
X98062142Y-128094619D02*
X98062142Y-127417285D01*
X98062142Y-127078619D02*
X98013761Y-127127000D01*
X98062142Y-127175380D01*
X98110523Y-127127000D01*
X98062142Y-127078619D01*
X98062142Y-127175380D01*
X98981380Y-128094619D02*
X98981380Y-127562428D01*
X98933000Y-127465666D01*
X98836238Y-127417285D01*
X98642714Y-127417285D01*
X98545952Y-127465666D01*
X98981380Y-128046238D02*
X98884619Y-128094619D01*
X98642714Y-128094619D01*
X98545952Y-128046238D01*
X98497571Y-127949476D01*
X98497571Y-127852714D01*
X98545952Y-127755952D01*
X98642714Y-127707571D01*
X98884619Y-127707571D01*
X98981380Y-127659190D01*
X99465190Y-127707571D02*
X100239285Y-127707571D01*
X100723095Y-128094619D02*
X100723095Y-127417285D01*
X100723095Y-127514047D02*
X100771476Y-127465666D01*
X100868238Y-127417285D01*
X101013380Y-127417285D01*
X101110142Y-127465666D01*
X101158523Y-127562428D01*
X101158523Y-128094619D01*
X101158523Y-127562428D02*
X101206904Y-127465666D01*
X101303666Y-127417285D01*
X101448809Y-127417285D01*
X101545571Y-127465666D01*
X101593952Y-127562428D01*
X101593952Y-128094619D01*
X102222904Y-128094619D02*
X102126142Y-128046238D01*
X102077761Y-127997857D01*
X102029380Y-127901095D01*
X102029380Y-127610809D01*
X102077761Y-127514047D01*
X102126142Y-127465666D01*
X102222904Y-127417285D01*
X102368047Y-127417285D01*
X102464809Y-127465666D01*
X102513190Y-127514047D01*
X102561571Y-127610809D01*
X102561571Y-127901095D01*
X102513190Y-127997857D01*
X102464809Y-128046238D01*
X102368047Y-128094619D01*
X102222904Y-128094619D01*
X103432428Y-128094619D02*
X103432428Y-127078619D01*
X103432428Y-128046238D02*
X103335666Y-128094619D01*
X103142142Y-128094619D01*
X103045380Y-128046238D01*
X102997000Y-127997857D01*
X102948619Y-127901095D01*
X102948619Y-127610809D01*
X102997000Y-127514047D01*
X103045380Y-127465666D01*
X103142142Y-127417285D01*
X103335666Y-127417285D01*
X103432428Y-127465666D01*
X104351666Y-127417285D02*
X104351666Y-128094619D01*
X103916238Y-127417285D02*
X103916238Y-127949476D01*
X103964619Y-128046238D01*
X104061380Y-128094619D01*
X104206523Y-128094619D01*
X104303285Y-128046238D01*
X104351666Y-127997857D01*
X104980619Y-128094619D02*
X104883857Y-128046238D01*
X104835476Y-127949476D01*
X104835476Y-127078619D01*
X105803095Y-128094619D02*
X105803095Y-127562428D01*
X105754714Y-127465666D01*
X105657952Y-127417285D01*
X105464428Y-127417285D01*
X105367666Y-127465666D01*
X105803095Y-128046238D02*
X105706333Y-128094619D01*
X105464428Y-128094619D01*
X105367666Y-128046238D01*
X105319285Y-127949476D01*
X105319285Y-127852714D01*
X105367666Y-127755952D01*
X105464428Y-127707571D01*
X105706333Y-127707571D01*
X105803095Y-127659190D01*
X106286904Y-128094619D02*
X106286904Y-127417285D01*
X106286904Y-127610809D02*
X106335285Y-127514047D01*
X106383666Y-127465666D01*
X106480428Y-127417285D01*
X106577190Y-127417285D01*
X106915857Y-127707571D02*
X107689952Y-127707571D01*
X108609190Y-128094619D02*
X108609190Y-127078619D01*
X108609190Y-128046238D02*
X108512428Y-128094619D01*
X108318904Y-128094619D01*
X108222142Y-128046238D01*
X108173761Y-127997857D01*
X108125380Y-127901095D01*
X108125380Y-127610809D01*
X108173761Y-127514047D01*
X108222142Y-127465666D01*
X108318904Y-127417285D01*
X108512428Y-127417285D01*
X108609190Y-127465666D01*
X109480047Y-128046238D02*
X109383285Y-128094619D01*
X109189761Y-128094619D01*
X109093000Y-128046238D01*
X109044619Y-127949476D01*
X109044619Y-127562428D01*
X109093000Y-127465666D01*
X109189761Y-127417285D01*
X109383285Y-127417285D01*
X109480047Y-127465666D01*
X109528428Y-127562428D01*
X109528428Y-127659190D01*
X109044619Y-127755952D01*
X109867095Y-127417285D02*
X110109000Y-128094619D01*
X110350904Y-127417285D01*
X110737952Y-128094619D02*
X110737952Y-127417285D01*
X110737952Y-127078619D02*
X110689571Y-127127000D01*
X110737952Y-127175380D01*
X110786333Y-127127000D01*
X110737952Y-127078619D01*
X110737952Y-127175380D01*
X111657190Y-128046238D02*
X111560428Y-128094619D01*
X111366904Y-128094619D01*
X111270142Y-128046238D01*
X111221761Y-127997857D01*
X111173380Y-127901095D01*
X111173380Y-127610809D01*
X111221761Y-127514047D01*
X111270142Y-127465666D01*
X111366904Y-127417285D01*
X111560428Y-127417285D01*
X111657190Y-127465666D01*
X112479666Y-128046238D02*
X112382904Y-128094619D01*
X112189380Y-128094619D01*
X112092619Y-128046238D01*
X112044238Y-127949476D01*
X112044238Y-127562428D01*
X112092619Y-127465666D01*
X112189380Y-127417285D01*
X112382904Y-127417285D01*
X112479666Y-127465666D01*
X112528047Y-127562428D01*
X112528047Y-127659190D01*
X112044238Y-127755952D01*
X112915095Y-128046238D02*
X113011857Y-128094619D01*
X113205380Y-128094619D01*
X113302142Y-128046238D01*
X113350523Y-127949476D01*
X113350523Y-127901095D01*
X113302142Y-127804333D01*
X113205380Y-127755952D01*
X113060238Y-127755952D01*
X112963476Y-127707571D01*
X112915095Y-127610809D01*
X112915095Y-127562428D01*
X112963476Y-127465666D01*
X113060238Y-127417285D01*
X113205380Y-127417285D01*
X113302142Y-127465666D01*
X87490904Y-119966619D02*
X87490904Y-120692333D01*
X87442523Y-120837476D01*
X87345761Y-120934238D01*
X87200619Y-120982619D01*
X87103857Y-120982619D01*
X88410142Y-120982619D02*
X88410142Y-120450428D01*
X88361761Y-120353666D01*
X88265000Y-120305285D01*
X88071476Y-120305285D01*
X87974714Y-120353666D01*
X88410142Y-120934238D02*
X88313380Y-120982619D01*
X88071476Y-120982619D01*
X87974714Y-120934238D01*
X87926333Y-120837476D01*
X87926333Y-120740714D01*
X87974714Y-120643952D01*
X88071476Y-120595571D01*
X88313380Y-120595571D01*
X88410142Y-120547190D01*
X88893952Y-120305285D02*
X88893952Y-120982619D01*
X88893952Y-120402047D02*
X88942333Y-120353666D01*
X89039095Y-120305285D01*
X89184238Y-120305285D01*
X89281000Y-120353666D01*
X89329380Y-120450428D01*
X89329380Y-120982619D01*
X90200238Y-120934238D02*
X90103476Y-120982619D01*
X89909952Y-120982619D01*
X89813190Y-120934238D01*
X89764809Y-120837476D01*
X89764809Y-120450428D01*
X89813190Y-120353666D01*
X89909952Y-120305285D01*
X90103476Y-120305285D01*
X90200238Y-120353666D01*
X90248619Y-120450428D01*
X90248619Y-120547190D01*
X89764809Y-120643952D01*
X90829190Y-120982619D02*
X90732428Y-120934238D01*
X90684047Y-120837476D01*
X90684047Y-119966619D01*
X91216238Y-120982619D02*
X91216238Y-120305285D01*
X91216238Y-119966619D02*
X91167857Y-120015000D01*
X91216238Y-120063380D01*
X91264619Y-120015000D01*
X91216238Y-119966619D01*
X91216238Y-120063380D01*
X92135476Y-120982619D02*
X92135476Y-120450428D01*
X92087095Y-120353666D01*
X91990333Y-120305285D01*
X91796809Y-120305285D01*
X91700047Y-120353666D01*
X92135476Y-120934238D02*
X92038714Y-120982619D01*
X91796809Y-120982619D01*
X91700047Y-120934238D01*
X91651666Y-120837476D01*
X91651666Y-120740714D01*
X91700047Y-120643952D01*
X91796809Y-120595571D01*
X92038714Y-120595571D01*
X92135476Y-120547190D01*
X93393380Y-120982619D02*
X93393380Y-119966619D01*
X93732047Y-120692333D01*
X94070714Y-119966619D01*
X94070714Y-120982619D01*
X94699666Y-120982619D02*
X94602904Y-120934238D01*
X94554523Y-120885857D01*
X94506142Y-120789095D01*
X94506142Y-120498809D01*
X94554523Y-120402047D01*
X94602904Y-120353666D01*
X94699666Y-120305285D01*
X94844809Y-120305285D01*
X94941571Y-120353666D01*
X94989952Y-120402047D01*
X95038333Y-120498809D01*
X95038333Y-120789095D01*
X94989952Y-120885857D01*
X94941571Y-120934238D01*
X94844809Y-120982619D01*
X94699666Y-120982619D01*
X95909190Y-120982619D02*
X95909190Y-119966619D01*
X95909190Y-120934238D02*
X95812428Y-120982619D01*
X95618904Y-120982619D01*
X95522142Y-120934238D01*
X95473761Y-120885857D01*
X95425380Y-120789095D01*
X95425380Y-120498809D01*
X95473761Y-120402047D01*
X95522142Y-120353666D01*
X95618904Y-120305285D01*
X95812428Y-120305285D01*
X95909190Y-120353666D01*
X96828428Y-120305285D02*
X96828428Y-120982619D01*
X96393000Y-120305285D02*
X96393000Y-120837476D01*
X96441380Y-120934238D01*
X96538142Y-120982619D01*
X96683285Y-120982619D01*
X96780047Y-120934238D01*
X96828428Y-120885857D01*
X97457380Y-120982619D02*
X97360619Y-120934238D01*
X97312238Y-120837476D01*
X97312238Y-119966619D01*
X98279857Y-120982619D02*
X98279857Y-120450428D01*
X98231476Y-120353666D01*
X98134714Y-120305285D01*
X97941190Y-120305285D01*
X97844428Y-120353666D01*
X98279857Y-120934238D02*
X98183095Y-120982619D01*
X97941190Y-120982619D01*
X97844428Y-120934238D01*
X97796047Y-120837476D01*
X97796047Y-120740714D01*
X97844428Y-120643952D01*
X97941190Y-120595571D01*
X98183095Y-120595571D01*
X98279857Y-120547190D01*
X98763666Y-120982619D02*
X98763666Y-120305285D01*
X98763666Y-120498809D02*
X98812047Y-120402047D01*
X98860428Y-120353666D01*
X98957190Y-120305285D01*
X99053952Y-120305285D01*
X100166714Y-120982619D02*
X100166714Y-119966619D01*
X100408619Y-119966619D01*
X100553761Y-120015000D01*
X100650523Y-120111761D01*
X100698904Y-120208523D01*
X100747285Y-120402047D01*
X100747285Y-120547190D01*
X100698904Y-120740714D01*
X100650523Y-120837476D01*
X100553761Y-120934238D01*
X100408619Y-120982619D01*
X100166714Y-120982619D01*
X101569761Y-120934238D02*
X101473000Y-120982619D01*
X101279476Y-120982619D01*
X101182714Y-120934238D01*
X101134333Y-120837476D01*
X101134333Y-120450428D01*
X101182714Y-120353666D01*
X101279476Y-120305285D01*
X101473000Y-120305285D01*
X101569761Y-120353666D01*
X101618142Y-120450428D01*
X101618142Y-120547190D01*
X101134333Y-120643952D01*
X101956809Y-120305285D02*
X102198714Y-120982619D01*
X102440619Y-120305285D01*
X102827666Y-120982619D02*
X102827666Y-120305285D01*
X102827666Y-119966619D02*
X102779285Y-120015000D01*
X102827666Y-120063380D01*
X102876047Y-120015000D01*
X102827666Y-119966619D01*
X102827666Y-120063380D01*
X103746904Y-120934238D02*
X103650142Y-120982619D01*
X103456619Y-120982619D01*
X103359857Y-120934238D01*
X103311476Y-120885857D01*
X103263095Y-120789095D01*
X103263095Y-120498809D01*
X103311476Y-120402047D01*
X103359857Y-120353666D01*
X103456619Y-120305285D01*
X103650142Y-120305285D01*
X103746904Y-120353666D01*
X104569380Y-120934238D02*
X104472619Y-120982619D01*
X104279095Y-120982619D01*
X104182333Y-120934238D01*
X104133952Y-120837476D01*
X104133952Y-120450428D01*
X104182333Y-120353666D01*
X104279095Y-120305285D01*
X104472619Y-120305285D01*
X104569380Y-120353666D01*
X104617761Y-120450428D01*
X104617761Y-120547190D01*
X104133952Y-120643952D01*
X91192047Y-122083285D02*
X91192047Y-122760619D01*
X90756619Y-122083285D02*
X90756619Y-122615476D01*
X90805000Y-122712238D01*
X90901761Y-122760619D01*
X91046904Y-122760619D01*
X91143666Y-122712238D01*
X91192047Y-122663857D01*
X91627476Y-122712238D02*
X91724238Y-122760619D01*
X91917761Y-122760619D01*
X92014523Y-122712238D01*
X92062904Y-122615476D01*
X92062904Y-122567095D01*
X92014523Y-122470333D01*
X91917761Y-122421952D01*
X91772619Y-122421952D01*
X91675857Y-122373571D01*
X91627476Y-122276809D01*
X91627476Y-122228428D01*
X91675857Y-122131666D01*
X91772619Y-122083285D01*
X91917761Y-122083285D01*
X92014523Y-122131666D01*
X92885380Y-122712238D02*
X92788619Y-122760619D01*
X92595095Y-122760619D01*
X92498333Y-122712238D01*
X92449952Y-122615476D01*
X92449952Y-122228428D01*
X92498333Y-122131666D01*
X92595095Y-122083285D01*
X92788619Y-122083285D01*
X92885380Y-122131666D01*
X92933761Y-122228428D01*
X92933761Y-122325190D01*
X92449952Y-122421952D01*
X93369190Y-122760619D02*
X93369190Y-122083285D01*
X93369190Y-122276809D02*
X93417571Y-122180047D01*
X93465952Y-122131666D01*
X93562714Y-122083285D01*
X93659476Y-122083285D01*
X93756238Y-122857380D02*
X94530333Y-122857380D01*
X94772238Y-122760619D02*
X94772238Y-122083285D01*
X94772238Y-121744619D02*
X94723857Y-121793000D01*
X94772238Y-121841380D01*
X94820619Y-121793000D01*
X94772238Y-121744619D01*
X94772238Y-121841380D01*
X95256047Y-122083285D02*
X95256047Y-122760619D01*
X95256047Y-122180047D02*
X95304428Y-122131666D01*
X95401190Y-122083285D01*
X95546333Y-122083285D01*
X95643095Y-122131666D01*
X95691476Y-122228428D01*
X95691476Y-122760619D01*
X96030142Y-122083285D02*
X96417190Y-122083285D01*
X96175285Y-121744619D02*
X96175285Y-122615476D01*
X96223666Y-122712238D01*
X96320428Y-122760619D01*
X96417190Y-122760619D01*
X97142904Y-122712238D02*
X97046142Y-122760619D01*
X96852619Y-122760619D01*
X96755857Y-122712238D01*
X96707476Y-122615476D01*
X96707476Y-122228428D01*
X96755857Y-122131666D01*
X96852619Y-122083285D01*
X97046142Y-122083285D01*
X97142904Y-122131666D01*
X97191285Y-122228428D01*
X97191285Y-122325190D01*
X96707476Y-122421952D01*
X97626714Y-122760619D02*
X97626714Y-122083285D01*
X97626714Y-122276809D02*
X97675095Y-122180047D01*
X97723476Y-122131666D01*
X97820238Y-122083285D01*
X97917000Y-122083285D01*
X98110523Y-122083285D02*
X98497571Y-122083285D01*
X98255666Y-122760619D02*
X98255666Y-121889761D01*
X98304047Y-121793000D01*
X98400809Y-121744619D01*
X98497571Y-121744619D01*
X99271666Y-122760619D02*
X99271666Y-122228428D01*
X99223285Y-122131666D01*
X99126523Y-122083285D01*
X98933000Y-122083285D01*
X98836238Y-122131666D01*
X99271666Y-122712238D02*
X99174904Y-122760619D01*
X98933000Y-122760619D01*
X98836238Y-122712238D01*
X98787857Y-122615476D01*
X98787857Y-122518714D01*
X98836238Y-122421952D01*
X98933000Y-122373571D01*
X99174904Y-122373571D01*
X99271666Y-122325190D01*
X100190904Y-122712238D02*
X100094142Y-122760619D01*
X99900619Y-122760619D01*
X99803857Y-122712238D01*
X99755476Y-122663857D01*
X99707095Y-122567095D01*
X99707095Y-122276809D01*
X99755476Y-122180047D01*
X99803857Y-122131666D01*
X99900619Y-122083285D01*
X100094142Y-122083285D01*
X100190904Y-122131666D01*
X101013380Y-122712238D02*
X100916619Y-122760619D01*
X100723095Y-122760619D01*
X100626333Y-122712238D01*
X100577952Y-122615476D01*
X100577952Y-122228428D01*
X100626333Y-122131666D01*
X100723095Y-122083285D01*
X100916619Y-122083285D01*
X101013380Y-122131666D01*
X101061761Y-122228428D01*
X101061761Y-122325190D01*
X100577952Y-122421952D01*
X88071476Y-124538619D02*
X88071476Y-123861285D01*
X88071476Y-123958047D02*
X88119857Y-123909666D01*
X88216619Y-123861285D01*
X88361761Y-123861285D01*
X88458523Y-123909666D01*
X88506904Y-124006428D01*
X88506904Y-124538619D01*
X88506904Y-124006428D02*
X88555285Y-123909666D01*
X88652047Y-123861285D01*
X88797190Y-123861285D01*
X88893952Y-123909666D01*
X88942333Y-124006428D01*
X88942333Y-124538619D01*
X89571285Y-124538619D02*
X89474523Y-124490238D01*
X89426142Y-124441857D01*
X89377761Y-124345095D01*
X89377761Y-124054809D01*
X89426142Y-123958047D01*
X89474523Y-123909666D01*
X89571285Y-123861285D01*
X89716428Y-123861285D01*
X89813190Y-123909666D01*
X89861571Y-123958047D01*
X89909952Y-124054809D01*
X89909952Y-124345095D01*
X89861571Y-124441857D01*
X89813190Y-124490238D01*
X89716428Y-124538619D01*
X89571285Y-124538619D01*
X90780809Y-124538619D02*
X90780809Y-123522619D01*
X90780809Y-124490238D02*
X90684047Y-124538619D01*
X90490523Y-124538619D01*
X90393761Y-124490238D01*
X90345380Y-124441857D01*
X90297000Y-124345095D01*
X90297000Y-124054809D01*
X90345380Y-123958047D01*
X90393761Y-123909666D01*
X90490523Y-123861285D01*
X90684047Y-123861285D01*
X90780809Y-123909666D01*
X91651666Y-124490238D02*
X91554904Y-124538619D01*
X91361380Y-124538619D01*
X91264619Y-124490238D01*
X91216238Y-124393476D01*
X91216238Y-124006428D01*
X91264619Y-123909666D01*
X91361380Y-123861285D01*
X91554904Y-123861285D01*
X91651666Y-123909666D01*
X91700047Y-124006428D01*
X91700047Y-124103190D01*
X91216238Y-124199952D01*
X92280619Y-124538619D02*
X92183857Y-124490238D01*
X92135476Y-124393476D01*
X92135476Y-123522619D01*
X92425761Y-124635380D02*
X93199857Y-124635380D01*
X93441761Y-123861285D02*
X93441761Y-124538619D01*
X93441761Y-123958047D02*
X93490142Y-123909666D01*
X93586904Y-123861285D01*
X93732047Y-123861285D01*
X93828809Y-123909666D01*
X93877190Y-124006428D01*
X93877190Y-124538619D01*
X94796428Y-123861285D02*
X94796428Y-124538619D01*
X94361000Y-123861285D02*
X94361000Y-124393476D01*
X94409380Y-124490238D01*
X94506142Y-124538619D01*
X94651285Y-124538619D01*
X94748047Y-124490238D01*
X94796428Y-124441857D01*
X95280238Y-124538619D02*
X95280238Y-123861285D01*
X95280238Y-123958047D02*
X95328619Y-123909666D01*
X95425380Y-123861285D01*
X95570523Y-123861285D01*
X95667285Y-123909666D01*
X95715666Y-124006428D01*
X95715666Y-124538619D01*
X95715666Y-124006428D02*
X95764047Y-123909666D01*
X95860809Y-123861285D01*
X96005952Y-123861285D01*
X96102714Y-123909666D01*
X96151095Y-124006428D01*
X96151095Y-124538619D01*
X96634904Y-124538619D02*
X96634904Y-123522619D01*
X96634904Y-123909666D02*
X96731666Y-123861285D01*
X96925190Y-123861285D01*
X97021952Y-123909666D01*
X97070333Y-123958047D01*
X97118714Y-124054809D01*
X97118714Y-124345095D01*
X97070333Y-124441857D01*
X97021952Y-124490238D01*
X96925190Y-124538619D01*
X96731666Y-124538619D01*
X96634904Y-124490238D01*
X97941190Y-124490238D02*
X97844428Y-124538619D01*
X97650904Y-124538619D01*
X97554142Y-124490238D01*
X97505761Y-124393476D01*
X97505761Y-124006428D01*
X97554142Y-123909666D01*
X97650904Y-123861285D01*
X97844428Y-123861285D01*
X97941190Y-123909666D01*
X97989571Y-124006428D01*
X97989571Y-124103190D01*
X97505761Y-124199952D01*
X98425000Y-124538619D02*
X98425000Y-123861285D01*
X98425000Y-124054809D02*
X98473380Y-123958047D01*
X98521761Y-123909666D01*
X98618523Y-123861285D01*
X98715285Y-123861285D01*
X99053952Y-124441857D02*
X99102333Y-124490238D01*
X99053952Y-124538619D01*
X99005571Y-124490238D01*
X99053952Y-124441857D01*
X99053952Y-124538619D01*
X99053952Y-123909666D02*
X99102333Y-123958047D01*
X99053952Y-124006428D01*
X99005571Y-123958047D01*
X99053952Y-123909666D01*
X99053952Y-124006428D01*
X100844047Y-124538619D02*
X100263476Y-124538619D01*
X100553761Y-124538619D02*
X100553761Y-123522619D01*
X100457000Y-123667761D01*
X100360238Y-123764523D01*
X100263476Y-123812904D01*
X101231095Y-123619380D02*
X101279476Y-123571000D01*
X101376238Y-123522619D01*
X101618142Y-123522619D01*
X101714904Y-123571000D01*
X101763285Y-123619380D01*
X101811666Y-123716142D01*
X101811666Y-123812904D01*
X101763285Y-123958047D01*
X101182714Y-124538619D01*
X101811666Y-124538619D01*
X102440619Y-123522619D02*
X102537380Y-123522619D01*
X102634142Y-123571000D01*
X102682523Y-123619380D01*
X102730904Y-123716142D01*
X102779285Y-123909666D01*
X102779285Y-124151571D01*
X102730904Y-124345095D01*
X102682523Y-124441857D01*
X102634142Y-124490238D01*
X102537380Y-124538619D01*
X102440619Y-124538619D01*
X102343857Y-124490238D01*
X102295476Y-124441857D01*
X102247095Y-124345095D01*
X102198714Y-124151571D01*
X102198714Y-123909666D01*
X102247095Y-123716142D01*
X102295476Y-123619380D01*
X102343857Y-123571000D01*
X102440619Y-123522619D01*
X103746904Y-124538619D02*
X103166333Y-124538619D01*
X103456619Y-124538619D02*
X103456619Y-123522619D01*
X103359857Y-123667761D01*
X103263095Y-123764523D01*
X103166333Y-123812904D01*
X86958714Y-125300619D02*
X87055476Y-125300619D01*
X87152238Y-125349000D01*
X87200619Y-125397380D01*
X87249000Y-125494142D01*
X87297380Y-125687666D01*
X87297380Y-125929571D01*
X87249000Y-126123095D01*
X87200619Y-126219857D01*
X87152238Y-126268238D01*
X87055476Y-126316619D01*
X86958714Y-126316619D01*
X86861952Y-126268238D01*
X86813571Y-126219857D01*
X86765190Y-126123095D01*
X86716809Y-125929571D01*
X86716809Y-125687666D01*
X86765190Y-125494142D01*
X86813571Y-125397380D01*
X86861952Y-125349000D01*
X86958714Y-125300619D01*
X87877952Y-125736047D02*
X87781190Y-125687666D01*
X87732809Y-125639285D01*
X87684428Y-125542523D01*
X87684428Y-125494142D01*
X87732809Y-125397380D01*
X87781190Y-125349000D01*
X87877952Y-125300619D01*
X88071476Y-125300619D01*
X88168238Y-125349000D01*
X88216619Y-125397380D01*
X88265000Y-125494142D01*
X88265000Y-125542523D01*
X88216619Y-125639285D01*
X88168238Y-125687666D01*
X88071476Y-125736047D01*
X87877952Y-125736047D01*
X87781190Y-125784428D01*
X87732809Y-125832809D01*
X87684428Y-125929571D01*
X87684428Y-126123095D01*
X87732809Y-126219857D01*
X87781190Y-126268238D01*
X87877952Y-126316619D01*
X88071476Y-126316619D01*
X88168238Y-126268238D01*
X88216619Y-126219857D01*
X88265000Y-126123095D01*
X88265000Y-125929571D01*
X88216619Y-125832809D01*
X88168238Y-125784428D01*
X88071476Y-125736047D01*
X89426142Y-125252238D02*
X88555285Y-126558523D01*
X89716428Y-125397380D02*
X89764809Y-125349000D01*
X89861571Y-125300619D01*
X90103476Y-125300619D01*
X90200238Y-125349000D01*
X90248619Y-125397380D01*
X90297000Y-125494142D01*
X90297000Y-125590904D01*
X90248619Y-125736047D01*
X89668047Y-126316619D01*
X90297000Y-126316619D01*
X90925952Y-125300619D02*
X91022714Y-125300619D01*
X91119476Y-125349000D01*
X91167857Y-125397380D01*
X91216238Y-125494142D01*
X91264619Y-125687666D01*
X91264619Y-125929571D01*
X91216238Y-126123095D01*
X91167857Y-126219857D01*
X91119476Y-126268238D01*
X91022714Y-126316619D01*
X90925952Y-126316619D01*
X90829190Y-126268238D01*
X90780809Y-126219857D01*
X90732428Y-126123095D01*
X90684047Y-125929571D01*
X90684047Y-125687666D01*
X90732428Y-125494142D01*
X90780809Y-125397380D01*
X90829190Y-125349000D01*
X90925952Y-125300619D01*
X92232238Y-126316619D02*
X91651666Y-126316619D01*
X91941952Y-126316619D02*
X91941952Y-125300619D01*
X91845190Y-125445761D01*
X91748428Y-125542523D01*
X91651666Y-125590904D01*
X93103095Y-125300619D02*
X92909571Y-125300619D01*
X92812809Y-125349000D01*
X92764428Y-125397380D01*
X92667666Y-125542523D01*
X92619285Y-125736047D01*
X92619285Y-126123095D01*
X92667666Y-126219857D01*
X92716047Y-126268238D01*
X92812809Y-126316619D01*
X93006333Y-126316619D01*
X93103095Y-126268238D01*
X93151476Y-126219857D01*
X93199857Y-126123095D01*
X93199857Y-125881190D01*
X93151476Y-125784428D01*
X93103095Y-125736047D01*
X93006333Y-125687666D01*
X92812809Y-125687666D01*
X92716047Y-125736047D01*
X92667666Y-125784428D01*
X92619285Y-125881190D01*
X94312619Y-125639285D02*
X94554523Y-126316619D01*
X94796428Y-125639285D01*
X95570523Y-126268238D02*
X95473761Y-126316619D01*
X95280238Y-126316619D01*
X95183476Y-126268238D01*
X95135095Y-126171476D01*
X95135095Y-125784428D01*
X95183476Y-125687666D01*
X95280238Y-125639285D01*
X95473761Y-125639285D01*
X95570523Y-125687666D01*
X95618904Y-125784428D01*
X95618904Y-125881190D01*
X95135095Y-125977952D01*
X96054333Y-126316619D02*
X96054333Y-125639285D01*
X96054333Y-125832809D02*
X96102714Y-125736047D01*
X96151095Y-125687666D01*
X96247857Y-125639285D01*
X96344619Y-125639285D01*
X97989571Y-126316619D02*
X97409000Y-126316619D01*
X97699285Y-126316619D02*
X97699285Y-125300619D01*
X97602523Y-125445761D01*
X97505761Y-125542523D01*
X97409000Y-125590904D01*
X98425000Y-126219857D02*
X98473380Y-126268238D01*
X98425000Y-126316619D01*
X98376619Y-126268238D01*
X98425000Y-126219857D01*
X98425000Y-126316619D01*
X99102333Y-125300619D02*
X99199095Y-125300619D01*
X99295857Y-125349000D01*
X99344238Y-125397380D01*
X99392619Y-125494142D01*
X99441000Y-125687666D01*
X99441000Y-125929571D01*
X99392619Y-126123095D01*
X99344238Y-126219857D01*
X99295857Y-126268238D01*
X99199095Y-126316619D01*
X99102333Y-126316619D01*
X99005571Y-126268238D01*
X98957190Y-126219857D01*
X98908809Y-126123095D01*
X98860428Y-125929571D01*
X98860428Y-125687666D01*
X98908809Y-125494142D01*
X98957190Y-125397380D01*
X99005571Y-125349000D01*
X99102333Y-125300619D01*
X100505380Y-125639285D02*
X100892428Y-125639285D01*
X100650523Y-125300619D02*
X100650523Y-126171476D01*
X100698904Y-126268238D01*
X100795666Y-126316619D01*
X100892428Y-126316619D01*
X101618142Y-126268238D02*
X101521380Y-126316619D01*
X101327857Y-126316619D01*
X101231095Y-126268238D01*
X101182714Y-126171476D01*
X101182714Y-125784428D01*
X101231095Y-125687666D01*
X101327857Y-125639285D01*
X101521380Y-125639285D01*
X101618142Y-125687666D01*
X101666523Y-125784428D01*
X101666523Y-125881190D01*
X101182714Y-125977952D01*
X102489000Y-126268238D02*
X102392238Y-126316619D01*
X102198714Y-126316619D01*
X102101952Y-126268238D01*
X102053571Y-126171476D01*
X102053571Y-125784428D01*
X102101952Y-125687666D01*
X102198714Y-125639285D01*
X102392238Y-125639285D01*
X102489000Y-125687666D01*
X102537380Y-125784428D01*
X102537380Y-125881190D01*
X102053571Y-125977952D01*
X102972809Y-125639285D02*
X102972809Y-126316619D01*
X102972809Y-125736047D02*
X103021190Y-125687666D01*
X103117952Y-125639285D01*
X103263095Y-125639285D01*
X103359857Y-125687666D01*
X103408238Y-125784428D01*
X103408238Y-126316619D01*
X103843666Y-126268238D02*
X103940428Y-126316619D01*
X104133952Y-126316619D01*
X104230714Y-126268238D01*
X104279095Y-126171476D01*
X104279095Y-126123095D01*
X104230714Y-126026333D01*
X104133952Y-125977952D01*
X103988809Y-125977952D01*
X103892047Y-125929571D01*
X103843666Y-125832809D01*
X103843666Y-125784428D01*
X103892047Y-125687666D01*
X103988809Y-125639285D01*
X104133952Y-125639285D01*
X104230714Y-125687666D01*
X104617761Y-125639285D02*
X104859666Y-126316619D01*
X105101571Y-125639285D02*
X104859666Y-126316619D01*
X104762904Y-126558523D01*
X104714523Y-126606904D01*
X104617761Y-126655285D01*
D13*
X138430000Y-108839000D02*
X118821200Y-108839000D01*
X138430000Y-93091000D02*
X118821200Y-93091000D01*
X118821200Y-93091000D02*
X118821200Y-108839000D01*
X138430000Y-94615000D02*
X124460000Y-94615000D01*
X124460000Y-94615000D02*
X124460000Y-107315000D01*
X124460000Y-107315000D02*
X138430000Y-107315000D01*
X138430000Y-108839000D02*
X138430000Y-93091000D01*
X135255000Y-100965000D02*
G75*
G03X135255000Y-100965000I-3175000J0D01*
G01*
X142875000Y-73660000D02*
G75*
G03X139700000Y-70485000I-3175000J0D01*
G01*
X139700000Y-92075000D02*
G75*
G03X142875000Y-88900000I0J3175000D01*
G01*
X121285000Y-88900000D02*
G75*
G03X124460000Y-92075000I3175000J0D01*
G01*
X124460000Y-70485000D02*
G75*
G03X121285000Y-73660000I0J-3175000D01*
G01*
X132080000Y-73025000D02*
X132080000Y-71120000D01*
X132080000Y-71120000D02*
X131445000Y-72390000D01*
X131445000Y-72390000D02*
X132715000Y-72390000D01*
X132715000Y-72390000D02*
X132080000Y-71120000D01*
X124460000Y-92075000D02*
X139700000Y-92075000D01*
X142875000Y-88900000D02*
X142875000Y-73660000D01*
X139700000Y-70485000D02*
X124460000Y-70485000D01*
X121285000Y-73660000D02*
X121285000Y-88900000D01*
D12*
X80010000Y-86995000D02*
G75*
G03X80010000Y-86995000I-2540000J0D01*
G01*
X80010000Y-112395000D02*
G75*
G03X80010000Y-112395000I-2540000J0D01*
G01*
X120650000Y-117475000D02*
G75*
G03X120650000Y-117475000I-2540000J0D01*
G01*
X120650000Y-81915000D02*
G75*
G03X120650000Y-81915000I-2540000J0D01*
G01*
D13*
X127635000Y-109855000D02*
X121285000Y-109855000D01*
X127635000Y-113665000D02*
X121285000Y-113665000D01*
X127635000Y-115570000D02*
X121285000Y-115570000D01*
X123825000Y-114935000D02*
X123190000Y-113665000D01*
X123190000Y-113665000D02*
X122555000Y-114935000D01*
X122555000Y-114935000D02*
X123825000Y-114935000D01*
X121285000Y-115570000D02*
X121285000Y-113665000D01*
X127635000Y-115570000D02*
X127635000Y-113665000D01*
X127635000Y-113665000D02*
X127635000Y-109855000D01*
X121285000Y-109855000D02*
X121285000Y-113665000D01*
X125222000Y-121285000D02*
X124206000Y-122047000D01*
X126492000Y-121285000D02*
X125222000Y-121285000D01*
X122428000Y-121285000D02*
X123698000Y-121285000D01*
X126492000Y-123825000D02*
X126492000Y-118745000D01*
X122428000Y-123825000D02*
X122428000Y-118745000D01*
X121158000Y-124841000D02*
X127762000Y-124841000D01*
X127762000Y-124841000D02*
X127762000Y-117729000D01*
X127762000Y-117729000D02*
X121158000Y-117729000D01*
X121158000Y-117729000D02*
X121158000Y-124841000D01*
X132842000Y-121285000D02*
X131826000Y-122047000D01*
X134112000Y-121285000D02*
X132842000Y-121285000D01*
X130048000Y-121285000D02*
X131318000Y-121285000D01*
X134112000Y-123825000D02*
X134112000Y-118745000D01*
X130048000Y-123825000D02*
X130048000Y-118745000D01*
X128778000Y-124841000D02*
X135382000Y-124841000D01*
X135382000Y-124841000D02*
X135382000Y-117729000D01*
X135382000Y-117729000D02*
X128778000Y-117729000D01*
X128778000Y-117729000D02*
X128778000Y-124841000D01*
X140462000Y-121285000D02*
X139446000Y-122047000D01*
X141732000Y-121285000D02*
X140462000Y-121285000D01*
X137668000Y-121285000D02*
X138938000Y-121285000D01*
X141732000Y-123825000D02*
X141732000Y-118745000D01*
X137668000Y-123825000D02*
X137668000Y-118745000D01*
X136398000Y-124841000D02*
X143002000Y-124841000D01*
X143002000Y-124841000D02*
X143002000Y-117729000D01*
X143002000Y-117729000D02*
X136398000Y-117729000D01*
X136398000Y-117729000D02*
X136398000Y-124841000D01*
X81915000Y-72425000D02*
X81915000Y-74965000D01*
X81915000Y-74965000D02*
X109855000Y-74965000D01*
X109855000Y-74965000D02*
X109855000Y-72425000D01*
X109855000Y-72425000D02*
X81915000Y-72425000D01*
X73635000Y-70695000D02*
X118135000Y-70695000D01*
X118135000Y-128695000D02*
X118135000Y-70695000D01*
X73635000Y-128695000D02*
X118135000Y-128695000D01*
X73635000Y-70695000D02*
X73635000Y-128695000D01*
D11*
X118678476Y-109782428D02*
X119017142Y-109782428D01*
X119162285Y-110314619D02*
X118678476Y-110314619D01*
X118678476Y-109298619D01*
X119162285Y-109298619D01*
X120129904Y-110314619D02*
X119549333Y-110314619D01*
X119839619Y-110314619D02*
X119839619Y-109298619D01*
X119742857Y-109443761D01*
X119646095Y-109540523D01*
X119549333Y-109588904D01*
X119458619Y-74633666D02*
X120184333Y-74633666D01*
X120329476Y-74682047D01*
X120426238Y-74778809D01*
X120474619Y-74923952D01*
X120474619Y-75020714D01*
X120474619Y-73617666D02*
X120474619Y-74198238D01*
X120474619Y-73907952D02*
X119458619Y-73907952D01*
X119603761Y-74004714D01*
X119700523Y-74101476D01*
X119748904Y-74198238D01*
X131281714Y-84182857D02*
X131233333Y-84231238D01*
X131088190Y-84279619D01*
X130991428Y-84279619D01*
X130846285Y-84231238D01*
X130749523Y-84134476D01*
X130701142Y-84037714D01*
X130652761Y-83844190D01*
X130652761Y-83699047D01*
X130701142Y-83505523D01*
X130749523Y-83408761D01*
X130846285Y-83312000D01*
X130991428Y-83263619D01*
X131088190Y-83263619D01*
X131233333Y-83312000D01*
X131281714Y-83360380D01*
X131910666Y-83263619D02*
X132104190Y-83263619D01*
X132200952Y-83312000D01*
X132297714Y-83408761D01*
X132346095Y-83602285D01*
X132346095Y-83940952D01*
X132297714Y-84134476D01*
X132200952Y-84231238D01*
X132104190Y-84279619D01*
X131910666Y-84279619D01*
X131813904Y-84231238D01*
X131717142Y-84134476D01*
X131668761Y-83940952D01*
X131668761Y-83602285D01*
X131717142Y-83408761D01*
X131813904Y-83312000D01*
X131910666Y-83263619D01*
X132781523Y-84279619D02*
X132781523Y-83263619D01*
X133120190Y-83989333D01*
X133458857Y-83263619D01*
X133458857Y-84279619D01*
X137075333Y-84279619D02*
X136736666Y-83795809D01*
X136494761Y-84279619D02*
X136494761Y-83263619D01*
X136881809Y-83263619D01*
X136978571Y-83312000D01*
X137026952Y-83360380D01*
X137075333Y-83457142D01*
X137075333Y-83602285D01*
X137026952Y-83699047D01*
X136978571Y-83747428D01*
X136881809Y-83795809D01*
X136494761Y-83795809D01*
X137510761Y-84279619D02*
X137510761Y-83263619D01*
X138526761Y-83312000D02*
X138430000Y-83263619D01*
X138284857Y-83263619D01*
X138139714Y-83312000D01*
X138042952Y-83408761D01*
X137994571Y-83505523D01*
X137946190Y-83699047D01*
X137946190Y-83844190D01*
X137994571Y-84037714D01*
X138042952Y-84134476D01*
X138139714Y-84231238D01*
X138284857Y-84279619D01*
X138381619Y-84279619D01*
X138526761Y-84231238D01*
X138575142Y-84182857D01*
X138575142Y-83844190D01*
X138381619Y-83844190D01*
X139010571Y-84279619D02*
X139010571Y-83263619D01*
X139010571Y-83747428D02*
X139591142Y-83747428D01*
X139591142Y-84279619D02*
X139591142Y-83263619D01*
X139929809Y-83263619D02*
X140510380Y-83263619D01*
X140220095Y-84279619D02*
X140220095Y-83263619D01*
X124762380Y-84279619D02*
X124278571Y-84279619D01*
X124278571Y-83263619D01*
X125101047Y-83747428D02*
X125439714Y-83747428D01*
X125584857Y-84279619D02*
X125101047Y-84279619D01*
X125101047Y-83263619D01*
X125584857Y-83263619D01*
X126358952Y-83747428D02*
X126020285Y-83747428D01*
X126020285Y-84279619D02*
X126020285Y-83263619D01*
X126504095Y-83263619D01*
X126746000Y-83263619D02*
X127326571Y-83263619D01*
X127036285Y-84279619D02*
X127036285Y-83263619D01*
X130168952Y-90629619D02*
X130168952Y-89613619D01*
X130410857Y-89613619D01*
X130556000Y-89662000D01*
X130652761Y-89758761D01*
X130701142Y-89855523D01*
X130749523Y-90049047D01*
X130749523Y-90194190D01*
X130701142Y-90387714D01*
X130652761Y-90484476D01*
X130556000Y-90581238D01*
X130410857Y-90629619D01*
X130168952Y-90629619D01*
X131378476Y-89613619D02*
X131572000Y-89613619D01*
X131668761Y-89662000D01*
X131765523Y-89758761D01*
X131813904Y-89952285D01*
X131813904Y-90290952D01*
X131765523Y-90484476D01*
X131668761Y-90581238D01*
X131572000Y-90629619D01*
X131378476Y-90629619D01*
X131281714Y-90581238D01*
X131184952Y-90484476D01*
X131136571Y-90290952D01*
X131136571Y-89952285D01*
X131184952Y-89758761D01*
X131281714Y-89662000D01*
X131378476Y-89613619D01*
X132152571Y-89613619D02*
X132394476Y-90629619D01*
X132588000Y-89903904D01*
X132781523Y-90629619D01*
X133023428Y-89613619D01*
X133410476Y-90629619D02*
X133410476Y-89613619D01*
X133991047Y-90629619D01*
X133991047Y-89613619D01*
X131281714Y-76913619D02*
X131281714Y-77736095D01*
X131330095Y-77832857D01*
X131378476Y-77881238D01*
X131475238Y-77929619D01*
X131668761Y-77929619D01*
X131765523Y-77881238D01*
X131813904Y-77832857D01*
X131862285Y-77736095D01*
X131862285Y-76913619D01*
X132346095Y-77929619D02*
X132346095Y-76913619D01*
X132733142Y-76913619D01*
X132829904Y-76962000D01*
X132878285Y-77010380D01*
X132926666Y-77107142D01*
X132926666Y-77252285D01*
X132878285Y-77349047D01*
X132829904Y-77397428D01*
X132733142Y-77445809D01*
X132346095Y-77445809D01*
X120426238Y-113169095D02*
X120474619Y-113023952D01*
X120474619Y-112782047D01*
X120426238Y-112685285D01*
X120377857Y-112636904D01*
X120281095Y-112588523D01*
X120184333Y-112588523D01*
X120087571Y-112636904D01*
X120039190Y-112685285D01*
X119990809Y-112782047D01*
X119942428Y-112975571D01*
X119894047Y-113072333D01*
X119845666Y-113120714D01*
X119748904Y-113169095D01*
X119652142Y-113169095D01*
X119555380Y-113120714D01*
X119507000Y-113072333D01*
X119458619Y-112975571D01*
X119458619Y-112733666D01*
X119507000Y-112588523D01*
X120474619Y-111620904D02*
X120474619Y-112201476D01*
X120474619Y-111911190D02*
X119458619Y-111911190D01*
X119603761Y-112007952D01*
X119700523Y-112104714D01*
X119748904Y-112201476D01*
X120426238Y-122639666D02*
X120474619Y-122494523D01*
X120474619Y-122252619D01*
X120426238Y-122155857D01*
X120377857Y-122107476D01*
X120281095Y-122059095D01*
X120184333Y-122059095D01*
X120087571Y-122107476D01*
X120039190Y-122155857D01*
X119990809Y-122252619D01*
X119942428Y-122446142D01*
X119894047Y-122542904D01*
X119845666Y-122591285D01*
X119748904Y-122639666D01*
X119652142Y-122639666D01*
X119555380Y-122591285D01*
X119507000Y-122542904D01*
X119458619Y-122446142D01*
X119458619Y-122204238D01*
X119507000Y-122059095D01*
X119458619Y-121720428D02*
X120474619Y-121478523D01*
X119748904Y-121285000D01*
X120474619Y-121091476D01*
X119458619Y-120849571D01*
X120474619Y-119930333D02*
X120474619Y-120510904D01*
X120474619Y-120220619D02*
X119458619Y-120220619D01*
X119603761Y-120317380D01*
X119700523Y-120414142D01*
X119748904Y-120510904D01*
X124822857Y-127562428D02*
X124871238Y-127610809D01*
X124919619Y-127755952D01*
X124919619Y-127852714D01*
X124871238Y-127997857D01*
X124774476Y-128094619D01*
X124677714Y-128143000D01*
X124484190Y-128191380D01*
X124339047Y-128191380D01*
X124145523Y-128143000D01*
X124048761Y-128094619D01*
X123952000Y-127997857D01*
X123903619Y-127852714D01*
X123903619Y-127755952D01*
X123952000Y-127610809D01*
X124000380Y-127562428D01*
X124629333Y-127175380D02*
X124629333Y-126691571D01*
X124919619Y-127272142D02*
X123903619Y-126933476D01*
X124919619Y-126594809D01*
X124919619Y-125772333D02*
X124919619Y-126256142D01*
X123903619Y-126256142D01*
X124919619Y-124949857D02*
X124919619Y-125433666D01*
X123903619Y-125433666D01*
X132491238Y-116797666D02*
X132539619Y-116652523D01*
X132539619Y-116410619D01*
X132491238Y-116313857D01*
X132442857Y-116265476D01*
X132346095Y-116217095D01*
X132249333Y-116217095D01*
X132152571Y-116265476D01*
X132104190Y-116313857D01*
X132055809Y-116410619D01*
X132007428Y-116604142D01*
X131959047Y-116700904D01*
X131910666Y-116749285D01*
X131813904Y-116797666D01*
X131717142Y-116797666D01*
X131620380Y-116749285D01*
X131572000Y-116700904D01*
X131523619Y-116604142D01*
X131523619Y-116362238D01*
X131572000Y-116217095D01*
X131523619Y-115878428D02*
X132539619Y-115636523D01*
X131813904Y-115443000D01*
X132539619Y-115249476D01*
X131523619Y-115007571D01*
X131620380Y-114668904D02*
X131572000Y-114620523D01*
X131523619Y-114523761D01*
X131523619Y-114281857D01*
X131572000Y-114185095D01*
X131620380Y-114136714D01*
X131717142Y-114088333D01*
X131813904Y-114088333D01*
X131959047Y-114136714D01*
X132539619Y-114717285D01*
X132539619Y-114088333D01*
X132249333Y-126860904D02*
X132249333Y-126377095D01*
X132539619Y-126957666D02*
X131523619Y-126619000D01*
X132539619Y-126280333D01*
X140111238Y-116797666D02*
X140159619Y-116652523D01*
X140159619Y-116410619D01*
X140111238Y-116313857D01*
X140062857Y-116265476D01*
X139966095Y-116217095D01*
X139869333Y-116217095D01*
X139772571Y-116265476D01*
X139724190Y-116313857D01*
X139675809Y-116410619D01*
X139627428Y-116604142D01*
X139579047Y-116700904D01*
X139530666Y-116749285D01*
X139433904Y-116797666D01*
X139337142Y-116797666D01*
X139240380Y-116749285D01*
X139192000Y-116700904D01*
X139143619Y-116604142D01*
X139143619Y-116362238D01*
X139192000Y-116217095D01*
X139143619Y-115878428D02*
X140159619Y-115636523D01*
X139433904Y-115443000D01*
X140159619Y-115249476D01*
X139143619Y-115007571D01*
X139143619Y-114717285D02*
X139143619Y-114088333D01*
X139530666Y-114427000D01*
X139530666Y-114281857D01*
X139579047Y-114185095D01*
X139627428Y-114136714D01*
X139724190Y-114088333D01*
X139966095Y-114088333D01*
X140062857Y-114136714D01*
X140111238Y-114185095D01*
X140159619Y-114281857D01*
X140159619Y-114572142D01*
X140111238Y-114668904D01*
X140062857Y-114717285D01*
X139627428Y-126546428D02*
X139675809Y-126401285D01*
X139724190Y-126352904D01*
X139820952Y-126304523D01*
X139966095Y-126304523D01*
X140062857Y-126352904D01*
X140111238Y-126401285D01*
X140159619Y-126498047D01*
X140159619Y-126885095D01*
X139143619Y-126885095D01*
X139143619Y-126546428D01*
X139192000Y-126449666D01*
X139240380Y-126401285D01*
X139337142Y-126352904D01*
X139433904Y-126352904D01*
X139530666Y-126401285D01*
X139579047Y-126449666D01*
X139627428Y-126546428D01*
X139627428Y-126885095D01*
X119839619Y-89444285D02*
X118823619Y-89444285D01*
X119839619Y-88863714D01*
X118823619Y-88863714D01*
X119839619Y-88379904D02*
X118823619Y-88379904D01*
X119307428Y-88379904D02*
X119307428Y-87799333D01*
X119839619Y-87799333D02*
X118823619Y-87799333D01*
X119839619Y-87315523D02*
X118823619Y-87315523D01*
X118823619Y-87073619D01*
X118872000Y-86928476D01*
X118968761Y-86831714D01*
X119065523Y-86783333D01*
X119259047Y-86734952D01*
X119404190Y-86734952D01*
X119597714Y-86783333D01*
X119694476Y-86831714D01*
X119791238Y-86928476D01*
X119839619Y-87073619D01*
X119839619Y-87315523D01*
X119839619Y-85767333D02*
X119839619Y-86347904D01*
X119839619Y-86057619D02*
X118823619Y-86057619D01*
X118968761Y-86154380D01*
X119065523Y-86251142D01*
X119113904Y-86347904D01*
%LPC*%
D14*
X120650000Y-107315000D03*
D15*
X120650000Y-104775000D03*
X120650000Y-102235000D03*
X120650000Y-99695000D03*
X120650000Y-97155000D03*
X120650000Y-94615000D03*
D16*
X132080000Y-81280000D03*
X132080000Y-74930000D03*
X132080000Y-87630000D03*
X125730000Y-81280000D03*
X138430000Y-81280000D03*
D17*
X78740000Y-81915000D03*
X81280000Y-81915000D03*
D18*
X76200000Y-81915000D03*
D17*
X83820000Y-81915000D03*
X86360000Y-81915000D03*
X88900000Y-81915000D03*
X91440000Y-81915000D03*
X93980000Y-81915000D03*
X96520000Y-81915000D03*
X99060000Y-81915000D03*
X101600000Y-81915000D03*
X104140000Y-81915000D03*
X106680000Y-81915000D03*
X109220000Y-81915000D03*
X111760000Y-81915000D03*
X114300000Y-81915000D03*
X114300000Y-117475000D03*
X111760000Y-117475000D03*
X109220000Y-117475000D03*
X106680000Y-117475000D03*
X104140000Y-117475000D03*
X101600000Y-117475000D03*
X99060000Y-117475000D03*
X96520000Y-117475000D03*
X93980000Y-117475000D03*
X91440000Y-117475000D03*
X88900000Y-117475000D03*
X86360000Y-117475000D03*
X83820000Y-117475000D03*
X81280000Y-117475000D03*
X78740000Y-117475000D03*
X76200000Y-117475000D03*
D19*
X77470000Y-86995000D03*
X77470000Y-112395000D03*
X118110000Y-117475000D03*
X118110000Y-81915000D03*
D17*
X125730000Y-111760000D03*
D18*
X123190000Y-111760000D03*
D20*
X122461020Y-117157500D03*
X122461020Y-125412500D03*
X126458980Y-117157500D03*
X126458980Y-125412500D03*
X130081020Y-117157500D03*
X130081020Y-125412500D03*
X134078980Y-117157500D03*
X134078980Y-125412500D03*
X137701020Y-117157500D03*
X137701020Y-125412500D03*
X141698980Y-117157500D03*
X141698980Y-125412500D03*
D21*
X76335000Y-73395000D03*
X115435000Y-73395000D03*
X115435000Y-125995000D03*
X76335000Y-125995000D03*
D18*
X83185000Y-73695000D03*
D17*
X85725000Y-73695000D03*
X88265000Y-73695000D03*
X90805000Y-73695000D03*
X93345000Y-73695000D03*
X95885000Y-73695000D03*
X98425000Y-73695000D03*
X100965000Y-73695000D03*
X103505000Y-73695000D03*
X106045000Y-73695000D03*
X108585000Y-73695000D03*
M02*
